<mxfile host="Electron" agent="Mozilla/5.0 (Windows NT 10.0; Win64; x64) AppleWebKit/537.36 (KHTML, like Gecko) draw.io/26.2.15 Chrome/134.0.6998.205 Electron/35.2.1 Safari/537.36" version="26.2.15">
  <diagram name="Page-1" id="6IuyNh4vv3iAzIVrRRAv">
    <mxGraphModel dx="1158" dy="733" grid="1" gridSize="10" guides="1" tooltips="1" connect="1" arrows="1" fold="1" page="1" pageScale="1" pageWidth="850" pageHeight="1100" math="0" shadow="0">
      <root>
        <mxCell id="0" />
        <mxCell id="1" parent="0" />
        <mxCell id="6zx5J-GpkoQrdZdaRuo2-12" style="rounded=0;orthogonalLoop=1;jettySize=auto;html=1;" edge="1" parent="1" target="6zx5J-GpkoQrdZdaRuo2-11">
          <mxGeometry relative="1" as="geometry">
            <mxPoint x="50" y="110" as="sourcePoint" />
            <mxPoint x="145.5" y="110" as="targetPoint" />
          </mxGeometry>
        </mxCell>
        <mxCell id="6zx5J-GpkoQrdZdaRuo2-1" value="" style="shape=umlLifeline;perimeter=lifelinePerimeter;whiteSpace=wrap;html=1;container=1;dropTarget=0;collapsible=0;recursiveResize=0;outlineConnect=0;portConstraint=eastwest;newEdgeStyle={&quot;curved&quot;:0,&quot;rounded&quot;:0};participant=umlActor;" vertex="1" parent="1">
          <mxGeometry x="40" y="20" width="20" height="830" as="geometry" />
        </mxCell>
        <mxCell id="6zx5J-GpkoQrdZdaRuo2-2" value="Login Screen" style="shape=umlLifeline;perimeter=lifelinePerimeter;whiteSpace=wrap;html=1;container=1;dropTarget=0;collapsible=0;recursiveResize=0;outlineConnect=0;portConstraint=eastwest;newEdgeStyle={&quot;curved&quot;:0,&quot;rounded&quot;:0};" vertex="1" parent="1">
          <mxGeometry x="150" y="20" width="100" height="840" as="geometry" />
        </mxCell>
        <mxCell id="6zx5J-GpkoQrdZdaRuo2-11" value="" style="html=1;points=[[0,0,0,0,5],[0,1,0,0,-5],[1,0,0,0,5],[1,1,0,0,-5]];perimeter=orthogonalPerimeter;outlineConnect=0;targetShapes=umlLifeline;portConstraint=eastwest;newEdgeStyle={&quot;curved&quot;:0,&quot;rounded&quot;:0};" vertex="1" parent="6zx5J-GpkoQrdZdaRuo2-2">
          <mxGeometry x="45" y="60" width="10" height="50" as="geometry" />
        </mxCell>
        <mxCell id="6zx5J-GpkoQrdZdaRuo2-3" value="System:class" style="shape=umlLifeline;perimeter=lifelinePerimeter;whiteSpace=wrap;html=1;container=1;dropTarget=0;collapsible=0;recursiveResize=0;outlineConnect=0;portConstraint=eastwest;newEdgeStyle={&quot;curved&quot;:0,&quot;rounded&quot;:0};" vertex="1" parent="1">
          <mxGeometry x="330" y="20" width="100" height="840" as="geometry" />
        </mxCell>
        <mxCell id="6zx5J-GpkoQrdZdaRuo2-14" value="" style="html=1;points=[[0,0,0,0,5],[0,1,0,0,-5],[1,0,0,0,5],[1,1,0,0,-5]];perimeter=orthogonalPerimeter;outlineConnect=0;targetShapes=umlLifeline;portConstraint=eastwest;newEdgeStyle={&quot;curved&quot;:0,&quot;rounded&quot;:0};" vertex="1" parent="6zx5J-GpkoQrdZdaRuo2-3">
          <mxGeometry x="45" y="50" width="10" height="750" as="geometry" />
        </mxCell>
        <mxCell id="6zx5J-GpkoQrdZdaRuo2-4" value="Main Menu" style="shape=umlLifeline;perimeter=lifelinePerimeter;whiteSpace=wrap;html=1;container=1;dropTarget=0;collapsible=0;recursiveResize=0;outlineConnect=0;portConstraint=eastwest;newEdgeStyle={&quot;curved&quot;:0,&quot;rounded&quot;:0};" vertex="1" parent="1">
          <mxGeometry x="495" y="20" width="100" height="840" as="geometry" />
        </mxCell>
        <mxCell id="6zx5J-GpkoQrdZdaRuo2-38" value="" style="html=1;points=[[0,0,0,0,5],[0,1,0,0,-5],[1,0,0,0,5],[1,1,0,0,-5]];perimeter=orthogonalPerimeter;outlineConnect=0;targetShapes=umlLifeline;portConstraint=eastwest;newEdgeStyle={&quot;curved&quot;:0,&quot;rounded&quot;:0};" vertex="1" parent="6zx5J-GpkoQrdZdaRuo2-4">
          <mxGeometry x="45" y="360" width="10" height="50" as="geometry" />
        </mxCell>
        <mxCell id="6zx5J-GpkoQrdZdaRuo2-5" value="Create Post Screen" style="shape=umlLifeline;perimeter=lifelinePerimeter;whiteSpace=wrap;html=1;container=1;dropTarget=0;collapsible=0;recursiveResize=0;outlineConnect=0;portConstraint=eastwest;newEdgeStyle={&quot;curved&quot;:0,&quot;rounded&quot;:0};" vertex="1" parent="1">
          <mxGeometry x="680" y="20" width="100" height="840" as="geometry" />
        </mxCell>
        <mxCell id="6zx5J-GpkoQrdZdaRuo2-6" value="Database" style="shape=umlLifeline;perimeter=lifelinePerimeter;whiteSpace=wrap;html=1;container=1;dropTarget=0;collapsible=0;recursiveResize=0;outlineConnect=0;portConstraint=eastwest;newEdgeStyle={&quot;curved&quot;:0,&quot;rounded&quot;:0};" vertex="1" parent="1">
          <mxGeometry x="850" y="20" width="100" height="830" as="geometry" />
        </mxCell>
        <mxCell id="6zx5J-GpkoQrdZdaRuo2-20" value="" style="html=1;points=[[0,0,0,0,5],[0,1,0,0,-5],[1,0,0,0,5],[1,1,0,0,-5]];perimeter=orthogonalPerimeter;outlineConnect=0;targetShapes=umlLifeline;portConstraint=eastwest;newEdgeStyle={&quot;curved&quot;:0,&quot;rounded&quot;:0};" vertex="1" parent="6zx5J-GpkoQrdZdaRuo2-6">
          <mxGeometry x="45" y="110" width="10" height="240" as="geometry" />
        </mxCell>
        <mxCell id="6zx5J-GpkoQrdZdaRuo2-156" value="" style="html=1;points=[[0,0,0,0,5],[0,1,0,0,-5],[1,0,0,0,5],[1,1,0,0,-5]];perimeter=orthogonalPerimeter;outlineConnect=0;targetShapes=umlLifeline;portConstraint=eastwest;newEdgeStyle={&quot;curved&quot;:0,&quot;rounded&quot;:0};" vertex="1" parent="6zx5J-GpkoQrdZdaRuo2-6">
          <mxGeometry x="45" y="500" width="10" height="50" as="geometry" />
        </mxCell>
        <mxCell id="6zx5J-GpkoQrdZdaRuo2-10" value="Types Credentials" style="html=1;verticalAlign=bottom;endArrow=block;curved=0;rounded=0;entryX=0;entryY=0;entryDx=0;entryDy=5;entryPerimeter=0;" edge="1" parent="1" source="6zx5J-GpkoQrdZdaRuo2-1" target="6zx5J-GpkoQrdZdaRuo2-11">
          <mxGeometry width="80" relative="1" as="geometry">
            <mxPoint x="400" y="430" as="sourcePoint" />
            <mxPoint x="480" y="430" as="targetPoint" />
          </mxGeometry>
        </mxCell>
        <mxCell id="6zx5J-GpkoQrdZdaRuo2-13" value="Login()" style="text;html=1;align=center;verticalAlign=middle;resizable=0;points=[];autosize=1;strokeColor=none;fillColor=none;" vertex="1" parent="1">
          <mxGeometry x="50" y="88" width="60" height="30" as="geometry" />
        </mxCell>
        <mxCell id="6zx5J-GpkoQrdZdaRuo2-16" style="rounded=0;orthogonalLoop=1;jettySize=auto;html=1;entryX=1;entryY=0;entryDx=0;entryDy=5;entryPerimeter=0;" edge="1" parent="1">
          <mxGeometry relative="1" as="geometry">
            <mxPoint x="370" y="88" as="sourcePoint" />
            <mxPoint x="200" y="88" as="targetPoint" />
          </mxGeometry>
        </mxCell>
        <mxCell id="6zx5J-GpkoQrdZdaRuo2-17" value="DisplayLogscr()" style="text;html=1;align=center;verticalAlign=middle;resizable=0;points=[];autosize=1;strokeColor=none;fillColor=none;" vertex="1" parent="1">
          <mxGeometry x="230" y="58" width="110" height="30" as="geometry" />
        </mxCell>
        <mxCell id="6zx5J-GpkoQrdZdaRuo2-18" style="rounded=0;orthogonalLoop=1;jettySize=auto;html=1;exitX=1;exitY=1;exitDx=0;exitDy=-5;exitPerimeter=0;" edge="1" parent="1" source="6zx5J-GpkoQrdZdaRuo2-11" target="6zx5J-GpkoQrdZdaRuo2-3">
          <mxGeometry relative="1" as="geometry" />
        </mxCell>
        <mxCell id="6zx5J-GpkoQrdZdaRuo2-19" value="Logindetails()" style="text;html=1;align=center;verticalAlign=middle;resizable=0;points=[];autosize=1;strokeColor=none;fillColor=none;" vertex="1" parent="1">
          <mxGeometry x="230" y="100" width="100" height="30" as="geometry" />
        </mxCell>
        <mxCell id="6zx5J-GpkoQrdZdaRuo2-21" style="rounded=0;orthogonalLoop=1;jettySize=auto;html=1;entryX=0;entryY=0;entryDx=0;entryDy=5;entryPerimeter=0;" edge="1" parent="1" source="6zx5J-GpkoQrdZdaRuo2-14" target="6zx5J-GpkoQrdZdaRuo2-20">
          <mxGeometry relative="1" as="geometry" />
        </mxCell>
        <mxCell id="6zx5J-GpkoQrdZdaRuo2-22" value="CheckCredentials()" style="text;html=1;align=center;verticalAlign=middle;resizable=0;points=[];autosize=1;strokeColor=none;fillColor=none;" vertex="1" parent="1">
          <mxGeometry x="540" y="108" width="130" height="30" as="geometry" />
        </mxCell>
        <mxCell id="6zx5J-GpkoQrdZdaRuo2-23" style="rounded=0;orthogonalLoop=1;jettySize=auto;html=1;dashed=1;endArrow=open;endFill=0;" edge="1" parent="1" source="6zx5J-GpkoQrdZdaRuo2-20">
          <mxGeometry relative="1" as="geometry">
            <mxPoint x="903" y="350" as="sourcePoint" />
            <mxPoint x="387.25" y="350" as="targetPoint" />
          </mxGeometry>
        </mxCell>
        <mxCell id="6zx5J-GpkoQrdZdaRuo2-24" value="return results" style="text;html=1;align=center;verticalAlign=middle;resizable=0;points=[];autosize=1;strokeColor=none;fillColor=none;" vertex="1" parent="1">
          <mxGeometry x="570" y="340" width="90" height="30" as="geometry" />
        </mxCell>
        <mxCell id="6zx5J-GpkoQrdZdaRuo2-28" style="rounded=0;orthogonalLoop=1;jettySize=auto;html=1;dashed=1;fillColor=#f8cecc;strokeColor=#b85450;" edge="1" parent="1" target="6zx5J-GpkoQrdZdaRuo2-14">
          <mxGeometry relative="1" as="geometry">
            <mxPoint x="890" y="180" as="sourcePoint" />
            <mxPoint x="310" y="180" as="targetPoint" />
          </mxGeometry>
        </mxCell>
        <mxCell id="6zx5J-GpkoQrdZdaRuo2-29" value="NotValidPass()" style="text;html=1;align=center;verticalAlign=middle;resizable=0;points=[];autosize=1;" vertex="1" parent="1">
          <mxGeometry x="595" y="155" width="100" height="30" as="geometry" />
        </mxCell>
        <mxCell id="6zx5J-GpkoQrdZdaRuo2-30" value="Alt" style="shape=umlFrame;whiteSpace=wrap;html=1;pointerEvents=0;fillColor=#f8cecc;strokeColor=#b85450;" vertex="1" parent="1">
          <mxGeometry x="15" y="138" width="915" height="202" as="geometry" />
        </mxCell>
        <mxCell id="6zx5J-GpkoQrdZdaRuo2-31" value="Error popup message screen" style="shape=umlLifeline;perimeter=lifelinePerimeter;whiteSpace=wrap;html=1;container=1;dropTarget=0;collapsible=0;recursiveResize=0;outlineConnect=0;portConstraint=eastwest;newEdgeStyle={&quot;curved&quot;:0,&quot;rounded&quot;:0};fillColor=#f8cecc;strokeColor=#b85450;" vertex="1" parent="1">
          <mxGeometry x="600" y="204" width="70" height="70" as="geometry" />
        </mxCell>
        <mxCell id="6zx5J-GpkoQrdZdaRuo2-32" value="" style="html=1;points=[[0,0,0,0,5],[0,1,0,0,-5],[1,0,0,0,5],[1,1,0,0,-5]];perimeter=orthogonalPerimeter;outlineConnect=0;targetShapes=umlLifeline;portConstraint=eastwest;newEdgeStyle={&quot;curved&quot;:0,&quot;rounded&quot;:0};fillColor=#f8cecc;strokeColor=#b85450;" vertex="1" parent="6zx5J-GpkoQrdZdaRuo2-31">
          <mxGeometry x="30" y="50" width="10" height="20" as="geometry" />
        </mxCell>
        <mxCell id="6zx5J-GpkoQrdZdaRuo2-33" value="&quot;create&quot;" style="endArrow=open;endSize=12;dashed=1;html=1;rounded=0;fillColor=#f8cecc;strokeColor=#b85450;entryX=0;entryY=0.229;entryDx=0;entryDy=0;entryPerimeter=0;" edge="1" parent="1" source="6zx5J-GpkoQrdZdaRuo2-14" target="6zx5J-GpkoQrdZdaRuo2-31">
          <mxGeometry width="160" relative="1" as="geometry">
            <mxPoint x="392.5" y="220" as="sourcePoint" />
            <mxPoint x="552.5" y="220" as="targetPoint" />
          </mxGeometry>
        </mxCell>
        <mxCell id="6zx5J-GpkoQrdZdaRuo2-34" style="rounded=0;orthogonalLoop=1;jettySize=auto;html=1;fillColor=#f8cecc;strokeColor=#b85450;" edge="1" parent="1" source="6zx5J-GpkoQrdZdaRuo2-14" target="6zx5J-GpkoQrdZdaRuo2-32">
          <mxGeometry relative="1" as="geometry">
            <mxPoint x="195" y="625" as="sourcePoint" />
            <Array as="points">
              <mxPoint x="510" y="250" />
            </Array>
          </mxGeometry>
        </mxCell>
        <mxCell id="6zx5J-GpkoQrdZdaRuo2-35" value="show()" style="text;html=1;align=center;verticalAlign=middle;resizable=0;points=[];autosize=1;strokeColor=none;fillColor=none;" vertex="1" parent="1">
          <mxGeometry x="470" y="224" width="60" height="30" as="geometry" />
        </mxCell>
        <mxCell id="6zx5J-GpkoQrdZdaRuo2-39" style="rounded=0;orthogonalLoop=1;jettySize=auto;html=1;entryX=0;entryY=0;entryDx=0;entryDy=5;entryPerimeter=0;" edge="1" parent="1" source="6zx5J-GpkoQrdZdaRuo2-14" target="6zx5J-GpkoQrdZdaRuo2-38">
          <mxGeometry relative="1" as="geometry" />
        </mxCell>
        <mxCell id="6zx5J-GpkoQrdZdaRuo2-40" value="show()" style="text;html=1;align=center;verticalAlign=middle;resizable=0;points=[];autosize=1;strokeColor=none;fillColor=none;" vertex="1" parent="1">
          <mxGeometry x="450" y="358" width="60" height="30" as="geometry" />
        </mxCell>
        <mxCell id="6zx5J-GpkoQrdZdaRuo2-41" style="rounded=0;orthogonalLoop=1;jettySize=auto;html=1;" edge="1" parent="1" target="6zx5J-GpkoQrdZdaRuo2-44">
          <mxGeometry relative="1" as="geometry">
            <mxPoint x="57.5" y="2010" as="sourcePoint" />
            <mxPoint x="153" y="2010" as="targetPoint" />
          </mxGeometry>
        </mxCell>
        <mxCell id="6zx5J-GpkoQrdZdaRuo2-42" value="" style="shape=umlLifeline;perimeter=lifelinePerimeter;whiteSpace=wrap;html=1;container=1;dropTarget=0;collapsible=0;recursiveResize=0;outlineConnect=0;portConstraint=eastwest;newEdgeStyle={&quot;curved&quot;:0,&quot;rounded&quot;:0};participant=umlActor;" vertex="1" parent="1">
          <mxGeometry x="47.5" y="1920" width="20" height="960" as="geometry" />
        </mxCell>
        <mxCell id="6zx5J-GpkoQrdZdaRuo2-43" value="Login Screen" style="shape=umlLifeline;perimeter=lifelinePerimeter;whiteSpace=wrap;html=1;container=1;dropTarget=0;collapsible=0;recursiveResize=0;outlineConnect=0;portConstraint=eastwest;newEdgeStyle={&quot;curved&quot;:0,&quot;rounded&quot;:0};" vertex="1" parent="1">
          <mxGeometry x="157.5" y="1920" width="100" height="980" as="geometry" />
        </mxCell>
        <mxCell id="6zx5J-GpkoQrdZdaRuo2-44" value="" style="html=1;points=[[0,0,0,0,5],[0,1,0,0,-5],[1,0,0,0,5],[1,1,0,0,-5]];perimeter=orthogonalPerimeter;outlineConnect=0;targetShapes=umlLifeline;portConstraint=eastwest;newEdgeStyle={&quot;curved&quot;:0,&quot;rounded&quot;:0};" vertex="1" parent="6zx5J-GpkoQrdZdaRuo2-43">
          <mxGeometry x="45" y="60" width="10" height="50" as="geometry" />
        </mxCell>
        <mxCell id="6zx5J-GpkoQrdZdaRuo2-45" value="System:class" style="shape=umlLifeline;perimeter=lifelinePerimeter;whiteSpace=wrap;html=1;container=1;dropTarget=0;collapsible=0;recursiveResize=0;outlineConnect=0;portConstraint=eastwest;newEdgeStyle={&quot;curved&quot;:0,&quot;rounded&quot;:0};" vertex="1" parent="1">
          <mxGeometry x="337.5" y="1920" width="100" height="960" as="geometry" />
        </mxCell>
        <mxCell id="6zx5J-GpkoQrdZdaRuo2-46" value="" style="html=1;points=[[0,0,0,0,5],[0,1,0,0,-5],[1,0,0,0,5],[1,1,0,0,-5]];perimeter=orthogonalPerimeter;outlineConnect=0;targetShapes=umlLifeline;portConstraint=eastwest;newEdgeStyle={&quot;curved&quot;:0,&quot;rounded&quot;:0};" vertex="1" parent="6zx5J-GpkoQrdZdaRuo2-45">
          <mxGeometry x="45" y="50" width="10" height="880" as="geometry" />
        </mxCell>
        <mxCell id="6zx5J-GpkoQrdZdaRuo2-47" value="Main Menu" style="shape=umlLifeline;perimeter=lifelinePerimeter;whiteSpace=wrap;html=1;container=1;dropTarget=0;collapsible=0;recursiveResize=0;outlineConnect=0;portConstraint=eastwest;newEdgeStyle={&quot;curved&quot;:0,&quot;rounded&quot;:0};" vertex="1" parent="1">
          <mxGeometry x="502.5" y="1920" width="100" height="960" as="geometry" />
        </mxCell>
        <mxCell id="6zx5J-GpkoQrdZdaRuo2-48" value="" style="html=1;points=[[0,0,0,0,5],[0,1,0,0,-5],[1,0,0,0,5],[1,1,0,0,-5]];perimeter=orthogonalPerimeter;outlineConnect=0;targetShapes=umlLifeline;portConstraint=eastwest;newEdgeStyle={&quot;curved&quot;:0,&quot;rounded&quot;:0};" vertex="1" parent="6zx5J-GpkoQrdZdaRuo2-47">
          <mxGeometry x="45" y="360" width="10" height="50" as="geometry" />
        </mxCell>
        <mxCell id="6zx5J-GpkoQrdZdaRuo2-49" value="Lost Items&amp;nbsp; Post Screen" style="shape=umlLifeline;perimeter=lifelinePerimeter;whiteSpace=wrap;html=1;container=1;dropTarget=0;collapsible=0;recursiveResize=0;outlineConnect=0;portConstraint=eastwest;newEdgeStyle={&quot;curved&quot;:0,&quot;rounded&quot;:0};" vertex="1" parent="1">
          <mxGeometry x="642.5" y="1920" width="100" height="970" as="geometry" />
        </mxCell>
        <mxCell id="6zx5J-GpkoQrdZdaRuo2-249" value="" style="html=1;points=[[0,0,0,0,5],[0,1,0,0,-5],[1,0,0,0,5],[1,1,0,0,-5]];perimeter=orthogonalPerimeter;outlineConnect=0;targetShapes=umlLifeline;portConstraint=eastwest;newEdgeStyle={&quot;curved&quot;:0,&quot;rounded&quot;:0};" vertex="1" parent="6zx5J-GpkoQrdZdaRuo2-49">
          <mxGeometry x="47.5" y="400" width="10" height="50" as="geometry" />
        </mxCell>
        <mxCell id="6zx5J-GpkoQrdZdaRuo2-278" value="" style="html=1;points=[[0,0,0,0,5],[0,1,0,0,-5],[1,0,0,0,5],[1,1,0,0,-5]];perimeter=orthogonalPerimeter;outlineConnect=0;targetShapes=umlLifeline;portConstraint=eastwest;newEdgeStyle={&quot;curved&quot;:0,&quot;rounded&quot;:0};fillColor=none;strokeColor=#b85450;" vertex="1" parent="6zx5J-GpkoQrdZdaRuo2-49">
          <mxGeometry x="47.5" y="720" width="10" height="50" as="geometry" />
        </mxCell>
        <mxCell id="6zx5J-GpkoQrdZdaRuo2-283" value="" style="html=1;points=[[0,0,0,0,5],[0,1,0,0,-5],[1,0,0,0,5],[1,1,0,0,-5]];perimeter=orthogonalPerimeter;outlineConnect=0;targetShapes=umlLifeline;portConstraint=eastwest;newEdgeStyle={&quot;curved&quot;:0,&quot;rounded&quot;:0};fillColor=#f8cecc;strokeColor=#b85450;fontColor=#FF0000;" vertex="1" parent="6zx5J-GpkoQrdZdaRuo2-49">
          <mxGeometry x="47.5" y="820" width="10" height="50" as="geometry" />
        </mxCell>
        <mxCell id="6zx5J-GpkoQrdZdaRuo2-284" style="rounded=0;orthogonalLoop=1;jettySize=auto;html=1;entryX=0;entryY=0;entryDx=0;entryDy=5;entryPerimeter=0;fillColor=#f8cecc;strokeColor=#b85450;fontColor=#FF0000;" edge="1" parent="6zx5J-GpkoQrdZdaRuo2-49" target="6zx5J-GpkoQrdZdaRuo2-283">
          <mxGeometry relative="1" as="geometry">
            <mxPoint x="-585.5" y="825" as="sourcePoint" />
            <mxPoint x="17.5" y="950" as="targetPoint" />
          </mxGeometry>
        </mxCell>
        <mxCell id="6zx5J-GpkoQrdZdaRuo2-50" value="Database" style="shape=umlLifeline;perimeter=lifelinePerimeter;whiteSpace=wrap;html=1;container=1;dropTarget=0;collapsible=0;recursiveResize=0;outlineConnect=0;portConstraint=eastwest;newEdgeStyle={&quot;curved&quot;:0,&quot;rounded&quot;:0};" vertex="1" parent="1">
          <mxGeometry x="857.5" y="1920" width="100" height="980" as="geometry" />
        </mxCell>
        <mxCell id="6zx5J-GpkoQrdZdaRuo2-51" value="" style="html=1;points=[[0,0,0,0,5],[0,1,0,0,-5],[1,0,0,0,5],[1,1,0,0,-5]];perimeter=orthogonalPerimeter;outlineConnect=0;targetShapes=umlLifeline;portConstraint=eastwest;newEdgeStyle={&quot;curved&quot;:0,&quot;rounded&quot;:0};" vertex="1" parent="6zx5J-GpkoQrdZdaRuo2-50">
          <mxGeometry x="45" y="110" width="10" height="220" as="geometry" />
        </mxCell>
        <mxCell id="6zx5J-GpkoQrdZdaRuo2-265" value="" style="html=1;points=[[0,0,0,0,5],[0,1,0,0,-5],[1,0,0,0,5],[1,1,0,0,-5]];perimeter=orthogonalPerimeter;outlineConnect=0;targetShapes=umlLifeline;portConstraint=eastwest;newEdgeStyle={&quot;curved&quot;:0,&quot;rounded&quot;:0};" vertex="1" parent="6zx5J-GpkoQrdZdaRuo2-50">
          <mxGeometry x="45" y="470" width="10" height="90" as="geometry" />
        </mxCell>
        <mxCell id="6zx5J-GpkoQrdZdaRuo2-52" value="Types Credentials" style="html=1;verticalAlign=bottom;endArrow=block;curved=0;rounded=0;entryX=0;entryY=0;entryDx=0;entryDy=5;entryPerimeter=0;" edge="1" parent="1" source="6zx5J-GpkoQrdZdaRuo2-42" target="6zx5J-GpkoQrdZdaRuo2-44">
          <mxGeometry width="80" relative="1" as="geometry">
            <mxPoint x="407.5" y="2330" as="sourcePoint" />
            <mxPoint x="487.5" y="2330" as="targetPoint" />
          </mxGeometry>
        </mxCell>
        <mxCell id="6zx5J-GpkoQrdZdaRuo2-53" value="Login()" style="text;html=1;align=center;verticalAlign=middle;resizable=0;points=[];autosize=1;strokeColor=none;fillColor=none;" vertex="1" parent="1">
          <mxGeometry x="57.5" y="1988" width="60" height="30" as="geometry" />
        </mxCell>
        <mxCell id="6zx5J-GpkoQrdZdaRuo2-54" style="rounded=0;orthogonalLoop=1;jettySize=auto;html=1;entryX=1;entryY=0;entryDx=0;entryDy=5;entryPerimeter=0;" edge="1" parent="1">
          <mxGeometry relative="1" as="geometry">
            <mxPoint x="377.5" y="1988" as="sourcePoint" />
            <mxPoint x="207.5" y="1988" as="targetPoint" />
          </mxGeometry>
        </mxCell>
        <mxCell id="6zx5J-GpkoQrdZdaRuo2-55" value="DisplayLogscr()" style="text;html=1;align=center;verticalAlign=middle;resizable=0;points=[];autosize=1;strokeColor=none;fillColor=none;" vertex="1" parent="1">
          <mxGeometry x="237.5" y="1958" width="110" height="30" as="geometry" />
        </mxCell>
        <mxCell id="6zx5J-GpkoQrdZdaRuo2-56" style="rounded=0;orthogonalLoop=1;jettySize=auto;html=1;exitX=1;exitY=1;exitDx=0;exitDy=-5;exitPerimeter=0;" edge="1" parent="1" source="6zx5J-GpkoQrdZdaRuo2-44" target="6zx5J-GpkoQrdZdaRuo2-45">
          <mxGeometry relative="1" as="geometry" />
        </mxCell>
        <mxCell id="6zx5J-GpkoQrdZdaRuo2-57" value="Logindetails()" style="text;html=1;align=center;verticalAlign=middle;resizable=0;points=[];autosize=1;strokeColor=none;fillColor=none;" vertex="1" parent="1">
          <mxGeometry x="237.5" y="2000" width="100" height="30" as="geometry" />
        </mxCell>
        <mxCell id="6zx5J-GpkoQrdZdaRuo2-58" style="rounded=0;orthogonalLoop=1;jettySize=auto;html=1;entryX=0;entryY=0;entryDx=0;entryDy=5;entryPerimeter=0;" edge="1" parent="1" source="6zx5J-GpkoQrdZdaRuo2-46" target="6zx5J-GpkoQrdZdaRuo2-51">
          <mxGeometry relative="1" as="geometry" />
        </mxCell>
        <mxCell id="6zx5J-GpkoQrdZdaRuo2-59" value="CheckCredentials()" style="text;html=1;align=center;verticalAlign=middle;resizable=0;points=[];autosize=1;strokeColor=none;fillColor=none;" vertex="1" parent="1">
          <mxGeometry x="547.5" y="2008" width="130" height="30" as="geometry" />
        </mxCell>
        <mxCell id="6zx5J-GpkoQrdZdaRuo2-60" style="rounded=0;orthogonalLoop=1;jettySize=auto;html=1;dashed=1;endArrow=open;endFill=0;" edge="1" parent="1" source="6zx5J-GpkoQrdZdaRuo2-51">
          <mxGeometry relative="1" as="geometry">
            <mxPoint x="910.5" y="2250" as="sourcePoint" />
            <mxPoint x="394.75" y="2250" as="targetPoint" />
          </mxGeometry>
        </mxCell>
        <mxCell id="6zx5J-GpkoQrdZdaRuo2-61" value="return results" style="text;html=1;align=center;verticalAlign=middle;resizable=0;points=[];autosize=1;strokeColor=none;fillColor=none;" vertex="1" parent="1">
          <mxGeometry x="577.5" y="2240" width="90" height="30" as="geometry" />
        </mxCell>
        <mxCell id="6zx5J-GpkoQrdZdaRuo2-62" style="rounded=0;orthogonalLoop=1;jettySize=auto;html=1;dashed=1;fillColor=#f8cecc;strokeColor=#b85450;" edge="1" parent="1" target="6zx5J-GpkoQrdZdaRuo2-46">
          <mxGeometry relative="1" as="geometry">
            <mxPoint x="897.5" y="2080" as="sourcePoint" />
            <mxPoint x="317.5" y="2080" as="targetPoint" />
          </mxGeometry>
        </mxCell>
        <mxCell id="6zx5J-GpkoQrdZdaRuo2-63" value="NotValidPass()" style="text;html=1;align=center;verticalAlign=middle;resizable=0;points=[];autosize=1;" vertex="1" parent="1">
          <mxGeometry x="602.5" y="2055" width="100" height="30" as="geometry" />
        </mxCell>
        <mxCell id="6zx5J-GpkoQrdZdaRuo2-64" value="Alt 1" style="shape=umlFrame;whiteSpace=wrap;html=1;pointerEvents=0;fillColor=#f8cecc;strokeColor=#b85450;" vertex="1" parent="1">
          <mxGeometry x="22.5" y="2039" width="915" height="202" as="geometry" />
        </mxCell>
        <mxCell id="6zx5J-GpkoQrdZdaRuo2-65" value="Error popup message screen" style="shape=umlLifeline;perimeter=lifelinePerimeter;whiteSpace=wrap;html=1;container=1;dropTarget=0;collapsible=0;recursiveResize=0;outlineConnect=0;portConstraint=eastwest;newEdgeStyle={&quot;curved&quot;:0,&quot;rounded&quot;:0};fillColor=#f8cecc;strokeColor=#b85450;" vertex="1" parent="1">
          <mxGeometry x="607.5" y="2104" width="70" height="70" as="geometry" />
        </mxCell>
        <mxCell id="6zx5J-GpkoQrdZdaRuo2-66" value="" style="html=1;points=[[0,0,0,0,5],[0,1,0,0,-5],[1,0,0,0,5],[1,1,0,0,-5]];perimeter=orthogonalPerimeter;outlineConnect=0;targetShapes=umlLifeline;portConstraint=eastwest;newEdgeStyle={&quot;curved&quot;:0,&quot;rounded&quot;:0};fillColor=#f8cecc;strokeColor=#b85450;" vertex="1" parent="6zx5J-GpkoQrdZdaRuo2-65">
          <mxGeometry x="30" y="50" width="10" height="20" as="geometry" />
        </mxCell>
        <mxCell id="6zx5J-GpkoQrdZdaRuo2-67" value="&quot;create&quot;" style="endArrow=open;endSize=12;dashed=1;html=1;rounded=0;fillColor=#f8cecc;strokeColor=#b85450;entryX=0;entryY=0.229;entryDx=0;entryDy=0;entryPerimeter=0;" edge="1" parent="1" source="6zx5J-GpkoQrdZdaRuo2-46" target="6zx5J-GpkoQrdZdaRuo2-65">
          <mxGeometry width="160" relative="1" as="geometry">
            <mxPoint x="400" y="2120" as="sourcePoint" />
            <mxPoint x="560" y="2120" as="targetPoint" />
          </mxGeometry>
        </mxCell>
        <mxCell id="6zx5J-GpkoQrdZdaRuo2-68" style="rounded=0;orthogonalLoop=1;jettySize=auto;html=1;fillColor=#f8cecc;strokeColor=#b85450;" edge="1" parent="1" source="6zx5J-GpkoQrdZdaRuo2-46" target="6zx5J-GpkoQrdZdaRuo2-66">
          <mxGeometry relative="1" as="geometry">
            <mxPoint x="202.5" y="2525" as="sourcePoint" />
          </mxGeometry>
        </mxCell>
        <mxCell id="6zx5J-GpkoQrdZdaRuo2-69" value="show()" style="text;html=1;align=center;verticalAlign=middle;resizable=0;points=[];autosize=1;strokeColor=none;fillColor=none;" vertex="1" parent="1">
          <mxGeometry x="475" y="2144" width="60" height="30" as="geometry" />
        </mxCell>
        <mxCell id="6zx5J-GpkoQrdZdaRuo2-70" style="rounded=0;orthogonalLoop=1;jettySize=auto;html=1;entryX=0;entryY=0;entryDx=0;entryDy=5;entryPerimeter=0;" edge="1" parent="1" source="6zx5J-GpkoQrdZdaRuo2-45" target="6zx5J-GpkoQrdZdaRuo2-48">
          <mxGeometry relative="1" as="geometry" />
        </mxCell>
        <mxCell id="6zx5J-GpkoQrdZdaRuo2-71" value="show()" style="text;html=1;align=center;verticalAlign=middle;resizable=0;points=[];autosize=1;strokeColor=none;fillColor=none;" vertex="1" parent="1">
          <mxGeometry x="457.5" y="2258" width="60" height="30" as="geometry" />
        </mxCell>
        <mxCell id="6zx5J-GpkoQrdZdaRuo2-72" style="rounded=0;orthogonalLoop=1;jettySize=auto;html=1;" edge="1" parent="1" target="6zx5J-GpkoQrdZdaRuo2-75">
          <mxGeometry relative="1" as="geometry">
            <mxPoint x="80" y="5832" as="sourcePoint" />
            <mxPoint x="175.5" y="5832" as="targetPoint" />
          </mxGeometry>
        </mxCell>
        <mxCell id="6zx5J-GpkoQrdZdaRuo2-73" value="" style="shape=umlLifeline;perimeter=lifelinePerimeter;whiteSpace=wrap;html=1;container=1;dropTarget=0;collapsible=0;recursiveResize=0;outlineConnect=0;portConstraint=eastwest;newEdgeStyle={&quot;curved&quot;:0,&quot;rounded&quot;:0};participant=umlActor;" vertex="1" parent="1">
          <mxGeometry x="70" y="5742" width="20" height="710" as="geometry" />
        </mxCell>
        <mxCell id="6zx5J-GpkoQrdZdaRuo2-74" value="Login Screen" style="shape=umlLifeline;perimeter=lifelinePerimeter;whiteSpace=wrap;html=1;container=1;dropTarget=0;collapsible=0;recursiveResize=0;outlineConnect=0;portConstraint=eastwest;newEdgeStyle={&quot;curved&quot;:0,&quot;rounded&quot;:0};" vertex="1" parent="1">
          <mxGeometry x="180" y="5742" width="100" height="720" as="geometry" />
        </mxCell>
        <mxCell id="6zx5J-GpkoQrdZdaRuo2-75" value="" style="html=1;points=[[0,0,0,0,5],[0,1,0,0,-5],[1,0,0,0,5],[1,1,0,0,-5]];perimeter=orthogonalPerimeter;outlineConnect=0;targetShapes=umlLifeline;portConstraint=eastwest;newEdgeStyle={&quot;curved&quot;:0,&quot;rounded&quot;:0};" vertex="1" parent="6zx5J-GpkoQrdZdaRuo2-74">
          <mxGeometry x="45" y="60" width="10" height="50" as="geometry" />
        </mxCell>
        <mxCell id="6zx5J-GpkoQrdZdaRuo2-76" value="System:Class" style="shape=umlLifeline;perimeter=lifelinePerimeter;whiteSpace=wrap;html=1;container=1;dropTarget=0;collapsible=0;recursiveResize=0;outlineConnect=0;portConstraint=eastwest;newEdgeStyle={&quot;curved&quot;:0,&quot;rounded&quot;:0};" vertex="1" parent="1">
          <mxGeometry x="360" y="5742" width="100" height="720" as="geometry" />
        </mxCell>
        <mxCell id="6zx5J-GpkoQrdZdaRuo2-77" value="" style="html=1;points=[[0,0,0,0,5],[0,1,0,0,-5],[1,0,0,0,5],[1,1,0,0,-5]];perimeter=orthogonalPerimeter;outlineConnect=0;targetShapes=umlLifeline;portConstraint=eastwest;newEdgeStyle={&quot;curved&quot;:0,&quot;rounded&quot;:0};" vertex="1" parent="6zx5J-GpkoQrdZdaRuo2-76">
          <mxGeometry x="45" y="50" width="10" height="650" as="geometry" />
        </mxCell>
        <mxCell id="6zx5J-GpkoQrdZdaRuo2-78" value="Business Main Menu" style="shape=umlLifeline;perimeter=lifelinePerimeter;whiteSpace=wrap;html=1;container=1;dropTarget=0;collapsible=0;recursiveResize=0;outlineConnect=0;portConstraint=eastwest;newEdgeStyle={&quot;curved&quot;:0,&quot;rounded&quot;:0};" vertex="1" parent="1">
          <mxGeometry x="525" y="5742" width="100" height="720" as="geometry" />
        </mxCell>
        <mxCell id="6zx5J-GpkoQrdZdaRuo2-79" value="" style="html=1;points=[[0,0,0,0,5],[0,1,0,0,-5],[1,0,0,0,5],[1,1,0,0,-5]];perimeter=orthogonalPerimeter;outlineConnect=0;targetShapes=umlLifeline;portConstraint=eastwest;newEdgeStyle={&quot;curved&quot;:0,&quot;rounded&quot;:0};" vertex="1" parent="6zx5J-GpkoQrdZdaRuo2-78">
          <mxGeometry x="45" y="360" width="10" height="70" as="geometry" />
        </mxCell>
        <mxCell id="6zx5J-GpkoQrdZdaRuo2-80" value="Add business Form Screen" style="shape=umlLifeline;perimeter=lifelinePerimeter;whiteSpace=wrap;html=1;container=1;dropTarget=0;collapsible=0;recursiveResize=0;outlineConnect=0;portConstraint=eastwest;newEdgeStyle={&quot;curved&quot;:0,&quot;rounded&quot;:0};" vertex="1" parent="1">
          <mxGeometry x="710" y="5742" width="100" height="730" as="geometry" />
        </mxCell>
        <mxCell id="6zx5J-GpkoQrdZdaRuo2-303" value="" style="html=1;points=[[0,0,0,0,5],[0,1,0,0,-5],[1,0,0,0,5],[1,1,0,0,-5]];perimeter=orthogonalPerimeter;outlineConnect=0;targetShapes=umlLifeline;portConstraint=eastwest;newEdgeStyle={&quot;curved&quot;:0,&quot;rounded&quot;:0};" vertex="1" parent="6zx5J-GpkoQrdZdaRuo2-80">
          <mxGeometry x="45" y="440" width="10" height="100" as="geometry" />
        </mxCell>
        <mxCell id="6zx5J-GpkoQrdZdaRuo2-329" value="" style="html=1;points=[[0,0,0,0,5],[0,1,0,0,-5],[1,0,0,0,5],[1,1,0,0,-5]];perimeter=orthogonalPerimeter;outlineConnect=0;targetShapes=umlLifeline;portConstraint=eastwest;newEdgeStyle={&quot;curved&quot;:0,&quot;rounded&quot;:0};" vertex="1" parent="6zx5J-GpkoQrdZdaRuo2-80">
          <mxGeometry x="45" y="585" width="10" height="100" as="geometry" />
        </mxCell>
        <mxCell id="6zx5J-GpkoQrdZdaRuo2-81" value="Database" style="shape=umlLifeline;perimeter=lifelinePerimeter;whiteSpace=wrap;html=1;container=1;dropTarget=0;collapsible=0;recursiveResize=0;outlineConnect=0;portConstraint=eastwest;newEdgeStyle={&quot;curved&quot;:0,&quot;rounded&quot;:0};" vertex="1" parent="1">
          <mxGeometry x="880" y="5742" width="100" height="720" as="geometry" />
        </mxCell>
        <mxCell id="6zx5J-GpkoQrdZdaRuo2-82" value="" style="html=1;points=[[0,0,0,0,5],[0,1,0,0,-5],[1,0,0,0,5],[1,1,0,0,-5]];perimeter=orthogonalPerimeter;outlineConnect=0;targetShapes=umlLifeline;portConstraint=eastwest;newEdgeStyle={&quot;curved&quot;:0,&quot;rounded&quot;:0};" vertex="1" parent="6zx5J-GpkoQrdZdaRuo2-81">
          <mxGeometry x="45" y="110" width="10" height="240" as="geometry" />
        </mxCell>
        <mxCell id="6zx5J-GpkoQrdZdaRuo2-316" value="" style="html=1;points=[[0,0,0,0,5],[0,1,0,0,-5],[1,0,0,0,5],[1,1,0,0,-5]];perimeter=orthogonalPerimeter;outlineConnect=0;targetShapes=umlLifeline;portConstraint=eastwest;newEdgeStyle={&quot;curved&quot;:0,&quot;rounded&quot;:0};" vertex="1" parent="6zx5J-GpkoQrdZdaRuo2-81">
          <mxGeometry x="45" y="550" width="10" height="30" as="geometry" />
        </mxCell>
        <mxCell id="6zx5J-GpkoQrdZdaRuo2-83" value="Types Credentials" style="html=1;verticalAlign=bottom;endArrow=block;curved=0;rounded=0;entryX=0;entryY=0;entryDx=0;entryDy=5;entryPerimeter=0;" edge="1" parent="1" source="6zx5J-GpkoQrdZdaRuo2-73" target="6zx5J-GpkoQrdZdaRuo2-75">
          <mxGeometry width="80" relative="1" as="geometry">
            <mxPoint x="430" y="6152" as="sourcePoint" />
            <mxPoint x="510" y="6152" as="targetPoint" />
          </mxGeometry>
        </mxCell>
        <mxCell id="6zx5J-GpkoQrdZdaRuo2-84" value="Login()" style="text;html=1;align=center;verticalAlign=middle;resizable=0;points=[];autosize=1;strokeColor=none;fillColor=none;" vertex="1" parent="1">
          <mxGeometry x="80" y="5810" width="60" height="30" as="geometry" />
        </mxCell>
        <mxCell id="6zx5J-GpkoQrdZdaRuo2-85" style="rounded=0;orthogonalLoop=1;jettySize=auto;html=1;entryX=1;entryY=0;entryDx=0;entryDy=5;entryPerimeter=0;" edge="1" parent="1">
          <mxGeometry relative="1" as="geometry">
            <mxPoint x="400" y="5810" as="sourcePoint" />
            <mxPoint x="230" y="5810" as="targetPoint" />
          </mxGeometry>
        </mxCell>
        <mxCell id="6zx5J-GpkoQrdZdaRuo2-86" value="DisplayLogscr()" style="text;html=1;align=center;verticalAlign=middle;resizable=0;points=[];autosize=1;strokeColor=none;fillColor=none;" vertex="1" parent="1">
          <mxGeometry x="260" y="5780" width="110" height="30" as="geometry" />
        </mxCell>
        <mxCell id="6zx5J-GpkoQrdZdaRuo2-87" style="rounded=0;orthogonalLoop=1;jettySize=auto;html=1;exitX=1;exitY=1;exitDx=0;exitDy=-5;exitPerimeter=0;" edge="1" parent="1" source="6zx5J-GpkoQrdZdaRuo2-75" target="6zx5J-GpkoQrdZdaRuo2-76">
          <mxGeometry relative="1" as="geometry" />
        </mxCell>
        <mxCell id="6zx5J-GpkoQrdZdaRuo2-88" value="Logindetails()" style="text;html=1;align=center;verticalAlign=middle;resizable=0;points=[];autosize=1;strokeColor=none;fillColor=none;" vertex="1" parent="1">
          <mxGeometry x="260" y="5822" width="100" height="30" as="geometry" />
        </mxCell>
        <mxCell id="6zx5J-GpkoQrdZdaRuo2-89" style="rounded=0;orthogonalLoop=1;jettySize=auto;html=1;entryX=0;entryY=0;entryDx=0;entryDy=5;entryPerimeter=0;" edge="1" parent="1" source="6zx5J-GpkoQrdZdaRuo2-77" target="6zx5J-GpkoQrdZdaRuo2-82">
          <mxGeometry relative="1" as="geometry" />
        </mxCell>
        <mxCell id="6zx5J-GpkoQrdZdaRuo2-90" value="CheckCredentials()" style="text;html=1;align=center;verticalAlign=middle;resizable=0;points=[];autosize=1;strokeColor=none;fillColor=none;" vertex="1" parent="1">
          <mxGeometry x="570" y="5830" width="130" height="30" as="geometry" />
        </mxCell>
        <mxCell id="6zx5J-GpkoQrdZdaRuo2-91" style="rounded=0;orthogonalLoop=1;jettySize=auto;html=1;dashed=1;endArrow=open;endFill=0;" edge="1" parent="1" source="6zx5J-GpkoQrdZdaRuo2-82">
          <mxGeometry relative="1" as="geometry">
            <mxPoint x="933" y="6072" as="sourcePoint" />
            <mxPoint x="417.25" y="6072" as="targetPoint" />
          </mxGeometry>
        </mxCell>
        <mxCell id="6zx5J-GpkoQrdZdaRuo2-92" value="return results" style="text;html=1;align=center;verticalAlign=middle;resizable=0;points=[];autosize=1;strokeColor=none;fillColor=none;" vertex="1" parent="1">
          <mxGeometry x="600" y="6062" width="90" height="30" as="geometry" />
        </mxCell>
        <mxCell id="6zx5J-GpkoQrdZdaRuo2-93" style="rounded=0;orthogonalLoop=1;jettySize=auto;html=1;dashed=1;fillColor=#f8cecc;strokeColor=#b85450;" edge="1" parent="1" target="6zx5J-GpkoQrdZdaRuo2-77">
          <mxGeometry relative="1" as="geometry">
            <mxPoint x="920" y="5902" as="sourcePoint" />
            <mxPoint x="340" y="5902" as="targetPoint" />
          </mxGeometry>
        </mxCell>
        <mxCell id="6zx5J-GpkoQrdZdaRuo2-94" value="NotValidPass()" style="text;html=1;align=center;verticalAlign=middle;resizable=0;points=[];autosize=1;" vertex="1" parent="1">
          <mxGeometry x="625" y="5877" width="100" height="30" as="geometry" />
        </mxCell>
        <mxCell id="6zx5J-GpkoQrdZdaRuo2-95" value="Alt" style="shape=umlFrame;whiteSpace=wrap;html=1;pointerEvents=0;fillColor=#f8cecc;strokeColor=#b85450;" vertex="1" parent="1">
          <mxGeometry x="45" y="5860" width="915" height="202" as="geometry" />
        </mxCell>
        <mxCell id="6zx5J-GpkoQrdZdaRuo2-96" value="Error popup message screen" style="shape=umlLifeline;perimeter=lifelinePerimeter;whiteSpace=wrap;html=1;container=1;dropTarget=0;collapsible=0;recursiveResize=0;outlineConnect=0;portConstraint=eastwest;newEdgeStyle={&quot;curved&quot;:0,&quot;rounded&quot;:0};fillColor=#f8cecc;strokeColor=#b85450;" vertex="1" parent="1">
          <mxGeometry x="630" y="5926" width="70" height="70" as="geometry" />
        </mxCell>
        <mxCell id="6zx5J-GpkoQrdZdaRuo2-97" value="" style="html=1;points=[[0,0,0,0,5],[0,1,0,0,-5],[1,0,0,0,5],[1,1,0,0,-5]];perimeter=orthogonalPerimeter;outlineConnect=0;targetShapes=umlLifeline;portConstraint=eastwest;newEdgeStyle={&quot;curved&quot;:0,&quot;rounded&quot;:0};fillColor=#f8cecc;strokeColor=#b85450;" vertex="1" parent="6zx5J-GpkoQrdZdaRuo2-96">
          <mxGeometry x="30" y="50" width="10" height="20" as="geometry" />
        </mxCell>
        <mxCell id="6zx5J-GpkoQrdZdaRuo2-98" value="&quot;create&quot;" style="endArrow=open;endSize=12;dashed=1;html=1;rounded=0;fillColor=#f8cecc;strokeColor=#b85450;entryX=0;entryY=0.229;entryDx=0;entryDy=0;entryPerimeter=0;" edge="1" parent="1" source="6zx5J-GpkoQrdZdaRuo2-77" target="6zx5J-GpkoQrdZdaRuo2-96">
          <mxGeometry width="160" relative="1" as="geometry">
            <mxPoint x="422.5" y="5942" as="sourcePoint" />
            <mxPoint x="582.5" y="5942" as="targetPoint" />
          </mxGeometry>
        </mxCell>
        <mxCell id="6zx5J-GpkoQrdZdaRuo2-99" style="rounded=0;orthogonalLoop=1;jettySize=auto;html=1;fillColor=#f8cecc;strokeColor=#b85450;" edge="1" parent="1" source="6zx5J-GpkoQrdZdaRuo2-77" target="6zx5J-GpkoQrdZdaRuo2-97">
          <mxGeometry relative="1" as="geometry">
            <mxPoint x="225" y="6347" as="sourcePoint" />
          </mxGeometry>
        </mxCell>
        <mxCell id="6zx5J-GpkoQrdZdaRuo2-100" value="show()" style="text;html=1;align=center;verticalAlign=middle;resizable=0;points=[];autosize=1;strokeColor=none;fillColor=none;" vertex="1" parent="1">
          <mxGeometry x="502.5" y="5966" width="60" height="30" as="geometry" />
        </mxCell>
        <mxCell id="6zx5J-GpkoQrdZdaRuo2-101" style="rounded=0;orthogonalLoop=1;jettySize=auto;html=1;entryX=0;entryY=0;entryDx=0;entryDy=5;entryPerimeter=0;" edge="1" parent="1" source="6zx5J-GpkoQrdZdaRuo2-77" target="6zx5J-GpkoQrdZdaRuo2-79">
          <mxGeometry relative="1" as="geometry" />
        </mxCell>
        <mxCell id="6zx5J-GpkoQrdZdaRuo2-102" value="show()" style="text;html=1;align=center;verticalAlign=middle;resizable=0;points=[];autosize=1;strokeColor=none;fillColor=none;" vertex="1" parent="1">
          <mxGeometry x="480" y="6080" width="60" height="30" as="geometry" />
        </mxCell>
        <mxCell id="6zx5J-GpkoQrdZdaRuo2-103" style="rounded=0;orthogonalLoop=1;jettySize=auto;html=1;" edge="1" parent="1" target="6zx5J-GpkoQrdZdaRuo2-106">
          <mxGeometry relative="1" as="geometry">
            <mxPoint x="102.5" y="6652" as="sourcePoint" />
            <mxPoint x="198" y="6652" as="targetPoint" />
          </mxGeometry>
        </mxCell>
        <mxCell id="6zx5J-GpkoQrdZdaRuo2-104" value="" style="shape=umlLifeline;perimeter=lifelinePerimeter;whiteSpace=wrap;html=1;container=1;dropTarget=0;collapsible=0;recursiveResize=0;outlineConnect=0;portConstraint=eastwest;newEdgeStyle={&quot;curved&quot;:0,&quot;rounded&quot;:0};participant=umlActor;" vertex="1" parent="1">
          <mxGeometry x="92.5" y="6562" width="20" height="1030" as="geometry" />
        </mxCell>
        <mxCell id="6zx5J-GpkoQrdZdaRuo2-105" value="Login Screen" style="shape=umlLifeline;perimeter=lifelinePerimeter;whiteSpace=wrap;html=1;container=1;dropTarget=0;collapsible=0;recursiveResize=0;outlineConnect=0;portConstraint=eastwest;newEdgeStyle={&quot;curved&quot;:0,&quot;rounded&quot;:0};" vertex="1" parent="1">
          <mxGeometry x="202.5" y="6562" width="100" height="1010" as="geometry" />
        </mxCell>
        <mxCell id="6zx5J-GpkoQrdZdaRuo2-106" value="" style="html=1;points=[[0,0,0,0,5],[0,1,0,0,-5],[1,0,0,0,5],[1,1,0,0,-5]];perimeter=orthogonalPerimeter;outlineConnect=0;targetShapes=umlLifeline;portConstraint=eastwest;newEdgeStyle={&quot;curved&quot;:0,&quot;rounded&quot;:0};" vertex="1" parent="6zx5J-GpkoQrdZdaRuo2-105">
          <mxGeometry x="45" y="60" width="10" height="50" as="geometry" />
        </mxCell>
        <mxCell id="6zx5J-GpkoQrdZdaRuo2-107" value="System:class" style="shape=umlLifeline;perimeter=lifelinePerimeter;whiteSpace=wrap;html=1;container=1;dropTarget=0;collapsible=0;recursiveResize=0;outlineConnect=0;portConstraint=eastwest;newEdgeStyle={&quot;curved&quot;:0,&quot;rounded&quot;:0};" vertex="1" parent="1">
          <mxGeometry x="382.5" y="6562" width="100" height="1010" as="geometry" />
        </mxCell>
        <mxCell id="6zx5J-GpkoQrdZdaRuo2-108" value="" style="html=1;points=[[0,0,0,0,5],[0,1,0,0,-5],[1,0,0,0,5],[1,1,0,0,-5]];perimeter=orthogonalPerimeter;outlineConnect=0;targetShapes=umlLifeline;portConstraint=eastwest;newEdgeStyle={&quot;curved&quot;:0,&quot;rounded&quot;:0};" vertex="1" parent="6zx5J-GpkoQrdZdaRuo2-107">
          <mxGeometry x="45" y="50" width="10" height="890" as="geometry" />
        </mxCell>
        <mxCell id="6zx5J-GpkoQrdZdaRuo2-109" value="Business Main Menu" style="shape=umlLifeline;perimeter=lifelinePerimeter;whiteSpace=wrap;html=1;container=1;dropTarget=0;collapsible=0;recursiveResize=0;outlineConnect=0;portConstraint=eastwest;newEdgeStyle={&quot;curved&quot;:0,&quot;rounded&quot;:0};" vertex="1" parent="1">
          <mxGeometry x="547.5" y="6562" width="100" height="1010" as="geometry" />
        </mxCell>
        <mxCell id="6zx5J-GpkoQrdZdaRuo2-110" value="" style="html=1;points=[[0,0,0,0,5],[0,1,0,0,-5],[1,0,0,0,5],[1,1,0,0,-5]];perimeter=orthogonalPerimeter;outlineConnect=0;targetShapes=umlLifeline;portConstraint=eastwest;newEdgeStyle={&quot;curved&quot;:0,&quot;rounded&quot;:0};" vertex="1" parent="6zx5J-GpkoQrdZdaRuo2-109">
          <mxGeometry x="45" y="360" width="10" height="60" as="geometry" />
        </mxCell>
        <mxCell id="6zx5J-GpkoQrdZdaRuo2-111" value="Inventory" style="shape=umlLifeline;perimeter=lifelinePerimeter;whiteSpace=wrap;html=1;container=1;dropTarget=0;collapsible=0;recursiveResize=0;outlineConnect=0;portConstraint=eastwest;newEdgeStyle={&quot;curved&quot;:0,&quot;rounded&quot;:0};" vertex="1" parent="1">
          <mxGeometry x="692.5" y="6562" width="100" height="1020" as="geometry" />
        </mxCell>
        <mxCell id="6zx5J-GpkoQrdZdaRuo2-426" value="" style="html=1;points=[[0,0,0,0,5],[0,1,0,0,-5],[1,0,0,0,5],[1,1,0,0,-5]];perimeter=orthogonalPerimeter;outlineConnect=0;targetShapes=umlLifeline;portConstraint=eastwest;newEdgeStyle={&quot;curved&quot;:0,&quot;rounded&quot;:0};" vertex="1" parent="6zx5J-GpkoQrdZdaRuo2-111">
          <mxGeometry x="45" y="460" width="10" height="60" as="geometry" />
        </mxCell>
        <mxCell id="6zx5J-GpkoQrdZdaRuo2-112" value="Database" style="shape=umlLifeline;perimeter=lifelinePerimeter;whiteSpace=wrap;html=1;container=1;dropTarget=0;collapsible=0;recursiveResize=0;outlineConnect=0;portConstraint=eastwest;newEdgeStyle={&quot;curved&quot;:0,&quot;rounded&quot;:0};" vertex="1" parent="1">
          <mxGeometry x="922.5" y="6562" width="100" height="1010" as="geometry" />
        </mxCell>
        <mxCell id="6zx5J-GpkoQrdZdaRuo2-113" value="" style="html=1;points=[[0,0,0,0,5],[0,1,0,0,-5],[1,0,0,0,5],[1,1,0,0,-5]];perimeter=orthogonalPerimeter;outlineConnect=0;targetShapes=umlLifeline;portConstraint=eastwest;newEdgeStyle={&quot;curved&quot;:0,&quot;rounded&quot;:0};" vertex="1" parent="6zx5J-GpkoQrdZdaRuo2-112">
          <mxGeometry x="45" y="110" width="10" height="240" as="geometry" />
        </mxCell>
        <mxCell id="6zx5J-GpkoQrdZdaRuo2-440" value="" style="html=1;points=[[0,0,0,0,5],[0,1,0,0,-5],[1,0,0,0,5],[1,1,0,0,-5]];perimeter=orthogonalPerimeter;outlineConnect=0;targetShapes=umlLifeline;portConstraint=eastwest;newEdgeStyle={&quot;curved&quot;:0,&quot;rounded&quot;:0};" vertex="1" parent="6zx5J-GpkoQrdZdaRuo2-112">
          <mxGeometry x="45" y="560" width="10" height="60" as="geometry" />
        </mxCell>
        <mxCell id="6zx5J-GpkoQrdZdaRuo2-460" value="" style="html=1;points=[[0,0,0,0,5],[0,1,0,0,-5],[1,0,0,0,5],[1,1,0,0,-5]];perimeter=orthogonalPerimeter;outlineConnect=0;targetShapes=umlLifeline;portConstraint=eastwest;newEdgeStyle={&quot;curved&quot;:0,&quot;rounded&quot;:0};fillColor=#f8cecc;strokeColor=#b85450;" vertex="1" parent="6zx5J-GpkoQrdZdaRuo2-112">
          <mxGeometry x="45" y="910" width="10" height="60" as="geometry" />
        </mxCell>
        <mxCell id="6zx5J-GpkoQrdZdaRuo2-461" style="rounded=0;orthogonalLoop=1;jettySize=auto;html=1;entryX=0;entryY=0;entryDx=0;entryDy=5;entryPerimeter=0;fillColor=#f8cecc;strokeColor=#b85450;" edge="1" parent="6zx5J-GpkoQrdZdaRuo2-112" target="6zx5J-GpkoQrdZdaRuo2-460">
          <mxGeometry relative="1" as="geometry">
            <mxPoint x="-485" y="915" as="sourcePoint" />
            <mxPoint x="-327.5" y="900" as="targetPoint" />
          </mxGeometry>
        </mxCell>
        <mxCell id="6zx5J-GpkoQrdZdaRuo2-462" value="Createsreport()" style="text;html=1;align=center;verticalAlign=middle;resizable=0;points=[];autosize=1;strokeColor=none;fillColor=none;" vertex="1" parent="6zx5J-GpkoQrdZdaRuo2-112">
          <mxGeometry x="-297.5" y="890" width="100" height="30" as="geometry" />
        </mxCell>
        <mxCell id="6zx5J-GpkoQrdZdaRuo2-114" value="Types Credentials" style="html=1;verticalAlign=bottom;endArrow=block;curved=0;rounded=0;entryX=0;entryY=0;entryDx=0;entryDy=5;entryPerimeter=0;" edge="1" parent="1" source="6zx5J-GpkoQrdZdaRuo2-104" target="6zx5J-GpkoQrdZdaRuo2-106">
          <mxGeometry width="80" relative="1" as="geometry">
            <mxPoint x="452.5" y="6972" as="sourcePoint" />
            <mxPoint x="532.5" y="6972" as="targetPoint" />
          </mxGeometry>
        </mxCell>
        <mxCell id="6zx5J-GpkoQrdZdaRuo2-115" value="Login()" style="text;html=1;align=center;verticalAlign=middle;resizable=0;points=[];autosize=1;strokeColor=none;fillColor=none;" vertex="1" parent="1">
          <mxGeometry x="102.5" y="6630" width="60" height="30" as="geometry" />
        </mxCell>
        <mxCell id="6zx5J-GpkoQrdZdaRuo2-116" style="rounded=0;orthogonalLoop=1;jettySize=auto;html=1;entryX=1;entryY=0;entryDx=0;entryDy=5;entryPerimeter=0;" edge="1" parent="1">
          <mxGeometry relative="1" as="geometry">
            <mxPoint x="422.5" y="6630" as="sourcePoint" />
            <mxPoint x="252.5" y="6630" as="targetPoint" />
          </mxGeometry>
        </mxCell>
        <mxCell id="6zx5J-GpkoQrdZdaRuo2-117" value="DisplayLogscr()" style="text;html=1;align=center;verticalAlign=middle;resizable=0;points=[];autosize=1;strokeColor=none;fillColor=none;" vertex="1" parent="1">
          <mxGeometry x="282.5" y="6600" width="110" height="30" as="geometry" />
        </mxCell>
        <mxCell id="6zx5J-GpkoQrdZdaRuo2-118" style="rounded=0;orthogonalLoop=1;jettySize=auto;html=1;exitX=1;exitY=1;exitDx=0;exitDy=-5;exitPerimeter=0;" edge="1" parent="1" source="6zx5J-GpkoQrdZdaRuo2-106" target="6zx5J-GpkoQrdZdaRuo2-107">
          <mxGeometry relative="1" as="geometry" />
        </mxCell>
        <mxCell id="6zx5J-GpkoQrdZdaRuo2-119" value="Logindetails()" style="text;html=1;align=center;verticalAlign=middle;resizable=0;points=[];autosize=1;strokeColor=none;fillColor=none;" vertex="1" parent="1">
          <mxGeometry x="282.5" y="6642" width="100" height="30" as="geometry" />
        </mxCell>
        <mxCell id="6zx5J-GpkoQrdZdaRuo2-120" style="rounded=0;orthogonalLoop=1;jettySize=auto;html=1;entryX=0;entryY=0;entryDx=0;entryDy=5;entryPerimeter=0;" edge="1" parent="1" source="6zx5J-GpkoQrdZdaRuo2-108" target="6zx5J-GpkoQrdZdaRuo2-113">
          <mxGeometry relative="1" as="geometry" />
        </mxCell>
        <mxCell id="6zx5J-GpkoQrdZdaRuo2-121" value="CheckCredentials()" style="text;html=1;align=center;verticalAlign=middle;resizable=0;points=[];autosize=1;strokeColor=none;fillColor=none;" vertex="1" parent="1">
          <mxGeometry x="592.5" y="6650" width="130" height="30" as="geometry" />
        </mxCell>
        <mxCell id="6zx5J-GpkoQrdZdaRuo2-122" style="rounded=0;orthogonalLoop=1;jettySize=auto;html=1;dashed=1;endArrow=open;endFill=0;" edge="1" parent="1" source="6zx5J-GpkoQrdZdaRuo2-113">
          <mxGeometry relative="1" as="geometry">
            <mxPoint x="955.5" y="6892" as="sourcePoint" />
            <mxPoint x="439.75" y="6892" as="targetPoint" />
          </mxGeometry>
        </mxCell>
        <mxCell id="6zx5J-GpkoQrdZdaRuo2-123" value="return results" style="text;html=1;align=center;verticalAlign=middle;resizable=0;points=[];autosize=1;strokeColor=none;fillColor=none;" vertex="1" parent="1">
          <mxGeometry x="622.5" y="6882" width="90" height="30" as="geometry" />
        </mxCell>
        <mxCell id="6zx5J-GpkoQrdZdaRuo2-124" style="rounded=0;orthogonalLoop=1;jettySize=auto;html=1;dashed=1;fillColor=#f8cecc;strokeColor=#b85450;" edge="1" parent="1" target="6zx5J-GpkoQrdZdaRuo2-108">
          <mxGeometry relative="1" as="geometry">
            <mxPoint x="942.5" y="6722" as="sourcePoint" />
            <mxPoint x="362.5" y="6722" as="targetPoint" />
          </mxGeometry>
        </mxCell>
        <mxCell id="6zx5J-GpkoQrdZdaRuo2-125" value="NotValidPass()" style="text;html=1;align=center;verticalAlign=middle;resizable=0;points=[];autosize=1;" vertex="1" parent="1">
          <mxGeometry x="647.5" y="6697" width="100" height="30" as="geometry" />
        </mxCell>
        <mxCell id="6zx5J-GpkoQrdZdaRuo2-126" value="Alt" style="shape=umlFrame;whiteSpace=wrap;html=1;pointerEvents=0;fillColor=#f8cecc;strokeColor=#b85450;" vertex="1" parent="1">
          <mxGeometry x="67.5" y="6680" width="915" height="202" as="geometry" />
        </mxCell>
        <mxCell id="6zx5J-GpkoQrdZdaRuo2-127" value="Error popup message screen" style="shape=umlLifeline;perimeter=lifelinePerimeter;whiteSpace=wrap;html=1;container=1;dropTarget=0;collapsible=0;recursiveResize=0;outlineConnect=0;portConstraint=eastwest;newEdgeStyle={&quot;curved&quot;:0,&quot;rounded&quot;:0};fillColor=#f8cecc;strokeColor=#b85450;" vertex="1" parent="1">
          <mxGeometry x="652.5" y="6746" width="70" height="70" as="geometry" />
        </mxCell>
        <mxCell id="6zx5J-GpkoQrdZdaRuo2-128" value="" style="html=1;points=[[0,0,0,0,5],[0,1,0,0,-5],[1,0,0,0,5],[1,1,0,0,-5]];perimeter=orthogonalPerimeter;outlineConnect=0;targetShapes=umlLifeline;portConstraint=eastwest;newEdgeStyle={&quot;curved&quot;:0,&quot;rounded&quot;:0};fillColor=#f8cecc;strokeColor=#b85450;" vertex="1" parent="6zx5J-GpkoQrdZdaRuo2-127">
          <mxGeometry x="30" y="50" width="10" height="20" as="geometry" />
        </mxCell>
        <mxCell id="6zx5J-GpkoQrdZdaRuo2-129" value="&quot;create&quot;" style="endArrow=open;endSize=12;dashed=1;html=1;rounded=0;fillColor=#f8cecc;strokeColor=#b85450;entryX=0;entryY=0.229;entryDx=0;entryDy=0;entryPerimeter=0;" edge="1" parent="1" source="6zx5J-GpkoQrdZdaRuo2-108" target="6zx5J-GpkoQrdZdaRuo2-127">
          <mxGeometry width="160" relative="1" as="geometry">
            <mxPoint x="445" y="6762" as="sourcePoint" />
            <mxPoint x="605" y="6762" as="targetPoint" />
          </mxGeometry>
        </mxCell>
        <mxCell id="6zx5J-GpkoQrdZdaRuo2-130" style="rounded=0;orthogonalLoop=1;jettySize=auto;html=1;fillColor=#f8cecc;strokeColor=#b85450;" edge="1" parent="1" source="6zx5J-GpkoQrdZdaRuo2-108" target="6zx5J-GpkoQrdZdaRuo2-128">
          <mxGeometry relative="1" as="geometry">
            <mxPoint x="247.5" y="7167" as="sourcePoint" />
          </mxGeometry>
        </mxCell>
        <mxCell id="6zx5J-GpkoQrdZdaRuo2-131" value="show()" style="text;html=1;align=center;verticalAlign=middle;resizable=0;points=[];autosize=1;strokeColor=none;fillColor=none;" vertex="1" parent="1">
          <mxGeometry x="522.5" y="6786" width="60" height="30" as="geometry" />
        </mxCell>
        <mxCell id="6zx5J-GpkoQrdZdaRuo2-132" style="rounded=0;orthogonalLoop=1;jettySize=auto;html=1;entryX=0;entryY=0;entryDx=0;entryDy=5;entryPerimeter=0;" edge="1" parent="1" source="6zx5J-GpkoQrdZdaRuo2-108" target="6zx5J-GpkoQrdZdaRuo2-110">
          <mxGeometry relative="1" as="geometry" />
        </mxCell>
        <mxCell id="6zx5J-GpkoQrdZdaRuo2-133" value="show()" style="text;html=1;align=center;verticalAlign=middle;resizable=0;points=[];autosize=1;strokeColor=none;fillColor=none;" vertex="1" parent="1">
          <mxGeometry x="502.5" y="6900" width="60" height="30" as="geometry" />
        </mxCell>
        <mxCell id="6zx5J-GpkoQrdZdaRuo2-135" value="Addpostclicicked()" style="text;html=1;align=center;verticalAlign=middle;resizable=0;points=[];autosize=1;strokeColor=none;fillColor=none;" vertex="1" parent="1">
          <mxGeometry x="215" y="380" width="120" height="30" as="geometry" />
        </mxCell>
        <mxCell id="6zx5J-GpkoQrdZdaRuo2-137" value="" style="rounded=0;orthogonalLoop=1;jettySize=auto;html=1;" edge="1" parent="1">
          <mxGeometry relative="1" as="geometry">
            <mxPoint x="385" y="447" as="sourcePoint" />
            <mxPoint x="725" y="447" as="targetPoint" />
          </mxGeometry>
        </mxCell>
        <mxCell id="6zx5J-GpkoQrdZdaRuo2-138" value="show()" style="text;html=1;align=center;verticalAlign=middle;resizable=0;points=[];autosize=1;strokeColor=none;fillColor=none;" vertex="1" parent="1">
          <mxGeometry x="565" y="430" width="60" height="30" as="geometry" />
        </mxCell>
        <mxCell id="6zx5J-GpkoQrdZdaRuo2-139" style="rounded=0;orthogonalLoop=1;jettySize=auto;html=1;" edge="1" parent="1">
          <mxGeometry relative="1" as="geometry">
            <mxPoint x="44.5" y="408" as="sourcePoint" />
            <mxPoint x="535" y="408" as="targetPoint" />
          </mxGeometry>
        </mxCell>
        <mxCell id="6zx5J-GpkoQrdZdaRuo2-143" style="rounded=0;orthogonalLoop=1;jettySize=auto;html=1;exitX=0;exitY=1;exitDx=0;exitDy=-5;exitPerimeter=0;endArrow=open;endFill=0;dashed=1;" edge="1" parent="1" source="6zx5J-GpkoQrdZdaRuo2-38" target="6zx5J-GpkoQrdZdaRuo2-14">
          <mxGeometry relative="1" as="geometry" />
        </mxCell>
        <mxCell id="6zx5J-GpkoQrdZdaRuo2-144" value="return selection" style="text;html=1;align=center;verticalAlign=middle;resizable=0;points=[];autosize=1;strokeColor=none;fillColor=none;" vertex="1" parent="1">
          <mxGeometry x="395" y="407" width="110" height="30" as="geometry" />
        </mxCell>
        <mxCell id="6zx5J-GpkoQrdZdaRuo2-136" value="" style="html=1;points=[[0,0,0,0,5],[0,1,0,0,-5],[1,0,0,0,5],[1,1,0,0,-5]];perimeter=orthogonalPerimeter;outlineConnect=0;targetShapes=umlLifeline;portConstraint=eastwest;newEdgeStyle={&quot;curved&quot;:0,&quot;rounded&quot;:0};" vertex="1" parent="1">
          <mxGeometry x="725" y="448" width="10" height="72" as="geometry" />
        </mxCell>
        <mxCell id="6zx5J-GpkoQrdZdaRuo2-145" style="rounded=0;orthogonalLoop=1;jettySize=auto;html=1;" edge="1" parent="1">
          <mxGeometry relative="1" as="geometry">
            <mxPoint x="49.5" y="472.5" as="sourcePoint" />
            <mxPoint x="725" y="472.5" as="targetPoint" />
          </mxGeometry>
        </mxCell>
        <mxCell id="6zx5J-GpkoQrdZdaRuo2-146" value="Fills &quot;Lost Item&quot; form" style="text;html=1;align=center;verticalAlign=middle;resizable=0;points=[];autosize=1;strokeColor=none;fillColor=none;" vertex="1" parent="1">
          <mxGeometry x="185" y="448" width="130" height="30" as="geometry" />
        </mxCell>
        <mxCell id="6zx5J-GpkoQrdZdaRuo2-150" style="rounded=0;orthogonalLoop=1;jettySize=auto;html=1;exitX=0.468;exitY=0.896;exitDx=0;exitDy=0;exitPerimeter=0;endArrow=blockThin;endFill=1;" edge="1" parent="1">
          <mxGeometry relative="1" as="geometry">
            <mxPoint x="725" y="499.9999999999999" as="sourcePoint" />
            <mxPoint x="383.2" y="499.9999999999999" as="targetPoint" />
          </mxGeometry>
        </mxCell>
        <mxCell id="6zx5J-GpkoQrdZdaRuo2-151" value="FormCheck()" style="text;html=1;align=center;verticalAlign=middle;resizable=0;points=[];autosize=1;strokeColor=none;fillColor=none;" vertex="1" parent="1">
          <mxGeometry x="535" y="478" width="90" height="30" as="geometry" />
        </mxCell>
        <mxCell id="6zx5J-GpkoQrdZdaRuo2-155" style="rounded=0;orthogonalLoop=1;jettySize=auto;html=1;exitX=1;exitY=1;exitDx=0;exitDy=-5;exitPerimeter=0;" edge="1" parent="1">
          <mxGeometry relative="1" as="geometry">
            <mxPoint x="387.75" y="534.5" as="sourcePoint" />
            <mxPoint x="902.25" y="534.5" as="targetPoint" />
          </mxGeometry>
        </mxCell>
        <mxCell id="6zx5J-GpkoQrdZdaRuo2-158" value="SubmitPost()" style="text;html=1;align=center;verticalAlign=middle;resizable=0;points=[];autosize=1;strokeColor=none;fillColor=none;" vertex="1" parent="1">
          <mxGeometry x="590" y="520" width="90" height="30" as="geometry" />
        </mxCell>
        <mxCell id="6zx5J-GpkoQrdZdaRuo2-161" style="rounded=0;orthogonalLoop=1;jettySize=auto;html=1;dashed=1;endArrow=open;endFill=0;exitX=0;exitY=1;exitDx=0;exitDy=-5;exitPerimeter=0;" edge="1" parent="1" source="6zx5J-GpkoQrdZdaRuo2-156" target="6zx5J-GpkoQrdZdaRuo2-14">
          <mxGeometry relative="1" as="geometry">
            <mxPoint x="888.88" y="570" as="sourcePoint" />
            <mxPoint x="450" y="560" as="targetPoint" />
          </mxGeometry>
        </mxCell>
        <mxCell id="6zx5J-GpkoQrdZdaRuo2-165" value="return submit success" style="text;html=1;align=center;verticalAlign=middle;resizable=0;points=[];autosize=1;strokeColor=none;fillColor=none;" vertex="1" parent="1">
          <mxGeometry x="565" y="560" width="140" height="30" as="geometry" />
        </mxCell>
        <mxCell id="6zx5J-GpkoQrdZdaRuo2-166" value="Alt" style="shape=umlFrame;whiteSpace=wrap;html=1;pointerEvents=0;fillColor=#f8cecc;strokeColor=#b85450;" vertex="1" parent="1">
          <mxGeometry x="17.5" y="620" width="915" height="202" as="geometry" />
        </mxCell>
        <mxCell id="6zx5J-GpkoQrdZdaRuo2-168" value="&quot;create&quot;" style="endArrow=open;endSize=12;dashed=1;html=1;rounded=0;fillColor=#f8cecc;strokeColor=#b85450;entryX=0;entryY=0.229;entryDx=0;entryDy=0;entryPerimeter=0;" edge="1" parent="1" source="6zx5J-GpkoQrdZdaRuo2-14">
          <mxGeometry width="160" relative="1" as="geometry">
            <mxPoint x="407.5" y="670" as="sourcePoint" />
            <mxPoint x="622.5" y="670" as="targetPoint" />
          </mxGeometry>
        </mxCell>
        <mxCell id="6zx5J-GpkoQrdZdaRuo2-169" value="Error popup message screen" style="shape=umlLifeline;perimeter=lifelinePerimeter;whiteSpace=wrap;html=1;container=1;dropTarget=0;collapsible=0;recursiveResize=0;outlineConnect=0;portConstraint=eastwest;newEdgeStyle={&quot;curved&quot;:0,&quot;rounded&quot;:0};fillColor=#f8cecc;strokeColor=#b85450;" vertex="1" parent="1">
          <mxGeometry x="620" y="656" width="70" height="70" as="geometry" />
        </mxCell>
        <mxCell id="6zx5J-GpkoQrdZdaRuo2-170" value="" style="html=1;points=[[0,0,0,0,5],[0,1,0,0,-5],[1,0,0,0,5],[1,1,0,0,-5]];perimeter=orthogonalPerimeter;outlineConnect=0;targetShapes=umlLifeline;portConstraint=eastwest;newEdgeStyle={&quot;curved&quot;:0,&quot;rounded&quot;:0};fillColor=#f8cecc;strokeColor=#b85450;" vertex="1" parent="6zx5J-GpkoQrdZdaRuo2-169">
          <mxGeometry x="30" y="50" width="10" height="20" as="geometry" />
        </mxCell>
        <mxCell id="6zx5J-GpkoQrdZdaRuo2-171" style="rounded=0;orthogonalLoop=1;jettySize=auto;html=1;fillColor=#f8cecc;strokeColor=#b85450;" edge="1" parent="1" target="6zx5J-GpkoQrdZdaRuo2-169">
          <mxGeometry relative="1" as="geometry">
            <mxPoint x="385" y="710" as="sourcePoint" />
            <mxPoint x="630" y="714" as="targetPoint" />
            <Array as="points">
              <mxPoint x="510" y="710" />
            </Array>
          </mxGeometry>
        </mxCell>
        <mxCell id="6zx5J-GpkoQrdZdaRuo2-172" value="show()" style="text;html=1;align=center;verticalAlign=middle;resizable=0;points=[];autosize=1;strokeColor=none;fillColor=none;" vertex="1" parent="1">
          <mxGeometry x="477.5" y="680" width="60" height="30" as="geometry" />
        </mxCell>
        <mxCell id="6zx5J-GpkoQrdZdaRuo2-173" value="" style="rounded=0;orthogonalLoop=1;jettySize=auto;html=1;" edge="1" parent="1" source="6zx5J-GpkoQrdZdaRuo2-167">
          <mxGeometry relative="1" as="geometry">
            <mxPoint x="390" y="760" as="sourcePoint" />
            <mxPoint x="730" y="760" as="targetPoint" />
          </mxGeometry>
        </mxCell>
        <mxCell id="6zx5J-GpkoQrdZdaRuo2-174" value="show()" style="text;html=1;align=center;verticalAlign=middle;resizable=0;points=[];autosize=1;strokeColor=none;fillColor=none;" vertex="1" parent="1">
          <mxGeometry x="477.5" y="720" width="60" height="30" as="geometry" />
        </mxCell>
        <mxCell id="6zx5J-GpkoQrdZdaRuo2-175" value="" style="rounded=0;orthogonalLoop=1;jettySize=auto;html=1;fillColor=#f8cecc;strokeColor=#b85450;" edge="1" parent="1" source="6zx5J-GpkoQrdZdaRuo2-14" target="6zx5J-GpkoQrdZdaRuo2-167">
          <mxGeometry relative="1" as="geometry">
            <mxPoint x="390" y="760" as="sourcePoint" />
            <mxPoint x="730" y="760" as="targetPoint" />
            <Array as="points">
              <mxPoint x="560" y="740" />
            </Array>
          </mxGeometry>
        </mxCell>
        <mxCell id="6zx5J-GpkoQrdZdaRuo2-167" value="" style="html=1;points=[[0,0,0,0,5],[0,1,0,0,-5],[1,0,0,0,5],[1,1,0,0,-5]];perimeter=orthogonalPerimeter;outlineConnect=0;targetShapes=umlLifeline;portConstraint=eastwest;newEdgeStyle={&quot;curved&quot;:0,&quot;rounded&quot;:0};fillColor=#f8cecc;strokeColor=#b85450;" vertex="1" parent="1">
          <mxGeometry x="725" y="720" width="10" height="72" as="geometry" />
        </mxCell>
        <mxCell id="6zx5J-GpkoQrdZdaRuo2-184" style="rounded=0;orthogonalLoop=1;jettySize=auto;html=1;" edge="1" parent="1" target="6zx5J-GpkoQrdZdaRuo2-187">
          <mxGeometry relative="1" as="geometry">
            <mxPoint x="75" y="1100" as="sourcePoint" />
            <mxPoint x="170.5" y="1100" as="targetPoint" />
          </mxGeometry>
        </mxCell>
        <mxCell id="6zx5J-GpkoQrdZdaRuo2-185" value="" style="shape=umlLifeline;perimeter=lifelinePerimeter;whiteSpace=wrap;html=1;container=1;dropTarget=0;collapsible=0;recursiveResize=0;outlineConnect=0;portConstraint=eastwest;newEdgeStyle={&quot;curved&quot;:0,&quot;rounded&quot;:0};participant=umlActor;" vertex="1" parent="1">
          <mxGeometry x="65" y="1010" width="20" height="830" as="geometry" />
        </mxCell>
        <mxCell id="6zx5J-GpkoQrdZdaRuo2-186" value="Login Screen" style="shape=umlLifeline;perimeter=lifelinePerimeter;whiteSpace=wrap;html=1;container=1;dropTarget=0;collapsible=0;recursiveResize=0;outlineConnect=0;portConstraint=eastwest;newEdgeStyle={&quot;curved&quot;:0,&quot;rounded&quot;:0};" vertex="1" parent="1">
          <mxGeometry x="175" y="1010" width="100" height="840" as="geometry" />
        </mxCell>
        <mxCell id="6zx5J-GpkoQrdZdaRuo2-187" value="" style="html=1;points=[[0,0,0,0,5],[0,1,0,0,-5],[1,0,0,0,5],[1,1,0,0,-5]];perimeter=orthogonalPerimeter;outlineConnect=0;targetShapes=umlLifeline;portConstraint=eastwest;newEdgeStyle={&quot;curved&quot;:0,&quot;rounded&quot;:0};" vertex="1" parent="6zx5J-GpkoQrdZdaRuo2-186">
          <mxGeometry x="45" y="60" width="10" height="50" as="geometry" />
        </mxCell>
        <mxCell id="6zx5J-GpkoQrdZdaRuo2-188" value="System:class" style="shape=umlLifeline;perimeter=lifelinePerimeter;whiteSpace=wrap;html=1;container=1;dropTarget=0;collapsible=0;recursiveResize=0;outlineConnect=0;portConstraint=eastwest;newEdgeStyle={&quot;curved&quot;:0,&quot;rounded&quot;:0};" vertex="1" parent="1">
          <mxGeometry x="355" y="1010" width="100" height="840" as="geometry" />
        </mxCell>
        <mxCell id="6zx5J-GpkoQrdZdaRuo2-189" value="" style="html=1;points=[[0,0,0,0,5],[0,1,0,0,-5],[1,0,0,0,5],[1,1,0,0,-5]];perimeter=orthogonalPerimeter;outlineConnect=0;targetShapes=umlLifeline;portConstraint=eastwest;newEdgeStyle={&quot;curved&quot;:0,&quot;rounded&quot;:0};" vertex="1" parent="6zx5J-GpkoQrdZdaRuo2-188">
          <mxGeometry x="45" y="50" width="10" height="750" as="geometry" />
        </mxCell>
        <mxCell id="6zx5J-GpkoQrdZdaRuo2-190" value="Main Menu" style="shape=umlLifeline;perimeter=lifelinePerimeter;whiteSpace=wrap;html=1;container=1;dropTarget=0;collapsible=0;recursiveResize=0;outlineConnect=0;portConstraint=eastwest;newEdgeStyle={&quot;curved&quot;:0,&quot;rounded&quot;:0};" vertex="1" parent="1">
          <mxGeometry x="520" y="1010" width="100" height="840" as="geometry" />
        </mxCell>
        <mxCell id="6zx5J-GpkoQrdZdaRuo2-191" value="" style="html=1;points=[[0,0,0,0,5],[0,1,0,0,-5],[1,0,0,0,5],[1,1,0,0,-5]];perimeter=orthogonalPerimeter;outlineConnect=0;targetShapes=umlLifeline;portConstraint=eastwest;newEdgeStyle={&quot;curved&quot;:0,&quot;rounded&quot;:0};" vertex="1" parent="6zx5J-GpkoQrdZdaRuo2-190">
          <mxGeometry x="45" y="360" width="10" height="50" as="geometry" />
        </mxCell>
        <mxCell id="6zx5J-GpkoQrdZdaRuo2-192" value="Create Post Screen" style="shape=umlLifeline;perimeter=lifelinePerimeter;whiteSpace=wrap;html=1;container=1;dropTarget=0;collapsible=0;recursiveResize=0;outlineConnect=0;portConstraint=eastwest;newEdgeStyle={&quot;curved&quot;:0,&quot;rounded&quot;:0};" vertex="1" parent="1">
          <mxGeometry x="705" y="1010" width="100" height="840" as="geometry" />
        </mxCell>
        <mxCell id="6zx5J-GpkoQrdZdaRuo2-193" value="Database" style="shape=umlLifeline;perimeter=lifelinePerimeter;whiteSpace=wrap;html=1;container=1;dropTarget=0;collapsible=0;recursiveResize=0;outlineConnect=0;portConstraint=eastwest;newEdgeStyle={&quot;curved&quot;:0,&quot;rounded&quot;:0};" vertex="1" parent="1">
          <mxGeometry x="875" y="1010" width="100" height="830" as="geometry" />
        </mxCell>
        <mxCell id="6zx5J-GpkoQrdZdaRuo2-194" value="" style="html=1;points=[[0,0,0,0,5],[0,1,0,0,-5],[1,0,0,0,5],[1,1,0,0,-5]];perimeter=orthogonalPerimeter;outlineConnect=0;targetShapes=umlLifeline;portConstraint=eastwest;newEdgeStyle={&quot;curved&quot;:0,&quot;rounded&quot;:0};" vertex="1" parent="6zx5J-GpkoQrdZdaRuo2-193">
          <mxGeometry x="45" y="110" width="10" height="240" as="geometry" />
        </mxCell>
        <mxCell id="6zx5J-GpkoQrdZdaRuo2-195" value="" style="html=1;points=[[0,0,0,0,5],[0,1,0,0,-5],[1,0,0,0,5],[1,1,0,0,-5]];perimeter=orthogonalPerimeter;outlineConnect=0;targetShapes=umlLifeline;portConstraint=eastwest;newEdgeStyle={&quot;curved&quot;:0,&quot;rounded&quot;:0};" vertex="1" parent="6zx5J-GpkoQrdZdaRuo2-193">
          <mxGeometry x="45" y="500" width="10" height="50" as="geometry" />
        </mxCell>
        <mxCell id="6zx5J-GpkoQrdZdaRuo2-196" value="Types Credentials" style="html=1;verticalAlign=bottom;endArrow=block;curved=0;rounded=0;entryX=0;entryY=0;entryDx=0;entryDy=5;entryPerimeter=0;" edge="1" parent="1" source="6zx5J-GpkoQrdZdaRuo2-185" target="6zx5J-GpkoQrdZdaRuo2-187">
          <mxGeometry width="80" relative="1" as="geometry">
            <mxPoint x="425" y="1420" as="sourcePoint" />
            <mxPoint x="505" y="1420" as="targetPoint" />
          </mxGeometry>
        </mxCell>
        <mxCell id="6zx5J-GpkoQrdZdaRuo2-197" value="Login()" style="text;html=1;align=center;verticalAlign=middle;resizable=0;points=[];autosize=1;strokeColor=none;fillColor=none;" vertex="1" parent="1">
          <mxGeometry x="75" y="1078" width="60" height="30" as="geometry" />
        </mxCell>
        <mxCell id="6zx5J-GpkoQrdZdaRuo2-198" style="rounded=0;orthogonalLoop=1;jettySize=auto;html=1;entryX=1;entryY=0;entryDx=0;entryDy=5;entryPerimeter=0;" edge="1" parent="1">
          <mxGeometry relative="1" as="geometry">
            <mxPoint x="395" y="1078" as="sourcePoint" />
            <mxPoint x="225" y="1078" as="targetPoint" />
          </mxGeometry>
        </mxCell>
        <mxCell id="6zx5J-GpkoQrdZdaRuo2-199" value="DisplayLogscr()" style="text;html=1;align=center;verticalAlign=middle;resizable=0;points=[];autosize=1;strokeColor=none;fillColor=none;" vertex="1" parent="1">
          <mxGeometry x="255" y="1048" width="110" height="30" as="geometry" />
        </mxCell>
        <mxCell id="6zx5J-GpkoQrdZdaRuo2-200" style="rounded=0;orthogonalLoop=1;jettySize=auto;html=1;exitX=1;exitY=1;exitDx=0;exitDy=-5;exitPerimeter=0;" edge="1" parent="1" source="6zx5J-GpkoQrdZdaRuo2-187" target="6zx5J-GpkoQrdZdaRuo2-188">
          <mxGeometry relative="1" as="geometry" />
        </mxCell>
        <mxCell id="6zx5J-GpkoQrdZdaRuo2-201" value="Logindetails()" style="text;html=1;align=center;verticalAlign=middle;resizable=0;points=[];autosize=1;strokeColor=none;fillColor=none;" vertex="1" parent="1">
          <mxGeometry x="255" y="1090" width="100" height="30" as="geometry" />
        </mxCell>
        <mxCell id="6zx5J-GpkoQrdZdaRuo2-202" style="rounded=0;orthogonalLoop=1;jettySize=auto;html=1;entryX=0;entryY=0;entryDx=0;entryDy=5;entryPerimeter=0;" edge="1" parent="1" source="6zx5J-GpkoQrdZdaRuo2-189" target="6zx5J-GpkoQrdZdaRuo2-194">
          <mxGeometry relative="1" as="geometry" />
        </mxCell>
        <mxCell id="6zx5J-GpkoQrdZdaRuo2-203" value="CheckCredentials()" style="text;html=1;align=center;verticalAlign=middle;resizable=0;points=[];autosize=1;strokeColor=none;fillColor=none;" vertex="1" parent="1">
          <mxGeometry x="565" y="1098" width="130" height="30" as="geometry" />
        </mxCell>
        <mxCell id="6zx5J-GpkoQrdZdaRuo2-204" style="rounded=0;orthogonalLoop=1;jettySize=auto;html=1;dashed=1;endArrow=open;endFill=0;" edge="1" parent="1" source="6zx5J-GpkoQrdZdaRuo2-194">
          <mxGeometry relative="1" as="geometry">
            <mxPoint x="928" y="1340" as="sourcePoint" />
            <mxPoint x="412.25" y="1340" as="targetPoint" />
          </mxGeometry>
        </mxCell>
        <mxCell id="6zx5J-GpkoQrdZdaRuo2-205" value="return results" style="text;html=1;align=center;verticalAlign=middle;resizable=0;points=[];autosize=1;strokeColor=none;fillColor=none;" vertex="1" parent="1">
          <mxGeometry x="595" y="1330" width="90" height="30" as="geometry" />
        </mxCell>
        <mxCell id="6zx5J-GpkoQrdZdaRuo2-206" style="rounded=0;orthogonalLoop=1;jettySize=auto;html=1;dashed=1;fillColor=#f8cecc;strokeColor=#b85450;" edge="1" parent="1" target="6zx5J-GpkoQrdZdaRuo2-189">
          <mxGeometry relative="1" as="geometry">
            <mxPoint x="915" y="1170" as="sourcePoint" />
            <mxPoint x="335" y="1170" as="targetPoint" />
          </mxGeometry>
        </mxCell>
        <mxCell id="6zx5J-GpkoQrdZdaRuo2-207" value="NotValidPass()" style="text;html=1;align=center;verticalAlign=middle;resizable=0;points=[];autosize=1;" vertex="1" parent="1">
          <mxGeometry x="620" y="1145" width="100" height="30" as="geometry" />
        </mxCell>
        <mxCell id="6zx5J-GpkoQrdZdaRuo2-208" value="Alt" style="shape=umlFrame;whiteSpace=wrap;html=1;pointerEvents=0;fillColor=#f8cecc;strokeColor=#b85450;" vertex="1" parent="1">
          <mxGeometry x="40" y="1128" width="915" height="202" as="geometry" />
        </mxCell>
        <mxCell id="6zx5J-GpkoQrdZdaRuo2-209" value="Error popup message screen" style="shape=umlLifeline;perimeter=lifelinePerimeter;whiteSpace=wrap;html=1;container=1;dropTarget=0;collapsible=0;recursiveResize=0;outlineConnect=0;portConstraint=eastwest;newEdgeStyle={&quot;curved&quot;:0,&quot;rounded&quot;:0};fillColor=#f8cecc;strokeColor=#b85450;" vertex="1" parent="1">
          <mxGeometry x="625" y="1194" width="70" height="70" as="geometry" />
        </mxCell>
        <mxCell id="6zx5J-GpkoQrdZdaRuo2-210" value="" style="html=1;points=[[0,0,0,0,5],[0,1,0,0,-5],[1,0,0,0,5],[1,1,0,0,-5]];perimeter=orthogonalPerimeter;outlineConnect=0;targetShapes=umlLifeline;portConstraint=eastwest;newEdgeStyle={&quot;curved&quot;:0,&quot;rounded&quot;:0};fillColor=#f8cecc;strokeColor=#b85450;" vertex="1" parent="6zx5J-GpkoQrdZdaRuo2-209">
          <mxGeometry x="30" y="50" width="10" height="20" as="geometry" />
        </mxCell>
        <mxCell id="6zx5J-GpkoQrdZdaRuo2-211" value="&quot;create&quot;" style="endArrow=open;endSize=12;dashed=1;html=1;rounded=0;fillColor=#f8cecc;strokeColor=#b85450;entryX=0;entryY=0.229;entryDx=0;entryDy=0;entryPerimeter=0;" edge="1" parent="1" source="6zx5J-GpkoQrdZdaRuo2-189" target="6zx5J-GpkoQrdZdaRuo2-209">
          <mxGeometry width="160" relative="1" as="geometry">
            <mxPoint x="417.5" y="1210" as="sourcePoint" />
            <mxPoint x="577.5" y="1210" as="targetPoint" />
          </mxGeometry>
        </mxCell>
        <mxCell id="6zx5J-GpkoQrdZdaRuo2-212" style="rounded=0;orthogonalLoop=1;jettySize=auto;html=1;fillColor=#f8cecc;strokeColor=#b85450;" edge="1" parent="1" source="6zx5J-GpkoQrdZdaRuo2-189" target="6zx5J-GpkoQrdZdaRuo2-210">
          <mxGeometry relative="1" as="geometry">
            <mxPoint x="220" y="1615" as="sourcePoint" />
            <Array as="points">
              <mxPoint x="535" y="1240" />
            </Array>
          </mxGeometry>
        </mxCell>
        <mxCell id="6zx5J-GpkoQrdZdaRuo2-213" value="show()" style="text;html=1;align=center;verticalAlign=middle;resizable=0;points=[];autosize=1;strokeColor=none;fillColor=none;" vertex="1" parent="1">
          <mxGeometry x="495" y="1214" width="60" height="30" as="geometry" />
        </mxCell>
        <mxCell id="6zx5J-GpkoQrdZdaRuo2-214" style="rounded=0;orthogonalLoop=1;jettySize=auto;html=1;entryX=0;entryY=0;entryDx=0;entryDy=5;entryPerimeter=0;" edge="1" parent="1" source="6zx5J-GpkoQrdZdaRuo2-189" target="6zx5J-GpkoQrdZdaRuo2-191">
          <mxGeometry relative="1" as="geometry" />
        </mxCell>
        <mxCell id="6zx5J-GpkoQrdZdaRuo2-215" value="show()" style="text;html=1;align=center;verticalAlign=middle;resizable=0;points=[];autosize=1;strokeColor=none;fillColor=none;" vertex="1" parent="1">
          <mxGeometry x="475" y="1348" width="60" height="30" as="geometry" />
        </mxCell>
        <mxCell id="6zx5J-GpkoQrdZdaRuo2-216" value="Addpostclicicked()" style="text;html=1;align=center;verticalAlign=middle;resizable=0;points=[];autosize=1;strokeColor=none;fillColor=none;" vertex="1" parent="1">
          <mxGeometry x="240" y="1370" width="120" height="30" as="geometry" />
        </mxCell>
        <mxCell id="6zx5J-GpkoQrdZdaRuo2-217" value="" style="rounded=0;orthogonalLoop=1;jettySize=auto;html=1;" edge="1" parent="1">
          <mxGeometry relative="1" as="geometry">
            <mxPoint x="410" y="1437" as="sourcePoint" />
            <mxPoint x="750" y="1437" as="targetPoint" />
          </mxGeometry>
        </mxCell>
        <mxCell id="6zx5J-GpkoQrdZdaRuo2-218" value="show()" style="text;html=1;align=center;verticalAlign=middle;resizable=0;points=[];autosize=1;strokeColor=none;fillColor=none;" vertex="1" parent="1">
          <mxGeometry x="590" y="1420" width="60" height="30" as="geometry" />
        </mxCell>
        <mxCell id="6zx5J-GpkoQrdZdaRuo2-219" style="rounded=0;orthogonalLoop=1;jettySize=auto;html=1;" edge="1" parent="1">
          <mxGeometry relative="1" as="geometry">
            <mxPoint x="69.5" y="1398" as="sourcePoint" />
            <mxPoint x="560" y="1398" as="targetPoint" />
          </mxGeometry>
        </mxCell>
        <mxCell id="6zx5J-GpkoQrdZdaRuo2-220" style="rounded=0;orthogonalLoop=1;jettySize=auto;html=1;exitX=0;exitY=1;exitDx=0;exitDy=-5;exitPerimeter=0;endArrow=open;endFill=0;dashed=1;" edge="1" parent="1" source="6zx5J-GpkoQrdZdaRuo2-191" target="6zx5J-GpkoQrdZdaRuo2-189">
          <mxGeometry relative="1" as="geometry" />
        </mxCell>
        <mxCell id="6zx5J-GpkoQrdZdaRuo2-221" value="return selection" style="text;html=1;align=center;verticalAlign=middle;resizable=0;points=[];autosize=1;strokeColor=none;fillColor=none;" vertex="1" parent="1">
          <mxGeometry x="420" y="1397" width="110" height="30" as="geometry" />
        </mxCell>
        <mxCell id="6zx5J-GpkoQrdZdaRuo2-222" value="" style="html=1;points=[[0,0,0,0,5],[0,1,0,0,-5],[1,0,0,0,5],[1,1,0,0,-5]];perimeter=orthogonalPerimeter;outlineConnect=0;targetShapes=umlLifeline;portConstraint=eastwest;newEdgeStyle={&quot;curved&quot;:0,&quot;rounded&quot;:0};" vertex="1" parent="1">
          <mxGeometry x="750" y="1438" width="10" height="72" as="geometry" />
        </mxCell>
        <mxCell id="6zx5J-GpkoQrdZdaRuo2-223" style="rounded=0;orthogonalLoop=1;jettySize=auto;html=1;" edge="1" parent="1">
          <mxGeometry relative="1" as="geometry">
            <mxPoint x="74.5" y="1462.5" as="sourcePoint" />
            <mxPoint x="750" y="1462.5" as="targetPoint" />
          </mxGeometry>
        </mxCell>
        <mxCell id="6zx5J-GpkoQrdZdaRuo2-224" value="Fills &quot;Found Item&quot; form" style="text;html=1;align=center;verticalAlign=middle;resizable=0;points=[];autosize=1;strokeColor=none;fillColor=none;" vertex="1" parent="1">
          <mxGeometry x="205" y="1438" width="140" height="30" as="geometry" />
        </mxCell>
        <mxCell id="6zx5J-GpkoQrdZdaRuo2-225" style="rounded=0;orthogonalLoop=1;jettySize=auto;html=1;exitX=0.468;exitY=0.896;exitDx=0;exitDy=0;exitPerimeter=0;endArrow=blockThin;endFill=1;" edge="1" parent="1">
          <mxGeometry relative="1" as="geometry">
            <mxPoint x="750" y="1490" as="sourcePoint" />
            <mxPoint x="408.2" y="1490" as="targetPoint" />
          </mxGeometry>
        </mxCell>
        <mxCell id="6zx5J-GpkoQrdZdaRuo2-226" value="FormCheck()" style="text;html=1;align=center;verticalAlign=middle;resizable=0;points=[];autosize=1;strokeColor=none;fillColor=none;" vertex="1" parent="1">
          <mxGeometry x="560" y="1468" width="90" height="30" as="geometry" />
        </mxCell>
        <mxCell id="6zx5J-GpkoQrdZdaRuo2-227" style="rounded=0;orthogonalLoop=1;jettySize=auto;html=1;exitX=1;exitY=1;exitDx=0;exitDy=-5;exitPerimeter=0;" edge="1" parent="1">
          <mxGeometry relative="1" as="geometry">
            <mxPoint x="412.75" y="1524.5" as="sourcePoint" />
            <mxPoint x="927.25" y="1524.5" as="targetPoint" />
          </mxGeometry>
        </mxCell>
        <mxCell id="6zx5J-GpkoQrdZdaRuo2-228" value="SubmitPost()" style="text;html=1;align=center;verticalAlign=middle;resizable=0;points=[];autosize=1;strokeColor=none;fillColor=none;" vertex="1" parent="1">
          <mxGeometry x="615" y="1510" width="90" height="30" as="geometry" />
        </mxCell>
        <mxCell id="6zx5J-GpkoQrdZdaRuo2-229" style="rounded=0;orthogonalLoop=1;jettySize=auto;html=1;dashed=1;endArrow=open;endFill=0;exitX=0;exitY=1;exitDx=0;exitDy=-5;exitPerimeter=0;" edge="1" parent="1" source="6zx5J-GpkoQrdZdaRuo2-195" target="6zx5J-GpkoQrdZdaRuo2-189">
          <mxGeometry relative="1" as="geometry">
            <mxPoint x="913.88" y="1560" as="sourcePoint" />
            <mxPoint x="475" y="1550" as="targetPoint" />
          </mxGeometry>
        </mxCell>
        <mxCell id="6zx5J-GpkoQrdZdaRuo2-230" value="return submit success" style="text;html=1;align=center;verticalAlign=middle;resizable=0;points=[];autosize=1;strokeColor=none;fillColor=none;" vertex="1" parent="1">
          <mxGeometry x="590" y="1550" width="140" height="30" as="geometry" />
        </mxCell>
        <mxCell id="6zx5J-GpkoQrdZdaRuo2-231" value="Alt" style="shape=umlFrame;whiteSpace=wrap;html=1;pointerEvents=0;fillColor=#f8cecc;strokeColor=#b85450;" vertex="1" parent="1">
          <mxGeometry x="42.5" y="1610" width="915" height="202" as="geometry" />
        </mxCell>
        <mxCell id="6zx5J-GpkoQrdZdaRuo2-232" value="&quot;create&quot;" style="endArrow=open;endSize=12;dashed=1;html=1;rounded=0;fillColor=#f8cecc;strokeColor=#b85450;entryX=0;entryY=0.229;entryDx=0;entryDy=0;entryPerimeter=0;" edge="1" parent="1" source="6zx5J-GpkoQrdZdaRuo2-189">
          <mxGeometry width="160" relative="1" as="geometry">
            <mxPoint x="432.5" y="1660" as="sourcePoint" />
            <mxPoint x="647.5" y="1660" as="targetPoint" />
          </mxGeometry>
        </mxCell>
        <mxCell id="6zx5J-GpkoQrdZdaRuo2-233" value="Error popup message screen" style="shape=umlLifeline;perimeter=lifelinePerimeter;whiteSpace=wrap;html=1;container=1;dropTarget=0;collapsible=0;recursiveResize=0;outlineConnect=0;portConstraint=eastwest;newEdgeStyle={&quot;curved&quot;:0,&quot;rounded&quot;:0};fillColor=#f8cecc;strokeColor=#b85450;" vertex="1" parent="1">
          <mxGeometry x="645" y="1646" width="70" height="70" as="geometry" />
        </mxCell>
        <mxCell id="6zx5J-GpkoQrdZdaRuo2-234" value="" style="html=1;points=[[0,0,0,0,5],[0,1,0,0,-5],[1,0,0,0,5],[1,1,0,0,-5]];perimeter=orthogonalPerimeter;outlineConnect=0;targetShapes=umlLifeline;portConstraint=eastwest;newEdgeStyle={&quot;curved&quot;:0,&quot;rounded&quot;:0};fillColor=#f8cecc;strokeColor=#b85450;" vertex="1" parent="6zx5J-GpkoQrdZdaRuo2-233">
          <mxGeometry x="30" y="50" width="10" height="20" as="geometry" />
        </mxCell>
        <mxCell id="6zx5J-GpkoQrdZdaRuo2-235" style="rounded=0;orthogonalLoop=1;jettySize=auto;html=1;fillColor=#f8cecc;strokeColor=#b85450;" edge="1" parent="1" target="6zx5J-GpkoQrdZdaRuo2-233">
          <mxGeometry relative="1" as="geometry">
            <mxPoint x="410" y="1700" as="sourcePoint" />
            <mxPoint x="655" y="1704" as="targetPoint" />
            <Array as="points">
              <mxPoint x="535" y="1700" />
            </Array>
          </mxGeometry>
        </mxCell>
        <mxCell id="6zx5J-GpkoQrdZdaRuo2-236" value="show()" style="text;html=1;align=center;verticalAlign=middle;resizable=0;points=[];autosize=1;strokeColor=none;fillColor=none;" vertex="1" parent="1">
          <mxGeometry x="502.5" y="1670" width="60" height="30" as="geometry" />
        </mxCell>
        <mxCell id="6zx5J-GpkoQrdZdaRuo2-237" value="" style="rounded=0;orthogonalLoop=1;jettySize=auto;html=1;" edge="1" parent="1" source="6zx5J-GpkoQrdZdaRuo2-240">
          <mxGeometry relative="1" as="geometry">
            <mxPoint x="415" y="1750" as="sourcePoint" />
            <mxPoint x="755" y="1750" as="targetPoint" />
          </mxGeometry>
        </mxCell>
        <mxCell id="6zx5J-GpkoQrdZdaRuo2-238" value="show()" style="text;html=1;align=center;verticalAlign=middle;resizable=0;points=[];autosize=1;strokeColor=none;fillColor=none;" vertex="1" parent="1">
          <mxGeometry x="502.5" y="1710" width="60" height="30" as="geometry" />
        </mxCell>
        <mxCell id="6zx5J-GpkoQrdZdaRuo2-239" value="" style="rounded=0;orthogonalLoop=1;jettySize=auto;html=1;fillColor=#f8cecc;strokeColor=#b85450;" edge="1" parent="1" source="6zx5J-GpkoQrdZdaRuo2-189" target="6zx5J-GpkoQrdZdaRuo2-240">
          <mxGeometry relative="1" as="geometry">
            <mxPoint x="415" y="1750" as="sourcePoint" />
            <mxPoint x="755" y="1750" as="targetPoint" />
            <Array as="points">
              <mxPoint x="585" y="1730" />
            </Array>
          </mxGeometry>
        </mxCell>
        <mxCell id="6zx5J-GpkoQrdZdaRuo2-240" value="" style="html=1;points=[[0,0,0,0,5],[0,1,0,0,-5],[1,0,0,0,5],[1,1,0,0,-5]];perimeter=orthogonalPerimeter;outlineConnect=0;targetShapes=umlLifeline;portConstraint=eastwest;newEdgeStyle={&quot;curved&quot;:0,&quot;rounded&quot;:0};fillColor=#f8cecc;strokeColor=#b85450;" vertex="1" parent="1">
          <mxGeometry x="750" y="1710" width="10" height="72" as="geometry" />
        </mxCell>
        <mxCell id="6zx5J-GpkoQrdZdaRuo2-241" value="Finder" style="text;html=1;align=center;verticalAlign=middle;resizable=0;points=[];autosize=1;strokeColor=none;fillColor=none;" vertex="1" parent="1">
          <mxGeometry x="50" y="978" width="60" height="30" as="geometry" />
        </mxCell>
        <mxCell id="6zx5J-GpkoQrdZdaRuo2-242" value="Lost item Owner" style="text;html=1;align=center;verticalAlign=middle;resizable=0;points=[];autosize=1;strokeColor=none;fillColor=none;" vertex="1" parent="1">
          <mxGeometry width="110" height="30" as="geometry" />
        </mxCell>
        <mxCell id="6zx5J-GpkoQrdZdaRuo2-243" value="1" style="text;html=1;align=center;verticalAlign=middle;resizable=0;points=[];autosize=1;strokeColor=none;fillColor=none;" vertex="1" parent="1">
          <mxGeometry x="7.5" y="28" width="30" height="30" as="geometry" />
        </mxCell>
        <mxCell id="6zx5J-GpkoQrdZdaRuo2-244" value="2" style="text;html=1;align=center;verticalAlign=middle;resizable=0;points=[];autosize=1;strokeColor=none;fillColor=none;" vertex="1" parent="1">
          <mxGeometry x="5" y="978" width="30" height="30" as="geometry" />
        </mxCell>
        <mxCell id="6zx5J-GpkoQrdZdaRuo2-245" value="3" style="text;html=1;align=center;verticalAlign=middle;resizable=0;points=[];autosize=1;strokeColor=none;fillColor=none;" vertex="1" parent="1">
          <mxGeometry x="20" y="1888" width="30" height="30" as="geometry" />
        </mxCell>
        <mxCell id="6zx5J-GpkoQrdZdaRuo2-246" style="rounded=0;orthogonalLoop=1;jettySize=auto;html=1;" edge="1" parent="1" target="6zx5J-GpkoQrdZdaRuo2-48">
          <mxGeometry relative="1" as="geometry">
            <mxPoint x="57.388888888888914" y="2310.0000000000005" as="sourcePoint" />
            <mxPoint x="552.5" y="2310.0000000000005" as="targetPoint" />
          </mxGeometry>
        </mxCell>
        <mxCell id="6zx5J-GpkoQrdZdaRuo2-247" value="Lost Items Filter" style="text;html=1;align=center;verticalAlign=middle;resizable=0;points=[];autosize=1;strokeColor=none;fillColor=none;" vertex="1" parent="1">
          <mxGeometry x="205" y="2278" width="110" height="30" as="geometry" />
        </mxCell>
        <mxCell id="6zx5J-GpkoQrdZdaRuo2-250" value="" style="rounded=0;orthogonalLoop=1;jettySize=auto;html=1;" edge="1" parent="1">
          <mxGeometry relative="1" as="geometry">
            <mxPoint x="392.5" y="2332.47" as="sourcePoint" />
            <mxPoint x="690" y="2332.47" as="targetPoint" />
          </mxGeometry>
        </mxCell>
        <mxCell id="6zx5J-GpkoQrdZdaRuo2-251" value="show()" style="text;html=1;align=center;verticalAlign=middle;resizable=0;points=[];autosize=1;strokeColor=none;fillColor=none;" vertex="1" parent="1">
          <mxGeometry x="577.5" y="2308" width="60" height="30" as="geometry" />
        </mxCell>
        <mxCell id="6zx5J-GpkoQrdZdaRuo2-252" value="Item post" style="shape=umlLifeline;perimeter=lifelinePerimeter;whiteSpace=wrap;html=1;container=1;dropTarget=0;collapsible=0;recursiveResize=0;outlineConnect=0;portConstraint=eastwest;newEdgeStyle={&quot;curved&quot;:0,&quot;rounded&quot;:0};" vertex="1" parent="1">
          <mxGeometry x="750" y="1920" width="100" height="970" as="geometry" />
        </mxCell>
        <mxCell id="6zx5J-GpkoQrdZdaRuo2-253" value="" style="html=1;points=[[0,0,0,0,5],[0,1,0,0,-5],[1,0,0,0,5],[1,1,0,0,-5]];perimeter=orthogonalPerimeter;outlineConnect=0;targetShapes=umlLifeline;portConstraint=eastwest;newEdgeStyle={&quot;curved&quot;:0,&quot;rounded&quot;:0};" vertex="1" parent="6zx5J-GpkoQrdZdaRuo2-252">
          <mxGeometry x="45" y="420" width="10" height="80" as="geometry" />
        </mxCell>
        <mxCell id="6zx5J-GpkoQrdZdaRuo2-254" style="edgeStyle=orthogonalEdgeStyle;rounded=0;orthogonalLoop=1;jettySize=auto;html=1;curved=0;entryX=0;entryY=0;entryDx=0;entryDy=5;entryPerimeter=0;" edge="1" parent="1" source="6zx5J-GpkoQrdZdaRuo2-249" target="6zx5J-GpkoQrdZdaRuo2-253">
          <mxGeometry relative="1" as="geometry" />
        </mxCell>
        <mxCell id="6zx5J-GpkoQrdZdaRuo2-255" value="show()" style="text;html=1;align=center;verticalAlign=middle;resizable=0;points=[];autosize=1;strokeColor=none;fillColor=none;" vertex="1" parent="1">
          <mxGeometry x="712.5" y="2318" width="60" height="30" as="geometry" />
        </mxCell>
        <mxCell id="6zx5J-GpkoQrdZdaRuo2-256" style="rounded=0;orthogonalLoop=1;jettySize=auto;html=1;" edge="1" parent="1" target="6zx5J-GpkoQrdZdaRuo2-49">
          <mxGeometry relative="1" as="geometry">
            <mxPoint x="54.698888888888916" y="2348.0000000000005" as="sourcePoint" />
            <mxPoint x="545.31" y="2348" as="targetPoint" />
          </mxGeometry>
        </mxCell>
        <mxCell id="6zx5J-GpkoQrdZdaRuo2-257" value="Choose item&amp;nbsp;" style="text;html=1;align=center;verticalAlign=middle;resizable=0;points=[];autosize=1;strokeColor=none;fillColor=none;" vertex="1" parent="1">
          <mxGeometry x="235" y="2328" width="90" height="30" as="geometry" />
        </mxCell>
        <mxCell id="6zx5J-GpkoQrdZdaRuo2-258" style="rounded=0;orthogonalLoop=1;jettySize=auto;html=1;" edge="1" parent="1" target="6zx5J-GpkoQrdZdaRuo2-252">
          <mxGeometry relative="1" as="geometry">
            <mxPoint x="59.998888888888914" y="2380.0000000000005" as="sourcePoint" />
            <mxPoint x="697.3" y="2380" as="targetPoint" />
          </mxGeometry>
        </mxCell>
        <mxCell id="6zx5J-GpkoQrdZdaRuo2-259" value="I found this Item Clicked()" style="text;html=1;align=center;verticalAlign=middle;resizable=0;points=[];autosize=1;strokeColor=none;fillColor=none;" vertex="1" parent="1">
          <mxGeometry x="220" y="2358" width="160" height="30" as="geometry" />
        </mxCell>
        <mxCell id="6zx5J-GpkoQrdZdaRuo2-260" style="rounded=0;orthogonalLoop=1;jettySize=auto;html=1;exitX=0;exitY=1;exitDx=0;exitDy=-5;exitPerimeter=0;dashed=1;endArrow=open;endFill=0;" edge="1" parent="1" source="6zx5J-GpkoQrdZdaRuo2-253" target="6zx5J-GpkoQrdZdaRuo2-46">
          <mxGeometry relative="1" as="geometry" />
        </mxCell>
        <mxCell id="6zx5J-GpkoQrdZdaRuo2-262" value="return result&amp;nbsp;" style="text;html=1;align=center;verticalAlign=middle;resizable=0;points=[];autosize=1;strokeColor=none;fillColor=none;" vertex="1" parent="1">
          <mxGeometry x="577.5" y="2388" width="90" height="30" as="geometry" />
        </mxCell>
        <mxCell id="6zx5J-GpkoQrdZdaRuo2-266" style="rounded=0;orthogonalLoop=1;jettySize=auto;html=1;exitX=1;exitY=1;exitDx=0;exitDy=-5;exitPerimeter=0;" edge="1" parent="1">
          <mxGeometry relative="1" as="geometry">
            <mxPoint x="395" y="2450" as="sourcePoint" />
            <mxPoint x="905" y="2450" as="targetPoint" />
          </mxGeometry>
        </mxCell>
        <mxCell id="6zx5J-GpkoQrdZdaRuo2-267" value="NotifiesItemowner()" style="text;html=1;align=center;verticalAlign=middle;resizable=0;points=[];autosize=1;strokeColor=none;fillColor=none;" vertex="1" parent="1">
          <mxGeometry x="552.5" y="2428" width="130" height="30" as="geometry" />
        </mxCell>
        <mxCell id="6zx5J-GpkoQrdZdaRuo2-268" value="Popup message Waiting for reply" style="shape=umlLifeline;perimeter=lifelinePerimeter;whiteSpace=wrap;html=1;container=1;dropTarget=0;collapsible=0;recursiveResize=0;outlineConnect=0;portConstraint=eastwest;newEdgeStyle={&quot;curved&quot;:0,&quot;rounded&quot;:0};" vertex="1" parent="1">
          <mxGeometry x="582.5" y="2500" width="110" height="70" as="geometry" />
        </mxCell>
        <mxCell id="6zx5J-GpkoQrdZdaRuo2-269" value="" style="html=1;points=[[0,0,0,0,5],[0,1,0,0,-5],[1,0,0,0,5],[1,1,0,0,-5]];perimeter=orthogonalPerimeter;outlineConnect=0;targetShapes=umlLifeline;portConstraint=eastwest;newEdgeStyle={&quot;curved&quot;:0,&quot;rounded&quot;:0};" vertex="1" parent="6zx5J-GpkoQrdZdaRuo2-268">
          <mxGeometry x="47.5" y="45" width="10" height="20" as="geometry" />
        </mxCell>
        <mxCell id="6zx5J-GpkoQrdZdaRuo2-270" value="show()" style="text;html=1;align=center;verticalAlign=middle;resizable=0;points=[];autosize=1;" vertex="1" parent="1">
          <mxGeometry x="492.5" y="2560" width="60" height="30" as="geometry" />
        </mxCell>
        <mxCell id="6zx5J-GpkoQrdZdaRuo2-271" value="&quot;create&quot;" style="endArrow=open;endSize=12;dashed=1;html=1;rounded=0;" edge="1" parent="1" target="6zx5J-GpkoQrdZdaRuo2-268">
          <mxGeometry width="160" relative="1" as="geometry">
            <mxPoint x="395" y="2540" as="sourcePoint" />
            <mxPoint x="500" y="2540" as="targetPoint" />
          </mxGeometry>
        </mxCell>
        <mxCell id="6zx5J-GpkoQrdZdaRuo2-272" style="rounded=0;orthogonalLoop=1;jettySize=auto;html=1;" edge="1" parent="1" target="6zx5J-GpkoQrdZdaRuo2-268">
          <mxGeometry relative="1" as="geometry">
            <mxPoint x="400" y="2570" as="sourcePoint" />
            <mxPoint x="560" y="2570" as="targetPoint" />
          </mxGeometry>
        </mxCell>
        <mxCell id="6zx5J-GpkoQrdZdaRuo2-276" style="rounded=0;orthogonalLoop=1;jettySize=auto;html=1;entryX=0;entryY=0;entryDx=0;entryDy=5;entryPerimeter=0;fillColor=#f8cecc;strokeColor=#b85450;fontColor=#FF0000;" edge="1" parent="1" source="6zx5J-GpkoQrdZdaRuo2-42" target="6zx5J-GpkoQrdZdaRuo2-278">
          <mxGeometry relative="1" as="geometry">
            <mxPoint x="169.3888888888889" y="2770.0000000000005" as="sourcePoint" />
            <mxPoint x="660" y="2770" as="targetPoint" />
          </mxGeometry>
        </mxCell>
        <mxCell id="6zx5J-GpkoQrdZdaRuo2-277" value="Alt 2" style="shape=umlFrame;whiteSpace=wrap;html=1;pointerEvents=0;fillColor=#f8cecc;strokeColor=#b85450;" vertex="1" parent="1">
          <mxGeometry x="22.5" y="2600" width="915" height="270" as="geometry" />
        </mxCell>
        <mxCell id="6zx5J-GpkoQrdZdaRuo2-279" value="&lt;font style=&quot;color: rgb(0, 0, 0);&quot;&gt;Does not find post&lt;/font&gt;" style="text;html=1;align=center;verticalAlign=middle;resizable=0;points=[];autosize=1;strokeColor=none;fillColor=none;" vertex="1" parent="1">
          <mxGeometry x="180" y="2618" width="120" height="30" as="geometry" />
        </mxCell>
        <mxCell id="6zx5J-GpkoQrdZdaRuo2-280" value="&lt;font style=&quot;color: rgb(0, 0, 0);&quot;&gt;Use Case 2&lt;/font&gt;" style="ellipse;whiteSpace=wrap;html=1;fillColor=#f8cecc;strokeColor=#b85450;" vertex="1" parent="1">
          <mxGeometry x="772.5" y="2620" width="140" height="70" as="geometry" />
        </mxCell>
        <mxCell id="6zx5J-GpkoQrdZdaRuo2-281" style="rounded=0;orthogonalLoop=1;jettySize=auto;html=1;entryX=0;entryY=0.5;entryDx=0;entryDy=0;fillColor=#f8cecc;strokeColor=#b85450;fontColor=#FF0000;" edge="1" parent="1" source="6zx5J-GpkoQrdZdaRuo2-278" target="6zx5J-GpkoQrdZdaRuo2-280">
          <mxGeometry relative="1" as="geometry" />
        </mxCell>
        <mxCell id="6zx5J-GpkoQrdZdaRuo2-282" value="" style="line;strokeWidth=1;fillColor=#f8cecc;align=left;verticalAlign=middle;spacingTop=-1;spacingLeft=3;spacingRight=3;rotatable=0;labelPosition=right;points=[];portConstraint=eastwest;strokeColor=#b85450;" vertex="1" parent="1">
          <mxGeometry x="20" y="2697" width="920" height="8" as="geometry" />
        </mxCell>
        <mxCell id="6zx5J-GpkoQrdZdaRuo2-285" value="&lt;font style=&quot;color: rgb(0, 0, 0);&quot;&gt;Does not find post, LogoutClicked()&lt;/font&gt;" style="text;html=1;align=center;verticalAlign=middle;resizable=0;points=[];autosize=1;strokeColor=none;fillColor=none;fontColor=#FF0000;" vertex="1" parent="1">
          <mxGeometry x="135" y="2720" width="210" height="30" as="geometry" />
        </mxCell>
        <mxCell id="6zx5J-GpkoQrdZdaRuo2-290" value="&lt;font style=&quot;color: rgb(0, 0, 0);&quot;&gt;Logout screen&lt;/font&gt;" style="shape=umlLifeline;perimeter=lifelinePerimeter;whiteSpace=wrap;html=1;container=1;dropTarget=0;collapsible=0;recursiveResize=0;outlineConnect=0;portConstraint=eastwest;newEdgeStyle={&quot;curved&quot;:0,&quot;rounded&quot;:0};fillColor=#f8cecc;strokeColor=#b85450;" vertex="1" parent="1">
          <mxGeometry x="535" y="2790" width="110" height="70" as="geometry" />
        </mxCell>
        <mxCell id="6zx5J-GpkoQrdZdaRuo2-291" value="" style="html=1;points=[[0,0,0,0,5],[0,1,0,0,-5],[1,0,0,0,5],[1,1,0,0,-5]];perimeter=orthogonalPerimeter;outlineConnect=0;targetShapes=umlLifeline;portConstraint=eastwest;newEdgeStyle={&quot;curved&quot;:0,&quot;rounded&quot;:0};fillColor=#f8cecc;strokeColor=#b85450;" vertex="1" parent="6zx5J-GpkoQrdZdaRuo2-290">
          <mxGeometry x="47.5" y="45" width="10" height="15" as="geometry" />
        </mxCell>
        <mxCell id="6zx5J-GpkoQrdZdaRuo2-294" style="rounded=0;orthogonalLoop=1;jettySize=auto;html=1;dashed=1;endArrow=open;endFill=0;fillColor=#f8cecc;strokeColor=#b85450;fontColor=#FF0000;" edge="1" parent="1">
          <mxGeometry relative="1" as="geometry">
            <mxPoint x="690" y="2774" as="sourcePoint" />
            <mxPoint x="393" y="2774.44" as="targetPoint" />
          </mxGeometry>
        </mxCell>
        <mxCell id="6zx5J-GpkoQrdZdaRuo2-295" value="&lt;font style=&quot;color: rgb(0, 0, 0);&quot;&gt;&quot;create&quot;&lt;/font&gt;" style="endArrow=open;endSize=12;dashed=1;html=1;rounded=0;fillColor=#f8cecc;strokeColor=#b85450;fontColor=#FF0000;" edge="1" parent="1">
          <mxGeometry width="160" relative="1" as="geometry">
            <mxPoint x="394" y="2810" as="sourcePoint" />
            <mxPoint x="530" y="2800" as="targetPoint" />
          </mxGeometry>
        </mxCell>
        <mxCell id="6zx5J-GpkoQrdZdaRuo2-296" style="rounded=0;orthogonalLoop=1;jettySize=auto;html=1;exitX=1;exitY=1;exitDx=0;exitDy=-5;exitPerimeter=0;entryX=0;entryY=1;entryDx=0;entryDy=-5;entryPerimeter=0;fillColor=#f8cecc;strokeColor=#b85450;fontColor=#FF0000;" edge="1" parent="1" source="6zx5J-GpkoQrdZdaRuo2-46" target="6zx5J-GpkoQrdZdaRuo2-291">
          <mxGeometry relative="1" as="geometry" />
        </mxCell>
        <mxCell id="6zx5J-GpkoQrdZdaRuo2-297" value="&lt;font style=&quot;color: rgb(0, 0, 0);&quot;&gt;show()&lt;/font&gt;" style="text;html=1;align=center;verticalAlign=middle;resizable=0;points=[];autosize=1;strokeColor=none;fillColor=none;fontColor=#FF0000;" vertex="1" parent="1">
          <mxGeometry x="442.5" y="2820" width="60" height="30" as="geometry" />
        </mxCell>
        <mxCell id="6zx5J-GpkoQrdZdaRuo2-298" value="&lt;font style=&quot;color: rgb(0, 0, 0);&quot;&gt;return result&amp;nbsp;&lt;/font&gt;" style="text;html=1;align=center;verticalAlign=middle;resizable=0;points=[];autosize=1;strokeColor=none;fillColor=none;fontColor=#FF0000;" vertex="1" parent="1">
          <mxGeometry x="550" y="2750" width="90" height="30" as="geometry" />
        </mxCell>
        <mxCell id="6zx5J-GpkoQrdZdaRuo2-299" value="8" style="text;html=1;align=center;verticalAlign=middle;resizable=0;points=[];autosize=1;strokeColor=none;fillColor=none;" vertex="1" parent="1">
          <mxGeometry x="35" y="5670" width="30" height="30" as="geometry" />
        </mxCell>
        <mxCell id="6zx5J-GpkoQrdZdaRuo2-300" value="Local business owner" style="text;html=1;align=center;verticalAlign=middle;resizable=0;points=[];autosize=1;strokeColor=none;fillColor=none;" vertex="1" parent="1">
          <mxGeometry x="32.5" y="5712" width="140" height="30" as="geometry" />
        </mxCell>
        <mxCell id="6zx5J-GpkoQrdZdaRuo2-301" style="rounded=0;orthogonalLoop=1;jettySize=auto;html=1;" edge="1" parent="1" target="6zx5J-GpkoQrdZdaRuo2-79">
          <mxGeometry relative="1" as="geometry">
            <mxPoint x="80" y="6132" as="sourcePoint" />
            <mxPoint x="225.5" y="6132" as="targetPoint" />
          </mxGeometry>
        </mxCell>
        <mxCell id="6zx5J-GpkoQrdZdaRuo2-302" value="AddBusinessasDropoffClicked()" style="text;html=1;align=center;verticalAlign=middle;resizable=0;points=[];autosize=1;strokeColor=none;fillColor=none;" vertex="1" parent="1">
          <mxGeometry x="135" y="6110" width="190" height="30" as="geometry" />
        </mxCell>
        <mxCell id="6zx5J-GpkoQrdZdaRuo2-305" style="rounded=0;orthogonalLoop=1;jettySize=auto;html=1;exitX=0;exitY=1;exitDx=0;exitDy=-5;exitPerimeter=0;endArrow=open;endFill=0;dashed=1;" edge="1" parent="1">
          <mxGeometry relative="1" as="geometry">
            <mxPoint x="547.5" y="2324.95" as="sourcePoint" />
            <mxPoint x="392.5" y="2324.95" as="targetPoint" />
          </mxGeometry>
        </mxCell>
        <mxCell id="6zx5J-GpkoQrdZdaRuo2-306" value="return selection" style="text;whiteSpace=wrap;html=1;" vertex="1" parent="1">
          <mxGeometry x="437.5" y="2303" width="120" height="40" as="geometry" />
        </mxCell>
        <mxCell id="6zx5J-GpkoQrdZdaRuo2-308" value="&lt;span style=&quot;color: rgb(0, 0, 0); font-family: Helvetica; font-size: 12px; font-style: normal; font-variant-ligatures: normal; font-variant-caps: normal; font-weight: 400; letter-spacing: normal; orphans: 2; text-align: center; text-indent: 0px; text-transform: none; widows: 2; word-spacing: 0px; -webkit-text-stroke-width: 0px; white-space: nowrap; text-decoration-thickness: initial; text-decoration-style: initial; text-decoration-color: initial; float: none; display: inline !important;&quot;&gt;return selection&lt;/span&gt;" style="text;whiteSpace=wrap;html=1;" vertex="1" parent="1">
          <mxGeometry x="442.5" y="6142" width="120" height="40" as="geometry" />
        </mxCell>
        <mxCell id="6zx5J-GpkoQrdZdaRuo2-309" style="rounded=0;orthogonalLoop=1;jettySize=auto;html=1;dashed=1;endArrow=open;endFill=0;exitX=0;exitY=1;exitDx=0;exitDy=-5;exitPerimeter=0;" edge="1" parent="1" source="6zx5J-GpkoQrdZdaRuo2-79" target="6zx5J-GpkoQrdZdaRuo2-77">
          <mxGeometry relative="1" as="geometry">
            <mxPoint x="602.5" y="6302" as="sourcePoint" />
            <mxPoint x="438.37" y="6302" as="targetPoint" />
          </mxGeometry>
        </mxCell>
        <mxCell id="6zx5J-GpkoQrdZdaRuo2-310" style="rounded=0;orthogonalLoop=1;jettySize=auto;html=1;" edge="1" parent="1" target="6zx5J-GpkoQrdZdaRuo2-80">
          <mxGeometry relative="1" as="geometry">
            <mxPoint x="412.5" y="6192" as="sourcePoint" />
            <mxPoint x="702.5" y="6192" as="targetPoint" />
          </mxGeometry>
        </mxCell>
        <mxCell id="6zx5J-GpkoQrdZdaRuo2-311" value="show()" style="text;html=1;align=center;verticalAlign=middle;resizable=0;points=[];autosize=1;strokeColor=none;fillColor=none;" vertex="1" parent="1">
          <mxGeometry x="600" y="6172" width="60" height="30" as="geometry" />
        </mxCell>
        <mxCell id="6zx5J-GpkoQrdZdaRuo2-312" style="rounded=0;orthogonalLoop=1;jettySize=auto;html=1;dashed=1;endArrow=open;endFill=0;" edge="1" parent="1">
          <mxGeometry relative="1" as="geometry">
            <mxPoint x="747.5" y="6262" as="sourcePoint" />
            <mxPoint x="407.5" y="6262" as="targetPoint" />
          </mxGeometry>
        </mxCell>
        <mxCell id="6zx5J-GpkoQrdZdaRuo2-313" value="return form" style="text;html=1;align=center;verticalAlign=middle;resizable=0;points=[];autosize=1;strokeColor=none;fillColor=none;" vertex="1" parent="1">
          <mxGeometry x="590" y="6242" width="80" height="30" as="geometry" />
        </mxCell>
        <mxCell id="6zx5J-GpkoQrdZdaRuo2-314" style="rounded=0;orthogonalLoop=1;jettySize=auto;html=1;" edge="1" parent="1">
          <mxGeometry relative="1" as="geometry">
            <mxPoint x="79.44736842105249" y="6222" as="sourcePoint" />
            <mxPoint x="752.5" y="6222" as="targetPoint" />
          </mxGeometry>
        </mxCell>
        <mxCell id="6zx5J-GpkoQrdZdaRuo2-315" value="Fills form" style="text;html=1;align=center;verticalAlign=middle;resizable=0;points=[];autosize=1;strokeColor=none;fillColor=none;" vertex="1" parent="1">
          <mxGeometry x="275" y="6202" width="70" height="30" as="geometry" />
        </mxCell>
        <mxCell id="6zx5J-GpkoQrdZdaRuo2-317" style="rounded=0;orthogonalLoop=1;jettySize=auto;html=1;" edge="1" parent="1" target="6zx5J-GpkoQrdZdaRuo2-316">
          <mxGeometry relative="1" as="geometry">
            <mxPoint x="411.5" y="6302" as="sourcePoint" />
            <mxPoint x="758.5" y="6302" as="targetPoint" />
          </mxGeometry>
        </mxCell>
        <mxCell id="6zx5J-GpkoQrdZdaRuo2-319" value="SaveBusasDropoff()" style="text;html=1;align=center;verticalAlign=middle;resizable=0;points=[];autosize=1;strokeColor=none;fillColor=none;" vertex="1" parent="1">
          <mxGeometry x="575" y="6282" width="130" height="30" as="geometry" />
        </mxCell>
        <mxCell id="6zx5J-GpkoQrdZdaRuo2-321" style="rounded=0;orthogonalLoop=1;jettySize=auto;html=1;fillColor=#f8cecc;strokeColor=#b85450;" edge="1" parent="1" target="6zx5J-GpkoQrdZdaRuo2-322">
          <mxGeometry relative="1" as="geometry">
            <mxPoint x="415.5" y="6402" as="sourcePoint" />
            <mxPoint x="762.5" y="6402" as="targetPoint" />
          </mxGeometry>
        </mxCell>
        <mxCell id="6zx5J-GpkoQrdZdaRuo2-322" value="Error popup message screen" style="shape=umlLifeline;perimeter=lifelinePerimeter;whiteSpace=wrap;html=1;container=1;dropTarget=0;collapsible=0;recursiveResize=0;outlineConnect=0;portConstraint=eastwest;newEdgeStyle={&quot;curved&quot;:0,&quot;rounded&quot;:0};fillColor=#f8cecc;strokeColor=#b85450;" vertex="1" parent="1">
          <mxGeometry x="617.5" y="6352" width="70" height="70" as="geometry" />
        </mxCell>
        <mxCell id="6zx5J-GpkoQrdZdaRuo2-323" value="" style="html=1;points=[[0,0,0,0,5],[0,1,0,0,-5],[1,0,0,0,5],[1,1,0,0,-5]];perimeter=orthogonalPerimeter;outlineConnect=0;targetShapes=umlLifeline;portConstraint=eastwest;newEdgeStyle={&quot;curved&quot;:0,&quot;rounded&quot;:0};fillColor=#f8cecc;strokeColor=#b85450;" vertex="1" parent="6zx5J-GpkoQrdZdaRuo2-322">
          <mxGeometry x="30" y="50" width="10" height="20" as="geometry" />
        </mxCell>
        <mxCell id="6zx5J-GpkoQrdZdaRuo2-324" value="&quot;create&quot;" style="endArrow=open;endSize=12;dashed=1;html=1;rounded=0;fillColor=#f8cecc;strokeColor=#b85450;" edge="1" parent="1">
          <mxGeometry width="160" relative="1" as="geometry">
            <mxPoint x="415" y="6362" as="sourcePoint" />
            <mxPoint x="612.5" y="6362" as="targetPoint" />
          </mxGeometry>
        </mxCell>
        <mxCell id="6zx5J-GpkoQrdZdaRuo2-326" value="show()" style="text;html=1;align=center;verticalAlign=middle;resizable=0;points=[];autosize=1;strokeColor=none;fillColor=none;" vertex="1" parent="1">
          <mxGeometry x="470" y="6382" width="60" height="30" as="geometry" />
        </mxCell>
        <mxCell id="6zx5J-GpkoQrdZdaRuo2-327" value="Alt" style="shape=umlFrame;whiteSpace=wrap;html=1;pointerEvents=0;fillColor=#f8cecc;strokeColor=#b85450;" vertex="1" parent="1">
          <mxGeometry x="52.5" y="6312" width="915" height="130" as="geometry" />
        </mxCell>
        <mxCell id="6zx5J-GpkoQrdZdaRuo2-328" style="rounded=0;orthogonalLoop=1;jettySize=auto;html=1;fillColor=#f8cecc;strokeColor=#b85450;entryX=0;entryY=0;entryDx=0;entryDy=5;entryPerimeter=0;" edge="1" parent="1" target="6zx5J-GpkoQrdZdaRuo2-329">
          <mxGeometry relative="1" as="geometry">
            <mxPoint x="413.75" y="6332" as="sourcePoint" />
            <mxPoint x="661.5" y="6332" as="targetPoint" />
          </mxGeometry>
        </mxCell>
        <mxCell id="6zx5J-GpkoQrdZdaRuo2-330" value="show()" style="text;html=1;align=center;verticalAlign=middle;resizable=0;points=[];autosize=1;strokeColor=none;fillColor=none;" vertex="1" parent="1">
          <mxGeometry x="512.5" y="6310" width="60" height="30" as="geometry" />
        </mxCell>
        <mxCell id="6zx5J-GpkoQrdZdaRuo2-331" style="rounded=0;orthogonalLoop=1;jettySize=auto;html=1;" edge="1" parent="1" target="6zx5J-GpkoQrdZdaRuo2-334">
          <mxGeometry relative="1" as="geometry">
            <mxPoint x="47.5" y="3060" as="sourcePoint" />
            <mxPoint x="143" y="3060" as="targetPoint" />
          </mxGeometry>
        </mxCell>
        <mxCell id="6zx5J-GpkoQrdZdaRuo2-332" value="" style="shape=umlLifeline;perimeter=lifelinePerimeter;whiteSpace=wrap;html=1;container=1;dropTarget=0;collapsible=0;recursiveResize=0;outlineConnect=0;portConstraint=eastwest;newEdgeStyle={&quot;curved&quot;:0,&quot;rounded&quot;:0};participant=umlActor;" vertex="1" parent="1">
          <mxGeometry x="37.5" y="2970" width="20" height="1550" as="geometry" />
        </mxCell>
        <mxCell id="6zx5J-GpkoQrdZdaRuo2-333" value="Login Screen" style="shape=umlLifeline;perimeter=lifelinePerimeter;whiteSpace=wrap;html=1;container=1;dropTarget=0;collapsible=0;recursiveResize=0;outlineConnect=0;portConstraint=eastwest;newEdgeStyle={&quot;curved&quot;:0,&quot;rounded&quot;:0};" vertex="1" parent="1">
          <mxGeometry x="107.5" y="2968" width="100" height="1562" as="geometry" />
        </mxCell>
        <mxCell id="6zx5J-GpkoQrdZdaRuo2-334" value="" style="html=1;points=[[0,0,0,0,5],[0,1,0,0,-5],[1,0,0,0,5],[1,1,0,0,-5]];perimeter=orthogonalPerimeter;outlineConnect=0;targetShapes=umlLifeline;portConstraint=eastwest;newEdgeStyle={&quot;curved&quot;:0,&quot;rounded&quot;:0};" vertex="1" parent="6zx5J-GpkoQrdZdaRuo2-333">
          <mxGeometry x="45" y="60" width="10" height="50" as="geometry" />
        </mxCell>
        <mxCell id="6zx5J-GpkoQrdZdaRuo2-335" value="System:class" style="shape=umlLifeline;perimeter=lifelinePerimeter;whiteSpace=wrap;html=1;container=1;dropTarget=0;collapsible=0;recursiveResize=0;outlineConnect=0;portConstraint=eastwest;newEdgeStyle={&quot;curved&quot;:0,&quot;rounded&quot;:0};" vertex="1" parent="1">
          <mxGeometry x="265" y="2968" width="100" height="1562" as="geometry" />
        </mxCell>
        <mxCell id="6zx5J-GpkoQrdZdaRuo2-336" value="" style="html=1;points=[[0,0,0,0,5],[0,1,0,0,-5],[1,0,0,0,5],[1,1,0,0,-5]];perimeter=orthogonalPerimeter;outlineConnect=0;targetShapes=umlLifeline;portConstraint=eastwest;newEdgeStyle={&quot;curved&quot;:0,&quot;rounded&quot;:0};" vertex="1" parent="6zx5J-GpkoQrdZdaRuo2-335">
          <mxGeometry x="45" y="82" width="10" height="1408" as="geometry" />
        </mxCell>
        <mxCell id="6zx5J-GpkoQrdZdaRuo2-519" value="TransferRew()" style="html=1;align=left;spacingLeft=2;endArrow=block;rounded=0;edgeStyle=orthogonalEdgeStyle;curved=0;rounded=0;" edge="1" parent="6zx5J-GpkoQrdZdaRuo2-335">
          <mxGeometry relative="1" as="geometry">
            <mxPoint x="51" y="902" as="sourcePoint" />
            <Array as="points">
              <mxPoint x="81" y="932" />
            </Array>
            <mxPoint x="56" y="932" as="targetPoint" />
          </mxGeometry>
        </mxCell>
        <mxCell id="6zx5J-GpkoQrdZdaRuo2-337" value="Main Menu" style="shape=umlLifeline;perimeter=lifelinePerimeter;whiteSpace=wrap;html=1;container=1;dropTarget=0;collapsible=0;recursiveResize=0;outlineConnect=0;portConstraint=eastwest;newEdgeStyle={&quot;curved&quot;:0,&quot;rounded&quot;:0};" vertex="1" parent="1">
          <mxGeometry x="390" y="2969" width="100" height="1551" as="geometry" />
        </mxCell>
        <mxCell id="6zx5J-GpkoQrdZdaRuo2-338" value="" style="html=1;points=[[0,0,0,0,5],[0,1,0,0,-5],[1,0,0,0,5],[1,1,0,0,-5]];perimeter=orthogonalPerimeter;outlineConnect=0;targetShapes=umlLifeline;portConstraint=eastwest;newEdgeStyle={&quot;curved&quot;:0,&quot;rounded&quot;:0};" vertex="1" parent="6zx5J-GpkoQrdZdaRuo2-337">
          <mxGeometry x="45" y="360" width="10" height="100" as="geometry" />
        </mxCell>
        <mxCell id="6zx5J-GpkoQrdZdaRuo2-340" value="Database" style="shape=umlLifeline;perimeter=lifelinePerimeter;whiteSpace=wrap;html=1;container=1;dropTarget=0;collapsible=0;recursiveResize=0;outlineConnect=0;portConstraint=eastwest;newEdgeStyle={&quot;curved&quot;:0,&quot;rounded&quot;:0};" vertex="1" parent="1">
          <mxGeometry x="845" y="2969" width="100" height="1551" as="geometry" />
        </mxCell>
        <mxCell id="6zx5J-GpkoQrdZdaRuo2-341" value="" style="html=1;points=[[0,0,0,0,5],[0,1,0,0,-5],[1,0,0,0,5],[1,1,0,0,-5]];perimeter=orthogonalPerimeter;outlineConnect=0;targetShapes=umlLifeline;portConstraint=eastwest;newEdgeStyle={&quot;curved&quot;:0,&quot;rounded&quot;:0};" vertex="1" parent="6zx5J-GpkoQrdZdaRuo2-340">
          <mxGeometry x="45" y="110" width="10" height="240" as="geometry" />
        </mxCell>
        <mxCell id="6zx5J-GpkoQrdZdaRuo2-493" value="" style="html=1;points=[[0,0,0,0,5],[0,1,0,0,-5],[1,0,0,0,5],[1,1,0,0,-5]];perimeter=orthogonalPerimeter;outlineConnect=0;targetShapes=umlLifeline;portConstraint=eastwest;newEdgeStyle={&quot;curved&quot;:0,&quot;rounded&quot;:0};" vertex="1" parent="6zx5J-GpkoQrdZdaRuo2-340">
          <mxGeometry x="45" y="620" width="10" height="24" as="geometry" />
        </mxCell>
        <mxCell id="6zx5J-GpkoQrdZdaRuo2-522" value="" style="html=1;points=[[0,0,0,0,5],[0,1,0,0,-5],[1,0,0,0,5],[1,1,0,0,-5]];perimeter=orthogonalPerimeter;outlineConnect=0;targetShapes=umlLifeline;portConstraint=eastwest;newEdgeStyle={&quot;curved&quot;:0,&quot;rounded&quot;:0};" vertex="1" parent="6zx5J-GpkoQrdZdaRuo2-340">
          <mxGeometry x="45" y="941" width="10" height="24" as="geometry" />
        </mxCell>
        <mxCell id="6zx5J-GpkoQrdZdaRuo2-557" value="" style="html=1;points=[[0,0,0,0,5],[0,1,0,0,-5],[1,0,0,0,5],[1,1,0,0,-5]];perimeter=orthogonalPerimeter;outlineConnect=0;targetShapes=umlLifeline;portConstraint=eastwest;newEdgeStyle={&quot;curved&quot;:0,&quot;rounded&quot;:0};fillColor=#f8cecc;strokeColor=#b85450;" vertex="1" parent="6zx5J-GpkoQrdZdaRuo2-340">
          <mxGeometry x="45" y="1361" width="10" height="24" as="geometry" />
        </mxCell>
        <mxCell id="6zx5J-GpkoQrdZdaRuo2-342" value="Types Credentials" style="html=1;verticalAlign=bottom;endArrow=block;curved=0;rounded=0;entryX=0;entryY=0;entryDx=0;entryDy=5;entryPerimeter=0;" edge="1" parent="1" source="6zx5J-GpkoQrdZdaRuo2-332" target="6zx5J-GpkoQrdZdaRuo2-334">
          <mxGeometry width="80" relative="1" as="geometry">
            <mxPoint x="397.5" y="3380" as="sourcePoint" />
            <mxPoint x="477.5" y="3380" as="targetPoint" />
          </mxGeometry>
        </mxCell>
        <mxCell id="6zx5J-GpkoQrdZdaRuo2-343" value="Login()" style="text;html=1;align=center;verticalAlign=middle;resizable=0;points=[];autosize=1;strokeColor=none;fillColor=none;" vertex="1" parent="1">
          <mxGeometry x="47.5" y="3038" width="60" height="30" as="geometry" />
        </mxCell>
        <mxCell id="6zx5J-GpkoQrdZdaRuo2-344" style="rounded=0;orthogonalLoop=1;jettySize=auto;html=1;entryX=1.032;entryY=0.24;entryDx=0;entryDy=0;entryPerimeter=0;" edge="1" parent="1" source="6zx5J-GpkoQrdZdaRuo2-336" target="6zx5J-GpkoQrdZdaRuo2-334">
          <mxGeometry relative="1" as="geometry">
            <mxPoint x="367.5" y="3038" as="sourcePoint" />
            <mxPoint x="197.5" y="3038" as="targetPoint" />
          </mxGeometry>
        </mxCell>
        <mxCell id="6zx5J-GpkoQrdZdaRuo2-345" value="DisplayLogscr()" style="text;html=1;align=center;verticalAlign=middle;resizable=0;points=[];autosize=1;strokeColor=none;fillColor=none;" vertex="1" parent="1">
          <mxGeometry x="200" y="3008" width="110" height="30" as="geometry" />
        </mxCell>
        <mxCell id="6zx5J-GpkoQrdZdaRuo2-346" style="rounded=0;orthogonalLoop=1;jettySize=auto;html=1;exitX=1;exitY=1;exitDx=0;exitDy=-5;exitPerimeter=0;" edge="1" parent="1" source="6zx5J-GpkoQrdZdaRuo2-334" target="6zx5J-GpkoQrdZdaRuo2-335">
          <mxGeometry relative="1" as="geometry" />
        </mxCell>
        <mxCell id="6zx5J-GpkoQrdZdaRuo2-347" value="Logindetails()" style="text;html=1;align=center;verticalAlign=middle;resizable=0;points=[];autosize=1;strokeColor=none;fillColor=none;" vertex="1" parent="1">
          <mxGeometry x="195" y="3050" width="100" height="30" as="geometry" />
        </mxCell>
        <mxCell id="6zx5J-GpkoQrdZdaRuo2-348" style="rounded=0;orthogonalLoop=1;jettySize=auto;html=1;entryX=0;entryY=0;entryDx=0;entryDy=5;entryPerimeter=0;" edge="1" parent="1" source="6zx5J-GpkoQrdZdaRuo2-336" target="6zx5J-GpkoQrdZdaRuo2-341">
          <mxGeometry relative="1" as="geometry" />
        </mxCell>
        <mxCell id="6zx5J-GpkoQrdZdaRuo2-349" value="CheckCredentials()" style="text;html=1;align=center;verticalAlign=middle;resizable=0;points=[];autosize=1;strokeColor=none;fillColor=none;" vertex="1" parent="1">
          <mxGeometry x="557.5" y="3058" width="130" height="30" as="geometry" />
        </mxCell>
        <mxCell id="6zx5J-GpkoQrdZdaRuo2-350" style="rounded=0;orthogonalLoop=1;jettySize=auto;html=1;dashed=1;endArrow=open;endFill=0;" edge="1" parent="1">
          <mxGeometry relative="1" as="geometry">
            <mxPoint x="891.25" y="3298.9999999999995" as="sourcePoint" />
            <mxPoint x="318.75" y="3298.9999999999995" as="targetPoint" />
          </mxGeometry>
        </mxCell>
        <mxCell id="6zx5J-GpkoQrdZdaRuo2-351" value="return results" style="text;html=1;align=center;verticalAlign=middle;resizable=0;points=[];autosize=1;strokeColor=none;fillColor=none;" vertex="1" parent="1">
          <mxGeometry x="567.5" y="3290" width="90" height="30" as="geometry" />
        </mxCell>
        <mxCell id="6zx5J-GpkoQrdZdaRuo2-352" style="rounded=0;orthogonalLoop=1;jettySize=auto;html=1;dashed=1;fillColor=#f8cecc;strokeColor=#b85450;" edge="1" parent="1" target="6zx5J-GpkoQrdZdaRuo2-336">
          <mxGeometry relative="1" as="geometry">
            <mxPoint x="887.5" y="3130" as="sourcePoint" />
            <mxPoint x="307.5" y="3130" as="targetPoint" />
          </mxGeometry>
        </mxCell>
        <mxCell id="6zx5J-GpkoQrdZdaRuo2-353" value="NotValidPass()" style="text;html=1;align=center;verticalAlign=middle;resizable=0;points=[];autosize=1;" vertex="1" parent="1">
          <mxGeometry x="592.5" y="3105" width="100" height="30" as="geometry" />
        </mxCell>
        <mxCell id="6zx5J-GpkoQrdZdaRuo2-354" value="Alt" style="shape=umlFrame;whiteSpace=wrap;html=1;pointerEvents=0;fillColor=#f8cecc;strokeColor=#b85450;" vertex="1" parent="1">
          <mxGeometry x="12.5" y="3088" width="915" height="202" as="geometry" />
        </mxCell>
        <mxCell id="6zx5J-GpkoQrdZdaRuo2-355" value="Error popup message screen" style="shape=umlLifeline;perimeter=lifelinePerimeter;whiteSpace=wrap;html=1;container=1;dropTarget=0;collapsible=0;recursiveResize=0;outlineConnect=0;portConstraint=eastwest;newEdgeStyle={&quot;curved&quot;:0,&quot;rounded&quot;:0};fillColor=#f8cecc;strokeColor=#b85450;" vertex="1" parent="1">
          <mxGeometry x="450" y="3154" width="70" height="70" as="geometry" />
        </mxCell>
        <mxCell id="6zx5J-GpkoQrdZdaRuo2-356" value="" style="html=1;points=[[0,0,0,0,5],[0,1,0,0,-5],[1,0,0,0,5],[1,1,0,0,-5]];perimeter=orthogonalPerimeter;outlineConnect=0;targetShapes=umlLifeline;portConstraint=eastwest;newEdgeStyle={&quot;curved&quot;:0,&quot;rounded&quot;:0};fillColor=#f8cecc;strokeColor=#b85450;" vertex="1" parent="6zx5J-GpkoQrdZdaRuo2-355">
          <mxGeometry x="30" y="50" width="10" height="20" as="geometry" />
        </mxCell>
        <mxCell id="6zx5J-GpkoQrdZdaRuo2-357" value="&quot;create&quot;" style="endArrow=open;endSize=12;dashed=1;html=1;rounded=0;fillColor=#f8cecc;strokeColor=#b85450;entryX=0;entryY=0.229;entryDx=0;entryDy=0;entryPerimeter=0;" edge="1" parent="1" source="6zx5J-GpkoQrdZdaRuo2-336" target="6zx5J-GpkoQrdZdaRuo2-355">
          <mxGeometry width="160" relative="1" as="geometry">
            <mxPoint x="390" y="3170" as="sourcePoint" />
            <mxPoint x="550" y="3170" as="targetPoint" />
          </mxGeometry>
        </mxCell>
        <mxCell id="6zx5J-GpkoQrdZdaRuo2-358" style="rounded=0;orthogonalLoop=1;jettySize=auto;html=1;fillColor=#f8cecc;strokeColor=#b85450;" edge="1" parent="1">
          <mxGeometry relative="1" as="geometry">
            <mxPoint x="321" y="3204.55" as="sourcePoint" />
            <mxPoint x="481" y="3204.55" as="targetPoint" />
          </mxGeometry>
        </mxCell>
        <mxCell id="6zx5J-GpkoQrdZdaRuo2-359" value="show()" style="text;html=1;align=center;verticalAlign=middle;resizable=0;points=[];autosize=1;strokeColor=none;fillColor=none;" vertex="1" parent="1">
          <mxGeometry x="357.5" y="3180" width="60" height="30" as="geometry" />
        </mxCell>
        <mxCell id="6zx5J-GpkoQrdZdaRuo2-360" style="rounded=0;orthogonalLoop=1;jettySize=auto;html=1;entryX=0;entryY=0;entryDx=0;entryDy=5;entryPerimeter=0;" edge="1" parent="1" source="6zx5J-GpkoQrdZdaRuo2-336" target="6zx5J-GpkoQrdZdaRuo2-338">
          <mxGeometry relative="1" as="geometry" />
        </mxCell>
        <mxCell id="6zx5J-GpkoQrdZdaRuo2-361" value="show()" style="text;html=1;align=center;verticalAlign=middle;resizable=0;points=[];autosize=1;strokeColor=none;fillColor=none;" vertex="1" parent="1">
          <mxGeometry x="352.5" y="3310" width="60" height="30" as="geometry" />
        </mxCell>
        <mxCell id="6zx5J-GpkoQrdZdaRuo2-362" style="rounded=0;orthogonalLoop=1;jettySize=auto;html=1;" edge="1" parent="1" target="6zx5J-GpkoQrdZdaRuo2-365">
          <mxGeometry relative="1" as="geometry">
            <mxPoint x="57.5" y="7750" as="sourcePoint" />
            <mxPoint x="153" y="7750" as="targetPoint" />
          </mxGeometry>
        </mxCell>
        <mxCell id="6zx5J-GpkoQrdZdaRuo2-363" value="" style="shape=umlLifeline;perimeter=lifelinePerimeter;whiteSpace=wrap;html=1;container=1;dropTarget=0;collapsible=0;recursiveResize=0;outlineConnect=0;portConstraint=eastwest;newEdgeStyle={&quot;curved&quot;:0,&quot;rounded&quot;:0};participant=umlActor;" vertex="1" parent="1">
          <mxGeometry x="47.5" y="7660" width="20" height="410" as="geometry" />
        </mxCell>
        <mxCell id="6zx5J-GpkoQrdZdaRuo2-364" value="Login Screen" style="shape=umlLifeline;perimeter=lifelinePerimeter;whiteSpace=wrap;html=1;container=1;dropTarget=0;collapsible=0;recursiveResize=0;outlineConnect=0;portConstraint=eastwest;newEdgeStyle={&quot;curved&quot;:0,&quot;rounded&quot;:0};" vertex="1" parent="1">
          <mxGeometry x="157.5" y="7660" width="100" height="420" as="geometry" />
        </mxCell>
        <mxCell id="6zx5J-GpkoQrdZdaRuo2-365" value="" style="html=1;points=[[0,0,0,0,5],[0,1,0,0,-5],[1,0,0,0,5],[1,1,0,0,-5]];perimeter=orthogonalPerimeter;outlineConnect=0;targetShapes=umlLifeline;portConstraint=eastwest;newEdgeStyle={&quot;curved&quot;:0,&quot;rounded&quot;:0};" vertex="1" parent="6zx5J-GpkoQrdZdaRuo2-364">
          <mxGeometry x="45" y="60" width="10" height="50" as="geometry" />
        </mxCell>
        <mxCell id="6zx5J-GpkoQrdZdaRuo2-366" value="AddLostItemClass" style="shape=umlLifeline;perimeter=lifelinePerimeter;whiteSpace=wrap;html=1;container=1;dropTarget=0;collapsible=0;recursiveResize=0;outlineConnect=0;portConstraint=eastwest;newEdgeStyle={&quot;curved&quot;:0,&quot;rounded&quot;:0};" vertex="1" parent="1">
          <mxGeometry x="337.5" y="7660" width="100" height="430" as="geometry" />
        </mxCell>
        <mxCell id="6zx5J-GpkoQrdZdaRuo2-367" value="" style="html=1;points=[[0,0,0,0,5],[0,1,0,0,-5],[1,0,0,0,5],[1,1,0,0,-5]];perimeter=orthogonalPerimeter;outlineConnect=0;targetShapes=umlLifeline;portConstraint=eastwest;newEdgeStyle={&quot;curved&quot;:0,&quot;rounded&quot;:0};" vertex="1" parent="6zx5J-GpkoQrdZdaRuo2-366">
          <mxGeometry x="45" y="50" width="10" height="320" as="geometry" />
        </mxCell>
        <mxCell id="6zx5J-GpkoQrdZdaRuo2-368" value="Main Menu" style="shape=umlLifeline;perimeter=lifelinePerimeter;whiteSpace=wrap;html=1;container=1;dropTarget=0;collapsible=0;recursiveResize=0;outlineConnect=0;portConstraint=eastwest;newEdgeStyle={&quot;curved&quot;:0,&quot;rounded&quot;:0};" vertex="1" parent="1">
          <mxGeometry x="502.5" y="7660" width="100" height="440" as="geometry" />
        </mxCell>
        <mxCell id="6zx5J-GpkoQrdZdaRuo2-369" value="" style="html=1;points=[[0,0,0,0,5],[0,1,0,0,-5],[1,0,0,0,5],[1,1,0,0,-5]];perimeter=orthogonalPerimeter;outlineConnect=0;targetShapes=umlLifeline;portConstraint=eastwest;newEdgeStyle={&quot;curved&quot;:0,&quot;rounded&quot;:0};" vertex="1" parent="6zx5J-GpkoQrdZdaRuo2-368">
          <mxGeometry x="45" y="360" width="10" height="50" as="geometry" />
        </mxCell>
        <mxCell id="6zx5J-GpkoQrdZdaRuo2-370" value="Create Post Screen" style="shape=umlLifeline;perimeter=lifelinePerimeter;whiteSpace=wrap;html=1;container=1;dropTarget=0;collapsible=0;recursiveResize=0;outlineConnect=0;portConstraint=eastwest;newEdgeStyle={&quot;curved&quot;:0,&quot;rounded&quot;:0};" vertex="1" parent="1">
          <mxGeometry x="687.5" y="7660" width="100" height="360" as="geometry" />
        </mxCell>
        <mxCell id="6zx5J-GpkoQrdZdaRuo2-371" value="Database" style="shape=umlLifeline;perimeter=lifelinePerimeter;whiteSpace=wrap;html=1;container=1;dropTarget=0;collapsible=0;recursiveResize=0;outlineConnect=0;portConstraint=eastwest;newEdgeStyle={&quot;curved&quot;:0,&quot;rounded&quot;:0};" vertex="1" parent="1">
          <mxGeometry x="857.5" y="7660" width="100" height="350" as="geometry" />
        </mxCell>
        <mxCell id="6zx5J-GpkoQrdZdaRuo2-372" value="" style="html=1;points=[[0,0,0,0,5],[0,1,0,0,-5],[1,0,0,0,5],[1,1,0,0,-5]];perimeter=orthogonalPerimeter;outlineConnect=0;targetShapes=umlLifeline;portConstraint=eastwest;newEdgeStyle={&quot;curved&quot;:0,&quot;rounded&quot;:0};" vertex="1" parent="6zx5J-GpkoQrdZdaRuo2-371">
          <mxGeometry x="45" y="110" width="10" height="240" as="geometry" />
        </mxCell>
        <mxCell id="6zx5J-GpkoQrdZdaRuo2-373" value="Types Credentials" style="html=1;verticalAlign=bottom;endArrow=block;curved=0;rounded=0;entryX=0;entryY=0;entryDx=0;entryDy=5;entryPerimeter=0;" edge="1" parent="1" source="6zx5J-GpkoQrdZdaRuo2-363" target="6zx5J-GpkoQrdZdaRuo2-365">
          <mxGeometry width="80" relative="1" as="geometry">
            <mxPoint x="407.5" y="8070" as="sourcePoint" />
            <mxPoint x="487.5" y="8070" as="targetPoint" />
          </mxGeometry>
        </mxCell>
        <mxCell id="6zx5J-GpkoQrdZdaRuo2-374" value="Login()" style="text;html=1;align=center;verticalAlign=middle;resizable=0;points=[];autosize=1;strokeColor=none;fillColor=none;" vertex="1" parent="1">
          <mxGeometry x="57.5" y="7728" width="60" height="30" as="geometry" />
        </mxCell>
        <mxCell id="6zx5J-GpkoQrdZdaRuo2-375" style="rounded=0;orthogonalLoop=1;jettySize=auto;html=1;entryX=1;entryY=0;entryDx=0;entryDy=5;entryPerimeter=0;" edge="1" parent="1">
          <mxGeometry relative="1" as="geometry">
            <mxPoint x="377.5" y="7728" as="sourcePoint" />
            <mxPoint x="207.5" y="7728" as="targetPoint" />
          </mxGeometry>
        </mxCell>
        <mxCell id="6zx5J-GpkoQrdZdaRuo2-376" value="DisplayLogscr()" style="text;html=1;align=center;verticalAlign=middle;resizable=0;points=[];autosize=1;strokeColor=none;fillColor=none;" vertex="1" parent="1">
          <mxGeometry x="237.5" y="7698" width="110" height="30" as="geometry" />
        </mxCell>
        <mxCell id="6zx5J-GpkoQrdZdaRuo2-377" style="rounded=0;orthogonalLoop=1;jettySize=auto;html=1;exitX=1;exitY=1;exitDx=0;exitDy=-5;exitPerimeter=0;" edge="1" parent="1" source="6zx5J-GpkoQrdZdaRuo2-365" target="6zx5J-GpkoQrdZdaRuo2-366">
          <mxGeometry relative="1" as="geometry" />
        </mxCell>
        <mxCell id="6zx5J-GpkoQrdZdaRuo2-378" value="Logindetails()" style="text;html=1;align=center;verticalAlign=middle;resizable=0;points=[];autosize=1;strokeColor=none;fillColor=none;" vertex="1" parent="1">
          <mxGeometry x="237.5" y="7740" width="100" height="30" as="geometry" />
        </mxCell>
        <mxCell id="6zx5J-GpkoQrdZdaRuo2-379" style="rounded=0;orthogonalLoop=1;jettySize=auto;html=1;entryX=0;entryY=0;entryDx=0;entryDy=5;entryPerimeter=0;" edge="1" parent="1" source="6zx5J-GpkoQrdZdaRuo2-367" target="6zx5J-GpkoQrdZdaRuo2-372">
          <mxGeometry relative="1" as="geometry" />
        </mxCell>
        <mxCell id="6zx5J-GpkoQrdZdaRuo2-380" value="CheckCredentials()" style="text;html=1;align=center;verticalAlign=middle;resizable=0;points=[];autosize=1;strokeColor=none;fillColor=none;" vertex="1" parent="1">
          <mxGeometry x="547.5" y="7748" width="130" height="30" as="geometry" />
        </mxCell>
        <mxCell id="6zx5J-GpkoQrdZdaRuo2-381" style="rounded=0;orthogonalLoop=1;jettySize=auto;html=1;dashed=1;endArrow=open;endFill=0;" edge="1" parent="1" source="6zx5J-GpkoQrdZdaRuo2-372">
          <mxGeometry relative="1" as="geometry">
            <mxPoint x="910.5" y="7990" as="sourcePoint" />
            <mxPoint x="394.75" y="7990" as="targetPoint" />
          </mxGeometry>
        </mxCell>
        <mxCell id="6zx5J-GpkoQrdZdaRuo2-382" value="return results" style="text;html=1;align=center;verticalAlign=middle;resizable=0;points=[];autosize=1;strokeColor=none;fillColor=none;" vertex="1" parent="1">
          <mxGeometry x="577.5" y="7980" width="90" height="30" as="geometry" />
        </mxCell>
        <mxCell id="6zx5J-GpkoQrdZdaRuo2-383" style="rounded=0;orthogonalLoop=1;jettySize=auto;html=1;dashed=1;fillColor=#f8cecc;strokeColor=#b85450;" edge="1" parent="1" target="6zx5J-GpkoQrdZdaRuo2-367">
          <mxGeometry relative="1" as="geometry">
            <mxPoint x="897.5" y="7820" as="sourcePoint" />
            <mxPoint x="317.5" y="7820" as="targetPoint" />
          </mxGeometry>
        </mxCell>
        <mxCell id="6zx5J-GpkoQrdZdaRuo2-384" value="NotValidPass()" style="text;html=1;align=center;verticalAlign=middle;resizable=0;points=[];autosize=1;" vertex="1" parent="1">
          <mxGeometry x="602.5" y="7795" width="100" height="30" as="geometry" />
        </mxCell>
        <mxCell id="6zx5J-GpkoQrdZdaRuo2-385" value="Alt" style="shape=umlFrame;whiteSpace=wrap;html=1;pointerEvents=0;fillColor=#f8cecc;strokeColor=#b85450;" vertex="1" parent="1">
          <mxGeometry x="22.5" y="7778" width="915" height="202" as="geometry" />
        </mxCell>
        <mxCell id="6zx5J-GpkoQrdZdaRuo2-386" value="Error popup message screen" style="shape=umlLifeline;perimeter=lifelinePerimeter;whiteSpace=wrap;html=1;container=1;dropTarget=0;collapsible=0;recursiveResize=0;outlineConnect=0;portConstraint=eastwest;newEdgeStyle={&quot;curved&quot;:0,&quot;rounded&quot;:0};fillColor=#f8cecc;strokeColor=#b85450;" vertex="1" parent="1">
          <mxGeometry x="607.5" y="7844" width="70" height="70" as="geometry" />
        </mxCell>
        <mxCell id="6zx5J-GpkoQrdZdaRuo2-387" value="" style="html=1;points=[[0,0,0,0,5],[0,1,0,0,-5],[1,0,0,0,5],[1,1,0,0,-5]];perimeter=orthogonalPerimeter;outlineConnect=0;targetShapes=umlLifeline;portConstraint=eastwest;newEdgeStyle={&quot;curved&quot;:0,&quot;rounded&quot;:0};fillColor=#f8cecc;strokeColor=#b85450;" vertex="1" parent="6zx5J-GpkoQrdZdaRuo2-386">
          <mxGeometry x="30" y="50" width="10" height="20" as="geometry" />
        </mxCell>
        <mxCell id="6zx5J-GpkoQrdZdaRuo2-388" value="&quot;create&quot;" style="endArrow=open;endSize=12;dashed=1;html=1;rounded=0;fillColor=#f8cecc;strokeColor=#b85450;entryX=0;entryY=0.229;entryDx=0;entryDy=0;entryPerimeter=0;exitX=0.5;exitY=0.469;exitDx=0;exitDy=0;exitPerimeter=0;" edge="1" parent="1" source="6zx5J-GpkoQrdZdaRuo2-367" target="6zx5J-GpkoQrdZdaRuo2-386">
          <mxGeometry width="160" relative="1" as="geometry">
            <mxPoint x="400" y="7860" as="sourcePoint" />
            <mxPoint x="560" y="7860" as="targetPoint" />
          </mxGeometry>
        </mxCell>
        <mxCell id="6zx5J-GpkoQrdZdaRuo2-389" style="rounded=0;orthogonalLoop=1;jettySize=auto;html=1;fillColor=#f8cecc;strokeColor=#b85450;" edge="1" parent="1" source="6zx5J-GpkoQrdZdaRuo2-367" target="6zx5J-GpkoQrdZdaRuo2-387">
          <mxGeometry relative="1" as="geometry">
            <mxPoint x="202.5" y="8265" as="sourcePoint" />
          </mxGeometry>
        </mxCell>
        <mxCell id="6zx5J-GpkoQrdZdaRuo2-390" value="show()" style="text;html=1;align=center;verticalAlign=middle;resizable=0;points=[];autosize=1;strokeColor=none;fillColor=none;" vertex="1" parent="1">
          <mxGeometry x="477.5" y="7864" width="60" height="30" as="geometry" />
        </mxCell>
        <mxCell id="6zx5J-GpkoQrdZdaRuo2-391" style="rounded=0;orthogonalLoop=1;jettySize=auto;html=1;exitX=1;exitY=1;exitDx=0;exitDy=-5;exitPerimeter=0;entryX=0;entryY=0;entryDx=0;entryDy=5;entryPerimeter=0;" edge="1" parent="1" source="6zx5J-GpkoQrdZdaRuo2-367" target="6zx5J-GpkoQrdZdaRuo2-369">
          <mxGeometry relative="1" as="geometry" />
        </mxCell>
        <mxCell id="6zx5J-GpkoQrdZdaRuo2-392" value="show()" style="text;html=1;align=center;verticalAlign=middle;resizable=0;points=[];autosize=1;strokeColor=none;fillColor=none;" vertex="1" parent="1">
          <mxGeometry x="457.5" y="7998" width="60" height="30" as="geometry" />
        </mxCell>
        <mxCell id="6zx5J-GpkoQrdZdaRuo2-393" style="rounded=0;orthogonalLoop=1;jettySize=auto;html=1;" edge="1" parent="1" target="6zx5J-GpkoQrdZdaRuo2-396">
          <mxGeometry relative="1" as="geometry">
            <mxPoint x="62.5" y="8510" as="sourcePoint" />
            <mxPoint x="158" y="8510" as="targetPoint" />
          </mxGeometry>
        </mxCell>
        <mxCell id="6zx5J-GpkoQrdZdaRuo2-394" value="" style="shape=umlLifeline;perimeter=lifelinePerimeter;whiteSpace=wrap;html=1;container=1;dropTarget=0;collapsible=0;recursiveResize=0;outlineConnect=0;portConstraint=eastwest;newEdgeStyle={&quot;curved&quot;:0,&quot;rounded&quot;:0};participant=umlActor;" vertex="1" parent="1">
          <mxGeometry x="52.5" y="8420" width="20" height="410" as="geometry" />
        </mxCell>
        <mxCell id="6zx5J-GpkoQrdZdaRuo2-395" value="Login Screen" style="shape=umlLifeline;perimeter=lifelinePerimeter;whiteSpace=wrap;html=1;container=1;dropTarget=0;collapsible=0;recursiveResize=0;outlineConnect=0;portConstraint=eastwest;newEdgeStyle={&quot;curved&quot;:0,&quot;rounded&quot;:0};" vertex="1" parent="1">
          <mxGeometry x="162.5" y="8420" width="100" height="420" as="geometry" />
        </mxCell>
        <mxCell id="6zx5J-GpkoQrdZdaRuo2-396" value="" style="html=1;points=[[0,0,0,0,5],[0,1,0,0,-5],[1,0,0,0,5],[1,1,0,0,-5]];perimeter=orthogonalPerimeter;outlineConnect=0;targetShapes=umlLifeline;portConstraint=eastwest;newEdgeStyle={&quot;curved&quot;:0,&quot;rounded&quot;:0};" vertex="1" parent="6zx5J-GpkoQrdZdaRuo2-395">
          <mxGeometry x="45" y="60" width="10" height="50" as="geometry" />
        </mxCell>
        <mxCell id="6zx5J-GpkoQrdZdaRuo2-397" value="AddLostItemClass" style="shape=umlLifeline;perimeter=lifelinePerimeter;whiteSpace=wrap;html=1;container=1;dropTarget=0;collapsible=0;recursiveResize=0;outlineConnect=0;portConstraint=eastwest;newEdgeStyle={&quot;curved&quot;:0,&quot;rounded&quot;:0};" vertex="1" parent="1">
          <mxGeometry x="325" y="7260" width="100" height="430" as="geometry" />
        </mxCell>
        <mxCell id="6zx5J-GpkoQrdZdaRuo2-398" value="" style="html=1;points=[[0,0,0,0,5],[0,1,0,0,-5],[1,0,0,0,5],[1,1,0,0,-5]];perimeter=orthogonalPerimeter;outlineConnect=0;targetShapes=umlLifeline;portConstraint=eastwest;newEdgeStyle={&quot;curved&quot;:0,&quot;rounded&quot;:0};" vertex="1" parent="6zx5J-GpkoQrdZdaRuo2-397">
          <mxGeometry x="62.5" y="1210" width="10" height="320" as="geometry" />
        </mxCell>
        <mxCell id="6zx5J-GpkoQrdZdaRuo2-399" value="Main Menu" style="shape=umlLifeline;perimeter=lifelinePerimeter;whiteSpace=wrap;html=1;container=1;dropTarget=0;collapsible=0;recursiveResize=0;outlineConnect=0;portConstraint=eastwest;newEdgeStyle={&quot;curved&quot;:0,&quot;rounded&quot;:0};" vertex="1" parent="1">
          <mxGeometry x="490" y="7260" width="100" height="440" as="geometry" />
        </mxCell>
        <mxCell id="6zx5J-GpkoQrdZdaRuo2-400" value="" style="html=1;points=[[0,0,0,0,5],[0,1,0,0,-5],[1,0,0,0,5],[1,1,0,0,-5]];perimeter=orthogonalPerimeter;outlineConnect=0;targetShapes=umlLifeline;portConstraint=eastwest;newEdgeStyle={&quot;curved&quot;:0,&quot;rounded&quot;:0};" vertex="1" parent="6zx5J-GpkoQrdZdaRuo2-399">
          <mxGeometry x="62.5" y="1520" width="10" height="50" as="geometry" />
        </mxCell>
        <mxCell id="6zx5J-GpkoQrdZdaRuo2-401" value="Create Post Screen" style="shape=umlLifeline;perimeter=lifelinePerimeter;whiteSpace=wrap;html=1;container=1;dropTarget=0;collapsible=0;recursiveResize=0;outlineConnect=0;portConstraint=eastwest;newEdgeStyle={&quot;curved&quot;:0,&quot;rounded&quot;:0};" vertex="1" parent="1">
          <mxGeometry x="692.5" y="8420" width="100" height="360" as="geometry" />
        </mxCell>
        <mxCell id="6zx5J-GpkoQrdZdaRuo2-402" value="Database" style="shape=umlLifeline;perimeter=lifelinePerimeter;whiteSpace=wrap;html=1;container=1;dropTarget=0;collapsible=0;recursiveResize=0;outlineConnect=0;portConstraint=eastwest;newEdgeStyle={&quot;curved&quot;:0,&quot;rounded&quot;:0};" vertex="1" parent="1">
          <mxGeometry x="862.5" y="8420" width="100" height="350" as="geometry" />
        </mxCell>
        <mxCell id="6zx5J-GpkoQrdZdaRuo2-403" value="" style="html=1;points=[[0,0,0,0,5],[0,1,0,0,-5],[1,0,0,0,5],[1,1,0,0,-5]];perimeter=orthogonalPerimeter;outlineConnect=0;targetShapes=umlLifeline;portConstraint=eastwest;newEdgeStyle={&quot;curved&quot;:0,&quot;rounded&quot;:0};" vertex="1" parent="6zx5J-GpkoQrdZdaRuo2-402">
          <mxGeometry x="45" y="110" width="10" height="240" as="geometry" />
        </mxCell>
        <mxCell id="6zx5J-GpkoQrdZdaRuo2-404" value="Types Credentials" style="html=1;verticalAlign=bottom;endArrow=block;curved=0;rounded=0;entryX=0;entryY=0;entryDx=0;entryDy=5;entryPerimeter=0;" edge="1" parent="1" source="6zx5J-GpkoQrdZdaRuo2-394" target="6zx5J-GpkoQrdZdaRuo2-396">
          <mxGeometry width="80" relative="1" as="geometry">
            <mxPoint x="412.5" y="8830" as="sourcePoint" />
            <mxPoint x="492.5" y="8830" as="targetPoint" />
          </mxGeometry>
        </mxCell>
        <mxCell id="6zx5J-GpkoQrdZdaRuo2-405" value="Login()" style="text;html=1;align=center;verticalAlign=middle;resizable=0;points=[];autosize=1;strokeColor=none;fillColor=none;" vertex="1" parent="1">
          <mxGeometry x="62.5" y="8488" width="60" height="30" as="geometry" />
        </mxCell>
        <mxCell id="6zx5J-GpkoQrdZdaRuo2-406" style="rounded=0;orthogonalLoop=1;jettySize=auto;html=1;entryX=1;entryY=0;entryDx=0;entryDy=5;entryPerimeter=0;" edge="1" parent="1">
          <mxGeometry relative="1" as="geometry">
            <mxPoint x="382.5" y="8488" as="sourcePoint" />
            <mxPoint x="212.5" y="8488" as="targetPoint" />
          </mxGeometry>
        </mxCell>
        <mxCell id="6zx5J-GpkoQrdZdaRuo2-407" value="DisplayLogscr()" style="text;html=1;align=center;verticalAlign=middle;resizable=0;points=[];autosize=1;strokeColor=none;fillColor=none;" vertex="1" parent="1">
          <mxGeometry x="242.5" y="8458" width="110" height="30" as="geometry" />
        </mxCell>
        <mxCell id="6zx5J-GpkoQrdZdaRuo2-408" style="rounded=0;orthogonalLoop=1;jettySize=auto;html=1;exitX=1;exitY=1;exitDx=0;exitDy=-5;exitPerimeter=0;" edge="1" parent="1" source="6zx5J-GpkoQrdZdaRuo2-396">
          <mxGeometry relative="1" as="geometry">
            <mxPoint x="392" y="8525" as="targetPoint" />
          </mxGeometry>
        </mxCell>
        <mxCell id="6zx5J-GpkoQrdZdaRuo2-409" value="Logindetails()" style="text;html=1;align=center;verticalAlign=middle;resizable=0;points=[];autosize=1;strokeColor=none;fillColor=none;" vertex="1" parent="1">
          <mxGeometry x="242.5" y="8500" width="100" height="30" as="geometry" />
        </mxCell>
        <mxCell id="6zx5J-GpkoQrdZdaRuo2-410" style="rounded=0;orthogonalLoop=1;jettySize=auto;html=1;entryX=0;entryY=0;entryDx=0;entryDy=5;entryPerimeter=0;" edge="1" parent="1" source="6zx5J-GpkoQrdZdaRuo2-398" target="6zx5J-GpkoQrdZdaRuo2-403">
          <mxGeometry relative="1" as="geometry" />
        </mxCell>
        <mxCell id="6zx5J-GpkoQrdZdaRuo2-411" value="CheckCredentials()" style="text;html=1;align=center;verticalAlign=middle;resizable=0;points=[];autosize=1;strokeColor=none;fillColor=none;" vertex="1" parent="1">
          <mxGeometry x="552.5" y="8508" width="130" height="30" as="geometry" />
        </mxCell>
        <mxCell id="6zx5J-GpkoQrdZdaRuo2-412" style="rounded=0;orthogonalLoop=1;jettySize=auto;html=1;dashed=1;endArrow=open;endFill=0;" edge="1" parent="1" source="6zx5J-GpkoQrdZdaRuo2-403">
          <mxGeometry relative="1" as="geometry">
            <mxPoint x="915.5" y="8750" as="sourcePoint" />
            <mxPoint x="399.75" y="8750" as="targetPoint" />
          </mxGeometry>
        </mxCell>
        <mxCell id="6zx5J-GpkoQrdZdaRuo2-413" value="return results" style="text;html=1;align=center;verticalAlign=middle;resizable=0;points=[];autosize=1;strokeColor=none;fillColor=none;" vertex="1" parent="1">
          <mxGeometry x="582.5" y="8740" width="90" height="30" as="geometry" />
        </mxCell>
        <mxCell id="6zx5J-GpkoQrdZdaRuo2-414" style="rounded=0;orthogonalLoop=1;jettySize=auto;html=1;dashed=1;fillColor=#f8cecc;strokeColor=#b85450;" edge="1" parent="1" target="6zx5J-GpkoQrdZdaRuo2-398">
          <mxGeometry relative="1" as="geometry">
            <mxPoint x="902.5" y="8580" as="sourcePoint" />
            <mxPoint x="322.5" y="8580" as="targetPoint" />
          </mxGeometry>
        </mxCell>
        <mxCell id="6zx5J-GpkoQrdZdaRuo2-415" value="NotValidPass()" style="text;html=1;align=center;verticalAlign=middle;resizable=0;points=[];autosize=1;" vertex="1" parent="1">
          <mxGeometry x="607.5" y="8555" width="100" height="30" as="geometry" />
        </mxCell>
        <mxCell id="6zx5J-GpkoQrdZdaRuo2-416" value="Alt" style="shape=umlFrame;whiteSpace=wrap;html=1;pointerEvents=0;fillColor=#f8cecc;strokeColor=#b85450;" vertex="1" parent="1">
          <mxGeometry x="27.5" y="8538" width="915" height="202" as="geometry" />
        </mxCell>
        <mxCell id="6zx5J-GpkoQrdZdaRuo2-417" value="Error popup message screen" style="shape=umlLifeline;perimeter=lifelinePerimeter;whiteSpace=wrap;html=1;container=1;dropTarget=0;collapsible=0;recursiveResize=0;outlineConnect=0;portConstraint=eastwest;newEdgeStyle={&quot;curved&quot;:0,&quot;rounded&quot;:0};fillColor=#f8cecc;strokeColor=#b85450;" vertex="1" parent="1">
          <mxGeometry x="612.5" y="8604" width="70" height="70" as="geometry" />
        </mxCell>
        <mxCell id="6zx5J-GpkoQrdZdaRuo2-418" value="" style="html=1;points=[[0,0,0,0,5],[0,1,0,0,-5],[1,0,0,0,5],[1,1,0,0,-5]];perimeter=orthogonalPerimeter;outlineConnect=0;targetShapes=umlLifeline;portConstraint=eastwest;newEdgeStyle={&quot;curved&quot;:0,&quot;rounded&quot;:0};fillColor=#f8cecc;strokeColor=#b85450;" vertex="1" parent="6zx5J-GpkoQrdZdaRuo2-417">
          <mxGeometry x="30" y="50" width="10" height="20" as="geometry" />
        </mxCell>
        <mxCell id="6zx5J-GpkoQrdZdaRuo2-419" value="&quot;create&quot;" style="endArrow=open;endSize=12;dashed=1;html=1;rounded=0;fillColor=#f8cecc;strokeColor=#b85450;entryX=0;entryY=0.229;entryDx=0;entryDy=0;entryPerimeter=0;exitX=0.5;exitY=0.469;exitDx=0;exitDy=0;exitPerimeter=0;" edge="1" parent="1" source="6zx5J-GpkoQrdZdaRuo2-398" target="6zx5J-GpkoQrdZdaRuo2-417">
          <mxGeometry width="160" relative="1" as="geometry">
            <mxPoint x="405" y="8620" as="sourcePoint" />
            <mxPoint x="565" y="8620" as="targetPoint" />
          </mxGeometry>
        </mxCell>
        <mxCell id="6zx5J-GpkoQrdZdaRuo2-420" style="rounded=0;orthogonalLoop=1;jettySize=auto;html=1;fillColor=#f8cecc;strokeColor=#b85450;" edge="1" parent="1" source="6zx5J-GpkoQrdZdaRuo2-398" target="6zx5J-GpkoQrdZdaRuo2-418">
          <mxGeometry relative="1" as="geometry">
            <mxPoint x="207.5" y="9025" as="sourcePoint" />
          </mxGeometry>
        </mxCell>
        <mxCell id="6zx5J-GpkoQrdZdaRuo2-421" value="show()" style="text;html=1;align=center;verticalAlign=middle;resizable=0;points=[];autosize=1;strokeColor=none;fillColor=none;" vertex="1" parent="1">
          <mxGeometry x="482.5" y="8624" width="60" height="30" as="geometry" />
        </mxCell>
        <mxCell id="6zx5J-GpkoQrdZdaRuo2-422" style="rounded=0;orthogonalLoop=1;jettySize=auto;html=1;exitX=1;exitY=1;exitDx=0;exitDy=-5;exitPerimeter=0;entryX=0;entryY=0;entryDx=0;entryDy=5;entryPerimeter=0;" edge="1" parent="1" source="6zx5J-GpkoQrdZdaRuo2-398" target="6zx5J-GpkoQrdZdaRuo2-400">
          <mxGeometry relative="1" as="geometry" />
        </mxCell>
        <mxCell id="6zx5J-GpkoQrdZdaRuo2-423" value="show()" style="text;html=1;align=center;verticalAlign=middle;resizable=0;points=[];autosize=1;strokeColor=none;fillColor=none;" vertex="1" parent="1">
          <mxGeometry x="462.5" y="8758" width="60" height="30" as="geometry" />
        </mxCell>
        <mxCell id="6zx5J-GpkoQrdZdaRuo2-424" value="9" style="text;html=1;align=center;verticalAlign=middle;resizable=0;points=[];autosize=1;strokeColor=none;fillColor=none;" vertex="1" parent="1">
          <mxGeometry x="47.5" y="6540" width="30" height="30" as="geometry" />
        </mxCell>
        <mxCell id="6zx5J-GpkoQrdZdaRuo2-425" value="Local business owner" style="text;html=1;align=center;verticalAlign=middle;resizable=0;points=[];autosize=1;strokeColor=none;fillColor=none;" vertex="1" parent="1">
          <mxGeometry x="50" y="6522" width="140" height="30" as="geometry" />
        </mxCell>
        <mxCell id="6zx5J-GpkoQrdZdaRuo2-432" value="return selection" style="text;html=1;align=center;verticalAlign=middle;resizable=0;points=[];autosize=1;strokeColor=none;fillColor=none;" vertex="1" parent="1">
          <mxGeometry x="455" y="6962" width="110" height="30" as="geometry" />
        </mxCell>
        <mxCell id="6zx5J-GpkoQrdZdaRuo2-429" value="show()" style="text;html=1;align=center;verticalAlign=middle;resizable=0;points=[];autosize=1;strokeColor=none;fillColor=none;" vertex="1" parent="1">
          <mxGeometry x="617.5" y="7002" width="60" height="30" as="geometry" />
        </mxCell>
        <mxCell id="6zx5J-GpkoQrdZdaRuo2-428" style="rounded=0;orthogonalLoop=1;jettySize=auto;html=1;" edge="1" parent="1" target="6zx5J-GpkoQrdZdaRuo2-426">
          <mxGeometry relative="1" as="geometry">
            <mxPoint x="438.75" y="7032" as="sourcePoint" />
            <mxPoint x="712.5" y="7032" as="targetPoint" />
          </mxGeometry>
        </mxCell>
        <mxCell id="6zx5J-GpkoQrdZdaRuo2-427" style="rounded=0;orthogonalLoop=1;jettySize=auto;html=1;dashed=1;endArrow=open;endFill=0;exitX=0;exitY=1;exitDx=0;exitDy=-5;exitPerimeter=0;" edge="1" parent="1" source="6zx5J-GpkoQrdZdaRuo2-110" target="6zx5J-GpkoQrdZdaRuo2-107">
          <mxGeometry relative="1" as="geometry">
            <mxPoint x="590.5" y="6962" as="sourcePoint" />
            <mxPoint x="435.5" y="6962" as="targetPoint" />
          </mxGeometry>
        </mxCell>
        <mxCell id="6zx5J-GpkoQrdZdaRuo2-433" style="rounded=0;orthogonalLoop=1;jettySize=auto;html=1;" edge="1" parent="1">
          <mxGeometry relative="1" as="geometry">
            <mxPoint x="102.04761904761926" y="6952" as="sourcePoint" />
            <mxPoint x="592.5" y="6952" as="targetPoint" />
          </mxGeometry>
        </mxCell>
        <mxCell id="6zx5J-GpkoQrdZdaRuo2-434" value="Inventoryclicked()" style="text;html=1;align=center;verticalAlign=middle;resizable=0;points=[];autosize=1;strokeColor=none;fillColor=none;" vertex="1" parent="1">
          <mxGeometry x="252.5" y="6930" width="120" height="30" as="geometry" />
        </mxCell>
        <mxCell id="6zx5J-GpkoQrdZdaRuo2-435" style="rounded=0;orthogonalLoop=1;jettySize=auto;html=1;" edge="1" parent="1" target="6zx5J-GpkoQrdZdaRuo2-426">
          <mxGeometry relative="1" as="geometry">
            <mxPoint x="104.77761904761927" y="7052" as="sourcePoint" />
            <mxPoint x="770.23" y="7052" as="targetPoint" />
          </mxGeometry>
        </mxCell>
        <mxCell id="6zx5J-GpkoQrdZdaRuo2-436" value="AddItemClicked()" style="text;html=1;align=center;verticalAlign=middle;resizable=0;points=[];autosize=1;strokeColor=none;fillColor=none;" vertex="1" parent="1">
          <mxGeometry x="232.5" y="7030" width="120" height="30" as="geometry" />
        </mxCell>
        <mxCell id="6zx5J-GpkoQrdZdaRuo2-437" style="rounded=0;orthogonalLoop=1;jettySize=auto;html=1;exitX=0;exitY=1;exitDx=0;exitDy=-5;exitPerimeter=0;dashed=1;endArrow=open;endFill=0;" edge="1" parent="1" source="6zx5J-GpkoQrdZdaRuo2-426" target="6zx5J-GpkoQrdZdaRuo2-108">
          <mxGeometry relative="1" as="geometry" />
        </mxCell>
        <mxCell id="6zx5J-GpkoQrdZdaRuo2-438" value="return selection" style="text;html=1;align=center;verticalAlign=middle;resizable=0;points=[];autosize=1;strokeColor=none;fillColor=none;" vertex="1" parent="1">
          <mxGeometry x="525" y="7072" width="110" height="30" as="geometry" />
        </mxCell>
        <mxCell id="6zx5J-GpkoQrdZdaRuo2-439" value="Alt" style="shape=umlFrame;whiteSpace=wrap;html=1;pointerEvents=0;fillColor=#f8cecc;strokeColor=#b85450;" vertex="1" parent="1">
          <mxGeometry x="65" y="7352" width="962.5" height="202" as="geometry" />
        </mxCell>
        <mxCell id="6zx5J-GpkoQrdZdaRuo2-441" style="rounded=0;orthogonalLoop=1;jettySize=auto;html=1;entryX=0;entryY=0;entryDx=0;entryDy=5;entryPerimeter=0;" edge="1" parent="1" source="6zx5J-GpkoQrdZdaRuo2-108" target="6zx5J-GpkoQrdZdaRuo2-440">
          <mxGeometry relative="1" as="geometry">
            <mxPoint x="440" y="7112" as="sourcePoint" />
            <mxPoint x="595" y="7112" as="targetPoint" />
          </mxGeometry>
        </mxCell>
        <mxCell id="6zx5J-GpkoQrdZdaRuo2-442" value="NotifiesOwner()" style="text;html=1;align=center;verticalAlign=middle;resizable=0;points=[];autosize=1;strokeColor=none;fillColor=none;" vertex="1" parent="1">
          <mxGeometry x="620" y="7102" width="110" height="30" as="geometry" />
        </mxCell>
        <mxCell id="6zx5J-GpkoQrdZdaRuo2-443" style="rounded=0;orthogonalLoop=1;jettySize=auto;html=1;entryX=0;entryY=0;entryDx=0;entryDy=5;entryPerimeter=0;" edge="1" parent="1" source="6zx5J-GpkoQrdZdaRuo2-108" target="6zx5J-GpkoQrdZdaRuo2-445">
          <mxGeometry relative="1" as="geometry">
            <mxPoint x="438.75" y="7182" as="sourcePoint" />
            <mxPoint x="767.5" y="7182" as="targetPoint" />
          </mxGeometry>
        </mxCell>
        <mxCell id="6zx5J-GpkoQrdZdaRuo2-444" value="Verify Pickup screen" style="shape=umlLifeline;perimeter=lifelinePerimeter;whiteSpace=wrap;html=1;container=1;dropTarget=0;collapsible=0;recursiveResize=0;outlineConnect=0;portConstraint=eastwest;newEdgeStyle={&quot;curved&quot;:0,&quot;rounded&quot;:0};" vertex="1" parent="1">
          <mxGeometry x="805" y="6562" width="100" height="1020" as="geometry" />
        </mxCell>
        <mxCell id="6zx5J-GpkoQrdZdaRuo2-445" value="" style="html=1;points=[[0,0,0,0,5],[0,1,0,0,-5],[1,0,0,0,5],[1,1,0,0,-5]];perimeter=orthogonalPerimeter;outlineConnect=0;targetShapes=umlLifeline;portConstraint=eastwest;newEdgeStyle={&quot;curved&quot;:0,&quot;rounded&quot;:0};" vertex="1" parent="6zx5J-GpkoQrdZdaRuo2-444">
          <mxGeometry x="45.5" y="610" width="10" height="290" as="geometry" />
        </mxCell>
        <mxCell id="6zx5J-GpkoQrdZdaRuo2-446" value="show()" style="text;html=1;align=center;verticalAlign=middle;resizable=0;points=[];autosize=1;strokeColor=none;fillColor=none;" vertex="1" parent="1">
          <mxGeometry x="612.5" y="7150" width="60" height="30" as="geometry" />
        </mxCell>
        <mxCell id="6zx5J-GpkoQrdZdaRuo2-447" style="rounded=0;orthogonalLoop=1;jettySize=auto;html=1;" edge="1" parent="1">
          <mxGeometry relative="1" as="geometry">
            <mxPoint x="102.49761904761927" y="7202" as="sourcePoint" />
            <mxPoint x="850.95" y="7202" as="targetPoint" />
          </mxGeometry>
        </mxCell>
        <mxCell id="6zx5J-GpkoQrdZdaRuo2-448" value="VerifyPickupclicked()" style="text;html=1;align=center;verticalAlign=middle;resizable=0;points=[];autosize=1;strokeColor=none;fillColor=none;" vertex="1" parent="1">
          <mxGeometry x="177.5" y="7170" width="130" height="30" as="geometry" />
        </mxCell>
        <mxCell id="6zx5J-GpkoQrdZdaRuo2-449" style="rounded=0;orthogonalLoop=1;jettySize=auto;html=1;dashed=1;endArrow=open;endFill=0;" edge="1" parent="1" source="6zx5J-GpkoQrdZdaRuo2-445" target="6zx5J-GpkoQrdZdaRuo2-108">
          <mxGeometry relative="1" as="geometry">
            <Array as="points">
              <mxPoint x="642.5" y="7232" />
            </Array>
          </mxGeometry>
        </mxCell>
        <mxCell id="6zx5J-GpkoQrdZdaRuo2-450" value="return result&amp;nbsp;" style="text;html=1;align=center;verticalAlign=middle;resizable=0;points=[];autosize=1;strokeColor=none;fillColor=none;" vertex="1" parent="1">
          <mxGeometry x="617.5" y="7210" width="90" height="30" as="geometry" />
        </mxCell>
        <mxCell id="6zx5J-GpkoQrdZdaRuo2-451" value="Error popup message screen" style="shape=umlLifeline;perimeter=lifelinePerimeter;whiteSpace=wrap;html=1;container=1;dropTarget=0;collapsible=0;recursiveResize=0;outlineConnect=0;portConstraint=eastwest;newEdgeStyle={&quot;curved&quot;:0,&quot;rounded&quot;:0};" vertex="1" parent="1">
          <mxGeometry x="652.5" y="7261.05" width="70" height="70" as="geometry" />
        </mxCell>
        <mxCell id="6zx5J-GpkoQrdZdaRuo2-452" value="" style="html=1;points=[[0,0,0,0,5],[0,1,0,0,-5],[1,0,0,0,5],[1,1,0,0,-5]];perimeter=orthogonalPerimeter;outlineConnect=0;targetShapes=umlLifeline;portConstraint=eastwest;newEdgeStyle={&quot;curved&quot;:0,&quot;rounded&quot;:0};" vertex="1" parent="6zx5J-GpkoQrdZdaRuo2-451">
          <mxGeometry x="30" y="50" width="10" height="20" as="geometry" />
        </mxCell>
        <mxCell id="6zx5J-GpkoQrdZdaRuo2-453" value="&quot;create&quot;" style="endArrow=open;endSize=12;dashed=1;html=1;rounded=0;entryX=0;entryY=0.229;entryDx=0;entryDy=0;entryPerimeter=0;" edge="1" parent="1" target="6zx5J-GpkoQrdZdaRuo2-451">
          <mxGeometry width="160" relative="1" as="geometry">
            <mxPoint x="437.5" y="7277.05" as="sourcePoint" />
            <mxPoint x="605" y="7277.05" as="targetPoint" />
          </mxGeometry>
        </mxCell>
        <mxCell id="6zx5J-GpkoQrdZdaRuo2-454" style="rounded=0;orthogonalLoop=1;jettySize=auto;html=1;" edge="1" parent="1" target="6zx5J-GpkoQrdZdaRuo2-452">
          <mxGeometry relative="1" as="geometry">
            <mxPoint x="437.5" y="7331.05" as="sourcePoint" />
          </mxGeometry>
        </mxCell>
        <mxCell id="6zx5J-GpkoQrdZdaRuo2-455" value="show()" style="text;html=1;align=center;verticalAlign=middle;resizable=0;points=[];autosize=1;" vertex="1" parent="1">
          <mxGeometry x="522.5" y="7301.05" width="60" height="30" as="geometry" />
        </mxCell>
        <mxCell id="6zx5J-GpkoQrdZdaRuo2-456" style="rounded=0;orthogonalLoop=1;jettySize=auto;html=1;fillColor=#f8cecc;strokeColor=#b85450;" edge="1" parent="1">
          <mxGeometry relative="1" as="geometry">
            <mxPoint x="102.49761904761927" y="7422" as="sourcePoint" />
            <mxPoint x="850.95" y="7422" as="targetPoint" />
          </mxGeometry>
        </mxCell>
        <mxCell id="6zx5J-GpkoQrdZdaRuo2-457" value="no VerifyPickupclicked()&amp;nbsp;" style="text;html=1;align=center;verticalAlign=middle;resizable=0;points=[];autosize=1;strokeColor=none;fillColor=none;" vertex="1" parent="1">
          <mxGeometry x="210" y="7402" width="150" height="30" as="geometry" />
        </mxCell>
        <mxCell id="6zx5J-GpkoQrdZdaRuo2-458" style="rounded=0;orthogonalLoop=1;jettySize=auto;html=1;dashed=1;endArrow=open;endFill=0;fillColor=#f8cecc;strokeColor=#b85450;" edge="1" parent="1" source="6zx5J-GpkoQrdZdaRuo2-445" target="6zx5J-GpkoQrdZdaRuo2-108">
          <mxGeometry relative="1" as="geometry">
            <Array as="points">
              <mxPoint x="642.5" y="7452" />
            </Array>
          </mxGeometry>
        </mxCell>
        <mxCell id="6zx5J-GpkoQrdZdaRuo2-459" value="return selection&amp;nbsp;" style="text;html=1;align=center;verticalAlign=middle;resizable=0;points=[];autosize=1;strokeColor=none;fillColor=none;" vertex="1" parent="1">
          <mxGeometry x="592.5" y="7428" width="110" height="30" as="geometry" />
        </mxCell>
        <mxCell id="6zx5J-GpkoQrdZdaRuo2-465" value="4" style="text;html=1;align=center;verticalAlign=middle;resizable=0;points=[];autosize=1;strokeColor=none;fillColor=none;" vertex="1" parent="1">
          <mxGeometry x="15" y="2918" width="30" height="30" as="geometry" />
        </mxCell>
        <mxCell id="6zx5J-GpkoQrdZdaRuo2-466" value="Lost Item Owner" style="text;html=1;align=center;verticalAlign=middle;resizable=0;points=[];autosize=1;strokeColor=none;fillColor=none;" vertex="1" parent="1">
          <mxGeometry x="15" y="2938" width="110" height="30" as="geometry" />
        </mxCell>
        <mxCell id="6zx5J-GpkoQrdZdaRuo2-469" style="rounded=0;orthogonalLoop=1;jettySize=auto;html=1;" edge="1" parent="1">
          <mxGeometry relative="1" as="geometry">
            <mxPoint x="320" y="3360" as="sourcePoint" />
            <mxPoint x="435" y="3360" as="targetPoint" />
          </mxGeometry>
        </mxCell>
        <mxCell id="6zx5J-GpkoQrdZdaRuo2-470" value="addNotification()" style="text;html=1;align=center;verticalAlign=middle;resizable=0;points=[];autosize=1;strokeColor=none;fillColor=none;" vertex="1" parent="1">
          <mxGeometry x="315" y="3338" width="110" height="30" as="geometry" />
        </mxCell>
        <mxCell id="6zx5J-GpkoQrdZdaRuo2-472" value="Active chat menu" style="shape=umlLifeline;perimeter=lifelinePerimeter;whiteSpace=wrap;html=1;container=1;dropTarget=0;collapsible=0;recursiveResize=0;outlineConnect=0;portConstraint=eastwest;newEdgeStyle={&quot;curved&quot;:0,&quot;rounded&quot;:0};" vertex="1" parent="1">
          <mxGeometry x="508" y="2970" width="100" height="1550" as="geometry" />
        </mxCell>
        <mxCell id="6zx5J-GpkoQrdZdaRuo2-477" value="" style="html=1;points=[[0,0,0,0,5],[0,1,0,0,-5],[1,0,0,0,5],[1,1,0,0,-5]];perimeter=orthogonalPerimeter;outlineConnect=0;targetShapes=umlLifeline;portConstraint=eastwest;newEdgeStyle={&quot;curved&quot;:0,&quot;rounded&quot;:0};" vertex="1" parent="6zx5J-GpkoQrdZdaRuo2-472">
          <mxGeometry x="44.5" y="498" width="10" height="62" as="geometry" />
        </mxCell>
        <mxCell id="6zx5J-GpkoQrdZdaRuo2-533" value="" style="html=1;points=[[0,0,0,0,5],[0,1,0,0,-5],[1,0,0,0,5],[1,1,0,0,-5]];perimeter=orthogonalPerimeter;outlineConnect=0;targetShapes=umlLifeline;portConstraint=eastwest;newEdgeStyle={&quot;curved&quot;:0,&quot;rounded&quot;:0};fillColor=#f8cecc;strokeColor=#b85450;" vertex="1" parent="6zx5J-GpkoQrdZdaRuo2-472">
          <mxGeometry x="45" y="1110" width="10" height="62" as="geometry" />
        </mxCell>
        <mxCell id="6zx5J-GpkoQrdZdaRuo2-473" style="rounded=0;orthogonalLoop=1;jettySize=auto;html=1;" edge="1" parent="1">
          <mxGeometry relative="1" as="geometry">
            <mxPoint x="50.000909090909005" y="3390" as="sourcePoint" />
            <mxPoint x="437.91" y="3390" as="targetPoint" />
          </mxGeometry>
        </mxCell>
        <mxCell id="6zx5J-GpkoQrdZdaRuo2-474" value="Notificationsclicked()" style="text;html=1;align=center;verticalAlign=middle;resizable=0;points=[];autosize=1;strokeColor=none;fillColor=none;" vertex="1" parent="1">
          <mxGeometry x="150" y="3368" width="130" height="30" as="geometry" />
        </mxCell>
        <mxCell id="6zx5J-GpkoQrdZdaRuo2-475" style="rounded=0;orthogonalLoop=1;jettySize=auto;html=1;dashed=1;endArrow=open;endFill=0;" edge="1" parent="1" source="6zx5J-GpkoQrdZdaRuo2-338" target="6zx5J-GpkoQrdZdaRuo2-336">
          <mxGeometry relative="1" as="geometry">
            <Array as="points">
              <mxPoint x="380" y="3420" />
            </Array>
          </mxGeometry>
        </mxCell>
        <mxCell id="6zx5J-GpkoQrdZdaRuo2-476" value="return selection" style="text;html=1;align=center;verticalAlign=middle;resizable=0;points=[];autosize=1;strokeColor=none;fillColor=none;" vertex="1" parent="1">
          <mxGeometry x="325" y="3398" width="110" height="30" as="geometry" />
        </mxCell>
        <mxCell id="6zx5J-GpkoQrdZdaRuo2-478" style="rounded=0;orthogonalLoop=1;jettySize=auto;html=1;" edge="1" parent="1" source="6zx5J-GpkoQrdZdaRuo2-336" target="6zx5J-GpkoQrdZdaRuo2-477">
          <mxGeometry relative="1" as="geometry" />
        </mxCell>
        <mxCell id="6zx5J-GpkoQrdZdaRuo2-479" value="show()" style="text;html=1;align=center;verticalAlign=middle;resizable=0;points=[];autosize=1;strokeColor=none;fillColor=none;" vertex="1" parent="1">
          <mxGeometry x="460" y="3490" width="60" height="30" as="geometry" />
        </mxCell>
        <mxCell id="6zx5J-GpkoQrdZdaRuo2-480" style="rounded=0;orthogonalLoop=1;jettySize=auto;html=1;" edge="1" parent="1" target="6zx5J-GpkoQrdZdaRuo2-487">
          <mxGeometry relative="1" as="geometry">
            <mxPoint x="50.000909090909005" y="3500" as="sourcePoint" />
            <mxPoint x="555.41" y="3500" as="targetPoint" />
          </mxGeometry>
        </mxCell>
        <mxCell id="6zx5J-GpkoQrdZdaRuo2-481" value="DropoffPointsChoose()" style="text;html=1;align=center;verticalAlign=middle;resizable=0;points=[];autosize=1;strokeColor=none;fillColor=none;" vertex="1" parent="1">
          <mxGeometry x="127.5" y="3470" width="150" height="30" as="geometry" />
        </mxCell>
        <mxCell id="6zx5J-GpkoQrdZdaRuo2-482" style="rounded=0;orthogonalLoop=1;jettySize=auto;html=1;dashed=1;endArrow=open;endFill=0;" edge="1" parent="1" source="6zx5J-GpkoQrdZdaRuo2-487" target="6zx5J-GpkoQrdZdaRuo2-335">
          <mxGeometry relative="1" as="geometry">
            <mxPoint x="530" y="3522" as="sourcePoint" />
            <mxPoint x="415" y="3522" as="targetPoint" />
            <Array as="points">
              <mxPoint x="475" y="3522" />
            </Array>
          </mxGeometry>
        </mxCell>
        <mxCell id="6zx5J-GpkoQrdZdaRuo2-483" value="return selection" style="text;html=1;align=center;verticalAlign=middle;resizable=0;points=[];autosize=1;strokeColor=none;fillColor=none;" vertex="1" parent="1">
          <mxGeometry x="365" y="3510" width="110" height="30" as="geometry" />
        </mxCell>
        <mxCell id="6zx5J-GpkoQrdZdaRuo2-484" style="rounded=0;orthogonalLoop=1;jettySize=auto;html=1;" edge="1" parent="1" target="6zx5J-GpkoQrdZdaRuo2-491">
          <mxGeometry relative="1" as="geometry">
            <mxPoint x="322" y="3550" as="sourcePoint" />
            <mxPoint x="550" y="3550" as="targetPoint" />
          </mxGeometry>
        </mxCell>
        <mxCell id="6zx5J-GpkoQrdZdaRuo2-485" value="show()" style="text;html=1;align=center;verticalAlign=middle;resizable=0;points=[];autosize=1;strokeColor=none;fillColor=none;" vertex="1" parent="1">
          <mxGeometry x="377.5" y="3530" width="60" height="30" as="geometry" />
        </mxCell>
        <mxCell id="6zx5J-GpkoQrdZdaRuo2-486" value="Dropoff point List" style="shape=umlLifeline;perimeter=lifelinePerimeter;whiteSpace=wrap;html=1;container=1;dropTarget=0;collapsible=0;recursiveResize=0;outlineConnect=0;portConstraint=eastwest;newEdgeStyle={&quot;curved&quot;:0,&quot;rounded&quot;:0};" vertex="1" parent="1">
          <mxGeometry x="622.5" y="2970" width="100" height="1550" as="geometry" />
        </mxCell>
        <mxCell id="6zx5J-GpkoQrdZdaRuo2-487" value="" style="html=1;points=[[0,0,0,0,5],[0,1,0,0,-5],[1,0,0,0,5],[1,1,0,0,-5]];perimeter=orthogonalPerimeter;outlineConnect=0;targetShapes=umlLifeline;portConstraint=eastwest;newEdgeStyle={&quot;curved&quot;:0,&quot;rounded&quot;:0};" vertex="1" parent="6zx5J-GpkoQrdZdaRuo2-486">
          <mxGeometry x="44.5" y="498" width="10" height="62" as="geometry" />
        </mxCell>
        <mxCell id="6zx5J-GpkoQrdZdaRuo2-488" style="rounded=0;orthogonalLoop=1;jettySize=auto;html=1;entryX=0;entryY=0;entryDx=0;entryDy=5;entryPerimeter=0;" edge="1" parent="1">
          <mxGeometry relative="1" as="geometry">
            <mxPoint x="322.5" y="3484.55" as="sourcePoint" />
            <mxPoint x="669.5" y="3484.55" as="targetPoint" />
          </mxGeometry>
        </mxCell>
        <mxCell id="6zx5J-GpkoQrdZdaRuo2-489" value="show()" style="text;html=1;align=center;verticalAlign=middle;resizable=0;points=[];autosize=1;strokeColor=none;fillColor=none;" vertex="1" parent="1">
          <mxGeometry x="452.5" y="3460" width="60" height="30" as="geometry" />
        </mxCell>
        <mxCell id="6zx5J-GpkoQrdZdaRuo2-490" value="Meeting form screen" style="shape=umlLifeline;perimeter=lifelinePerimeter;whiteSpace=wrap;html=1;container=1;dropTarget=0;collapsible=0;recursiveResize=0;outlineConnect=0;portConstraint=eastwest;newEdgeStyle={&quot;curved&quot;:0,&quot;rounded&quot;:0};" vertex="1" parent="1">
          <mxGeometry x="730" y="2968" width="100" height="1552" as="geometry" />
        </mxCell>
        <mxCell id="6zx5J-GpkoQrdZdaRuo2-491" value="" style="html=1;points=[[0,0,0,0,5],[0,1,0,0,-5],[1,0,0,0,5],[1,1,0,0,-5]];perimeter=orthogonalPerimeter;outlineConnect=0;targetShapes=umlLifeline;portConstraint=eastwest;newEdgeStyle={&quot;curved&quot;:0,&quot;rounded&quot;:0};" vertex="1" parent="6zx5J-GpkoQrdZdaRuo2-490">
          <mxGeometry x="45" y="580" width="10" height="62" as="geometry" />
        </mxCell>
        <mxCell id="6zx5J-GpkoQrdZdaRuo2-494" style="rounded=0;orthogonalLoop=1;jettySize=auto;html=1;" edge="1" parent="1" target="6zx5J-GpkoQrdZdaRuo2-340">
          <mxGeometry relative="1" as="geometry">
            <mxPoint x="787.5" y="3599.55" as="sourcePoint" />
            <mxPoint x="892.5" y="3599.55" as="targetPoint" />
          </mxGeometry>
        </mxCell>
        <mxCell id="6zx5J-GpkoQrdZdaRuo2-495" value="Update(), Notify()" style="text;html=1;align=center;verticalAlign=middle;resizable=0;points=[];autosize=1;strokeColor=none;fillColor=none;" vertex="1" parent="1">
          <mxGeometry x="780" y="3570" width="120" height="30" as="geometry" />
        </mxCell>
        <mxCell id="6zx5J-GpkoQrdZdaRuo2-496" style="rounded=0;orthogonalLoop=1;jettySize=auto;html=1;" edge="1" parent="1">
          <mxGeometry relative="1" as="geometry">
            <mxPoint x="47.09090909090901" y="3564.55" as="sourcePoint" />
            <mxPoint x="775" y="3564.55" as="targetPoint" />
          </mxGeometry>
        </mxCell>
        <mxCell id="6zx5J-GpkoQrdZdaRuo2-497" value="Fills form" style="text;html=1;align=center;verticalAlign=middle;resizable=0;points=[];autosize=1;strokeColor=none;fillColor=none;" vertex="1" parent="1">
          <mxGeometry x="87.5" y="3540" width="70" height="30" as="geometry" />
        </mxCell>
        <mxCell id="6zx5J-GpkoQrdZdaRuo2-498" style="rounded=0;orthogonalLoop=1;jettySize=auto;html=1;dashed=1;endArrow=open;endFill=0;entryX=1.282;entryY=0.935;entryDx=0;entryDy=0;entryPerimeter=0;" edge="1" parent="1">
          <mxGeometry relative="1" as="geometry">
            <mxPoint x="775" y="3584.5499999999997" as="sourcePoint" />
            <mxPoint x="322.81999999999994" y="3584.5499999999997" as="targetPoint" />
          </mxGeometry>
        </mxCell>
        <mxCell id="6zx5J-GpkoQrdZdaRuo2-499" value="&lt;span style=&quot;color: rgb(0, 0, 0); font-family: Helvetica; font-size: 12px; font-style: normal; font-variant-ligatures: normal; font-variant-caps: normal; font-weight: 400; letter-spacing: normal; orphans: 2; text-align: center; text-indent: 0px; text-transform: none; widows: 2; word-spacing: 0px; -webkit-text-stroke-width: 0px; white-space: nowrap; text-decoration-thickness: initial; text-decoration-style: initial; text-decoration-color: initial; float: none; display: inline !important;&quot;&gt;return results&lt;/span&gt;" style="text;whiteSpace=wrap;html=1;" vertex="1" parent="1">
          <mxGeometry x="560" y="3580" width="100" height="40" as="geometry" />
        </mxCell>
        <mxCell id="6zx5J-GpkoQrdZdaRuo2-500" value="Popup message Item ready for pickup" style="shape=umlLifeline;perimeter=lifelinePerimeter;whiteSpace=wrap;html=1;container=1;dropTarget=0;collapsible=0;recursiveResize=0;outlineConnect=0;portConstraint=eastwest;newEdgeStyle={&quot;curved&quot;:0,&quot;rounded&quot;:0};" vertex="1" parent="1">
          <mxGeometry x="447.5" y="3650" width="110" height="70" as="geometry" />
        </mxCell>
        <mxCell id="6zx5J-GpkoQrdZdaRuo2-501" value="" style="html=1;points=[[0,0,0,0,5],[0,1,0,0,-5],[1,0,0,0,5],[1,1,0,0,-5]];perimeter=orthogonalPerimeter;outlineConnect=0;targetShapes=umlLifeline;portConstraint=eastwest;newEdgeStyle={&quot;curved&quot;:0,&quot;rounded&quot;:0};" vertex="1" parent="6zx5J-GpkoQrdZdaRuo2-500">
          <mxGeometry x="47.5" y="45" width="10" height="20" as="geometry" />
        </mxCell>
        <mxCell id="6zx5J-GpkoQrdZdaRuo2-502" value="&quot;create&quot;" style="endArrow=open;endSize=12;dashed=1;html=1;rounded=0;" edge="1" parent="1" target="6zx5J-GpkoQrdZdaRuo2-500">
          <mxGeometry width="160" relative="1" as="geometry">
            <mxPoint x="321.25" y="3690" as="sourcePoint" />
            <mxPoint x="426.25" y="3690" as="targetPoint" />
          </mxGeometry>
        </mxCell>
        <mxCell id="6zx5J-GpkoQrdZdaRuo2-504" value="show()" style="text;html=1;align=center;verticalAlign=middle;resizable=0;points=[];autosize=1;strokeColor=none;fillColor=none;" vertex="1" parent="1">
          <mxGeometry x="365" y="3700" width="60" height="30" as="geometry" />
        </mxCell>
        <mxCell id="6zx5J-GpkoQrdZdaRuo2-505" style="rounded=0;orthogonalLoop=1;jettySize=auto;html=1;" edge="1" parent="1" target="6zx5J-GpkoQrdZdaRuo2-507">
          <mxGeometry relative="1" as="geometry">
            <mxPoint x="318" y="3760" as="sourcePoint" />
            <mxPoint x="492.5" y="3760" as="targetPoint" />
          </mxGeometry>
        </mxCell>
        <mxCell id="6zx5J-GpkoQrdZdaRuo2-506" value="show()" style="text;html=1;align=center;verticalAlign=middle;resizable=0;points=[];autosize=1;strokeColor=none;fillColor=none;" vertex="1" parent="1">
          <mxGeometry x="362.5" y="3750" width="60" height="30" as="geometry" />
        </mxCell>
        <mxCell id="6zx5J-GpkoQrdZdaRuo2-507" value="Verify pickup screen" style="shape=umlLifeline;perimeter=lifelinePerimeter;whiteSpace=wrap;html=1;container=1;dropTarget=0;collapsible=0;recursiveResize=0;outlineConnect=0;portConstraint=eastwest;newEdgeStyle={&quot;curved&quot;:0,&quot;rounded&quot;:0};" vertex="1" parent="1">
          <mxGeometry x="670" y="3680" width="100" height="840" as="geometry" />
        </mxCell>
        <mxCell id="6zx5J-GpkoQrdZdaRuo2-508" value="" style="html=1;points=[[0,0,0,0,5],[0,1,0,0,-5],[1,0,0,0,5],[1,1,0,0,-5]];perimeter=orthogonalPerimeter;outlineConnect=0;targetShapes=umlLifeline;portConstraint=eastwest;newEdgeStyle={&quot;curved&quot;:0,&quot;rounded&quot;:0};" vertex="1" parent="6zx5J-GpkoQrdZdaRuo2-507">
          <mxGeometry x="47.5" y="60" width="10" height="100" as="geometry" />
        </mxCell>
        <mxCell id="6zx5J-GpkoQrdZdaRuo2-543" value="" style="html=1;points=[[0,0,0,0,5],[0,1,0,0,-5],[1,0,0,0,5],[1,1,0,0,-5]];perimeter=orthogonalPerimeter;outlineConnect=0;targetShapes=umlLifeline;portConstraint=eastwest;newEdgeStyle={&quot;curved&quot;:0,&quot;rounded&quot;:0};fillColor=#f8cecc;strokeColor=#b85450;" vertex="1" parent="6zx5J-GpkoQrdZdaRuo2-507">
          <mxGeometry x="47.5" y="540" width="10" height="20" as="geometry" />
        </mxCell>
        <mxCell id="6zx5J-GpkoQrdZdaRuo2-553" value="" style="html=1;points=[[0,0,0,0,5],[0,1,0,0,-5],[1,0,0,0,5],[1,1,0,0,-5]];perimeter=orthogonalPerimeter;outlineConnect=0;targetShapes=umlLifeline;portConstraint=eastwest;newEdgeStyle={&quot;curved&quot;:0,&quot;rounded&quot;:0};fillColor=#f8cecc;strokeColor=#b85450;" vertex="1" parent="6zx5J-GpkoQrdZdaRuo2-507">
          <mxGeometry x="45" y="610" width="10" height="40" as="geometry" />
        </mxCell>
        <mxCell id="6zx5J-GpkoQrdZdaRuo2-509" style="rounded=0;orthogonalLoop=1;jettySize=auto;html=1;" edge="1" parent="1">
          <mxGeometry relative="1" as="geometry">
            <mxPoint x="47.500909090909005" y="3790" as="sourcePoint" />
            <mxPoint x="717.91" y="3790" as="targetPoint" />
          </mxGeometry>
        </mxCell>
        <mxCell id="6zx5J-GpkoQrdZdaRuo2-510" value="VerifyPickup()" style="text;html=1;align=center;verticalAlign=middle;resizable=0;points=[];autosize=1;strokeColor=none;fillColor=none;" vertex="1" parent="1">
          <mxGeometry x="152.5" y="3770" width="100" height="30" as="geometry" />
        </mxCell>
        <mxCell id="6zx5J-GpkoQrdZdaRuo2-514" style="rounded=0;orthogonalLoop=1;jettySize=auto;html=1;dashed=1;endArrow=open;endFill=0;" edge="1" parent="1" source="6zx5J-GpkoQrdZdaRuo2-508" target="6zx5J-GpkoQrdZdaRuo2-336">
          <mxGeometry relative="1" as="geometry">
            <Array as="points">
              <mxPoint x="520" y="3830" />
            </Array>
          </mxGeometry>
        </mxCell>
        <mxCell id="6zx5J-GpkoQrdZdaRuo2-515" value="return selection" style="text;html=1;align=center;verticalAlign=middle;resizable=0;points=[];autosize=1;strokeColor=none;fillColor=none;" vertex="1" parent="1">
          <mxGeometry x="435" y="3808" width="110" height="30" as="geometry" />
        </mxCell>
        <mxCell id="6zx5J-GpkoQrdZdaRuo2-520" style="rounded=0;orthogonalLoop=1;jettySize=auto;html=1;entryX=0;entryY=1;entryDx=0;entryDy=-5;entryPerimeter=0;" edge="1" parent="1">
          <mxGeometry relative="1" as="geometry">
            <mxPoint x="330.5" y="3720" as="sourcePoint" />
            <mxPoint x="505" y="3720" as="targetPoint" />
          </mxGeometry>
        </mxCell>
        <mxCell id="6zx5J-GpkoQrdZdaRuo2-521" style="rounded=0;orthogonalLoop=1;jettySize=auto;html=1;" edge="1" parent="1" target="6zx5J-GpkoQrdZdaRuo2-340">
          <mxGeometry relative="1" as="geometry">
            <mxPoint x="320.5" y="3920" as="sourcePoint" />
            <mxPoint x="495" y="3920" as="targetPoint" />
          </mxGeometry>
        </mxCell>
        <mxCell id="6zx5J-GpkoQrdZdaRuo2-523" value="Update()" style="text;html=1;align=center;verticalAlign=middle;resizable=0;points=[];autosize=1;strokeColor=none;fillColor=none;" vertex="1" parent="1">
          <mxGeometry x="575" y="3900" width="70" height="30" as="geometry" />
        </mxCell>
        <mxCell id="6zx5J-GpkoQrdZdaRuo2-524" value="Popup message Succesful transaction" style="shape=umlLifeline;perimeter=lifelinePerimeter;whiteSpace=wrap;html=1;container=1;dropTarget=0;collapsible=0;recursiveResize=0;outlineConnect=0;portConstraint=eastwest;newEdgeStyle={&quot;curved&quot;:0,&quot;rounded&quot;:0};" vertex="1" parent="1">
          <mxGeometry x="450" y="3950" width="110" height="70" as="geometry" />
        </mxCell>
        <mxCell id="6zx5J-GpkoQrdZdaRuo2-525" value="" style="html=1;points=[[0,0,0,0,5],[0,1,0,0,-5],[1,0,0,0,5],[1,1,0,0,-5]];perimeter=orthogonalPerimeter;outlineConnect=0;targetShapes=umlLifeline;portConstraint=eastwest;newEdgeStyle={&quot;curved&quot;:0,&quot;rounded&quot;:0};" vertex="1" parent="6zx5J-GpkoQrdZdaRuo2-524">
          <mxGeometry x="47.5" y="45" width="10" height="20" as="geometry" />
        </mxCell>
        <mxCell id="6zx5J-GpkoQrdZdaRuo2-526" value="&quot;create&quot;" style="endArrow=open;endSize=12;dashed=1;html=1;rounded=0;" edge="1" parent="1" target="6zx5J-GpkoQrdZdaRuo2-524">
          <mxGeometry width="160" relative="1" as="geometry">
            <mxPoint x="323.75" y="3990" as="sourcePoint" />
            <mxPoint x="428.75" y="3990" as="targetPoint" />
          </mxGeometry>
        </mxCell>
        <mxCell id="6zx5J-GpkoQrdZdaRuo2-527" style="rounded=0;orthogonalLoop=1;jettySize=auto;html=1;entryX=0;entryY=1;entryDx=0;entryDy=-5;entryPerimeter=0;" edge="1" parent="1" target="6zx5J-GpkoQrdZdaRuo2-525">
          <mxGeometry relative="1" as="geometry">
            <mxPoint x="323" y="4010" as="sourcePoint" />
            <mxPoint x="505" y="4010" as="targetPoint" />
          </mxGeometry>
        </mxCell>
        <mxCell id="6zx5J-GpkoQrdZdaRuo2-528" value="show()" style="text;html=1;align=center;verticalAlign=middle;resizable=0;points=[];autosize=1;strokeColor=none;fillColor=none;" vertex="1" parent="1">
          <mxGeometry x="367.5" y="4000" width="60" height="30" as="geometry" />
        </mxCell>
        <mxCell id="6zx5J-GpkoQrdZdaRuo2-532" value="Alt" style="shape=umlFrame;whiteSpace=wrap;html=1;pointerEvents=0;fillColor=#f8cecc;strokeColor=#b85450;" vertex="1" parent="1">
          <mxGeometry x="27.5" y="4050" width="915" height="202" as="geometry" />
        </mxCell>
        <mxCell id="6zx5J-GpkoQrdZdaRuo2-534" style="rounded=0;orthogonalLoop=1;jettySize=auto;html=1;entryX=0;entryY=0;entryDx=0;entryDy=5;entryPerimeter=0;fillColor=#f8cecc;strokeColor=#b85450;" edge="1" parent="1">
          <mxGeometry relative="1" as="geometry">
            <mxPoint x="50" y="4100" as="sourcePoint" />
            <mxPoint x="553" y="4080" as="targetPoint" />
          </mxGeometry>
        </mxCell>
        <mxCell id="6zx5J-GpkoQrdZdaRuo2-535" value="LiveChatclicked()" style="text;html=1;align=center;verticalAlign=middle;resizable=0;points=[];autosize=1;strokeColor=none;fillColor=none;" vertex="1" parent="1">
          <mxGeometry x="152.5" y="4060" width="120" height="30" as="geometry" />
        </mxCell>
        <mxCell id="6zx5J-GpkoQrdZdaRuo2-536" value="Live chat screen" style="shape=umlLifeline;perimeter=lifelinePerimeter;whiteSpace=wrap;html=1;container=1;dropTarget=0;collapsible=0;recursiveResize=0;outlineConnect=0;portConstraint=eastwest;newEdgeStyle={&quot;curved&quot;:0,&quot;rounded&quot;:0};fillColor=#f8cecc;strokeColor=#b85450;" vertex="1" parent="1">
          <mxGeometry x="445" y="4150" width="110" height="80" as="geometry" />
        </mxCell>
        <mxCell id="6zx5J-GpkoQrdZdaRuo2-537" value="" style="html=1;points=[[0,0,0,0,5],[0,1,0,0,-5],[1,0,0,0,5],[1,1,0,0,-5]];perimeter=orthogonalPerimeter;outlineConnect=0;targetShapes=umlLifeline;portConstraint=eastwest;newEdgeStyle={&quot;curved&quot;:0,&quot;rounded&quot;:0};fillColor=#f8cecc;strokeColor=#b85450;" vertex="1" parent="6zx5J-GpkoQrdZdaRuo2-536">
          <mxGeometry x="47.5" y="45" width="10" height="35" as="geometry" />
        </mxCell>
        <mxCell id="6zx5J-GpkoQrdZdaRuo2-539" value="show()" style="text;html=1;align=center;verticalAlign=middle;resizable=0;points=[];autosize=1;strokeColor=none;fillColor=none;" vertex="1" parent="1">
          <mxGeometry x="362.5" y="4190" width="60" height="30" as="geometry" />
        </mxCell>
        <mxCell id="6zx5J-GpkoQrdZdaRuo2-540" style="rounded=0;orthogonalLoop=1;jettySize=auto;html=1;entryX=0;entryY=1;entryDx=0;entryDy=-5;entryPerimeter=0;fillColor=#f8cecc;strokeColor=#b85450;" edge="1" parent="1">
          <mxGeometry relative="1" as="geometry">
            <mxPoint x="318.75" y="4199.09" as="sourcePoint" />
            <mxPoint x="491.25" y="4199.09" as="targetPoint" />
          </mxGeometry>
        </mxCell>
        <mxCell id="6zx5J-GpkoQrdZdaRuo2-541" style="rounded=0;orthogonalLoop=1;jettySize=auto;html=1;dashed=1;endArrow=open;endFill=0;entryX=1.282;entryY=0.935;entryDx=0;entryDy=0;entryPerimeter=0;fillColor=#f8cecc;strokeColor=#b85450;" edge="1" parent="1" source="6zx5J-GpkoQrdZdaRuo2-533">
          <mxGeometry relative="1" as="geometry">
            <mxPoint x="771.09" y="4120" as="sourcePoint" />
            <mxPoint x="318.9099999999999" y="4120" as="targetPoint" />
          </mxGeometry>
        </mxCell>
        <mxCell id="6zx5J-GpkoQrdZdaRuo2-542" value="return selection" style="text;html=1;align=center;verticalAlign=middle;resizable=0;points=[];autosize=1;strokeColor=none;fillColor=none;" vertex="1" parent="1">
          <mxGeometry x="425" y="4098" width="110" height="30" as="geometry" />
        </mxCell>
        <mxCell id="6zx5J-GpkoQrdZdaRuo2-544" style="edgeStyle=none;rounded=0;orthogonalLoop=1;jettySize=auto;html=1;curved=0;exitX=1;exitY=1;exitDx=0;exitDy=-5;exitPerimeter=0;entryX=0;entryY=0;entryDx=0;entryDy=5;entryPerimeter=0;fillColor=#f8cecc;strokeColor=#b85450;" edge="1" parent="1" source="6zx5J-GpkoQrdZdaRuo2-537" target="6zx5J-GpkoQrdZdaRuo2-543">
          <mxGeometry relative="1" as="geometry" />
        </mxCell>
        <mxCell id="6zx5J-GpkoQrdZdaRuo2-545" value="show()" style="text;html=1;align=center;verticalAlign=middle;resizable=0;points=[];autosize=1;strokeColor=none;fillColor=none;" vertex="1" parent="1">
          <mxGeometry x="592.5" y="4200" width="60" height="30" as="geometry" />
        </mxCell>
        <mxCell id="6zx5J-GpkoQrdZdaRuo2-546" value="Alt" style="shape=umlFrame;whiteSpace=wrap;html=1;pointerEvents=0;fillColor=#f8cecc;strokeColor=#b85450;" vertex="1" parent="1">
          <mxGeometry x="27.5" y="4252" width="915" height="118" as="geometry" />
        </mxCell>
        <mxCell id="6zx5J-GpkoQrdZdaRuo2-547" value="&amp;nbsp;no VerifyPickup()" style="text;html=1;align=center;verticalAlign=middle;resizable=0;points=[];autosize=1;strokeColor=none;fillColor=none;" vertex="1" parent="1">
          <mxGeometry x="200" y="4280" width="120" height="30" as="geometry" />
        </mxCell>
        <mxCell id="6zx5J-GpkoQrdZdaRuo2-548" style="rounded=0;orthogonalLoop=1;jettySize=auto;html=1;fillColor=#f8cecc;strokeColor=#b85450;" edge="1" parent="1">
          <mxGeometry relative="1" as="geometry">
            <mxPoint x="50.000909090909005" y="4300" as="sourcePoint" />
            <mxPoint x="720.41" y="4300" as="targetPoint" />
          </mxGeometry>
        </mxCell>
        <mxCell id="6zx5J-GpkoQrdZdaRuo2-549" style="rounded=0;orthogonalLoop=1;jettySize=auto;html=1;dashed=1;endArrow=open;endFill=0;exitX=0.5;exitY=0.7;exitDx=0;exitDy=0;exitPerimeter=0;fillColor=#f8cecc;strokeColor=#b85450;" edge="1" parent="1" source="6zx5J-GpkoQrdZdaRuo2-507" target="6zx5J-GpkoQrdZdaRuo2-336">
          <mxGeometry relative="1" as="geometry">
            <mxPoint x="728" y="3840" as="sourcePoint" />
            <mxPoint x="330" y="3840" as="targetPoint" />
            <Array as="points">
              <mxPoint x="530" y="3840" />
            </Array>
          </mxGeometry>
        </mxCell>
        <mxCell id="6zx5J-GpkoQrdZdaRuo2-550" value="return selection" style="text;html=1;align=center;verticalAlign=middle;resizable=0;points=[];autosize=1;strokeColor=none;fillColor=none;" vertex="1" parent="1">
          <mxGeometry x="435" y="3835" width="110" height="30" as="geometry" />
        </mxCell>
        <mxCell id="6zx5J-GpkoQrdZdaRuo2-551" value="Γνωρίζουμε οτι το διάγραμμα ακολουθεί χρονική σειρά και πρέπει να πάει πιο πάνω" style="html=1;whiteSpace=wrap;fillColor=#f8cecc;strokeColor=#b85450;" vertex="1" parent="1">
          <mxGeometry x="772.5" y="4138" width="130" height="82" as="geometry" />
        </mxCell>
        <mxCell id="6zx5J-GpkoQrdZdaRuo2-554" style="edgeStyle=none;rounded=0;orthogonalLoop=1;jettySize=auto;html=1;curved=0;dashed=1;endArrow=open;endFill=0;fillColor=#f8cecc;strokeColor=#b85450;" edge="1" parent="1">
          <mxGeometry relative="1" as="geometry">
            <mxPoint x="710" y="4320" as="sourcePoint" />
            <mxPoint x="315" y="4320" as="targetPoint" />
          </mxGeometry>
        </mxCell>
        <mxCell id="6zx5J-GpkoQrdZdaRuo2-555" value="return selection&amp;nbsp;" style="text;html=1;align=center;verticalAlign=middle;resizable=0;points=[];autosize=1;strokeColor=none;fillColor=none;" vertex="1" parent="1">
          <mxGeometry x="430" y="4310" width="110" height="30" as="geometry" />
        </mxCell>
        <mxCell id="6zx5J-GpkoQrdZdaRuo2-556" style="rounded=0;orthogonalLoop=1;jettySize=auto;html=1;fillColor=#f8cecc;strokeColor=#b85450;" edge="1" parent="1">
          <mxGeometry relative="1" as="geometry">
            <mxPoint x="320" y="4340" as="sourcePoint" />
            <mxPoint x="890" y="4340" as="targetPoint" />
          </mxGeometry>
        </mxCell>
        <mxCell id="6zx5J-GpkoQrdZdaRuo2-558" value="CreatesReport()" style="text;html=1;align=center;verticalAlign=middle;resizable=0;points=[];autosize=1;strokeColor=none;fillColor=none;" vertex="1" parent="1">
          <mxGeometry x="575" y="4338" width="110" height="30" as="geometry" />
        </mxCell>
        <mxCell id="6zx5J-GpkoQrdZdaRuo2-559" value="Alt" style="shape=umlFrame;whiteSpace=wrap;html=1;pointerEvents=0;fillColor=#f8cecc;strokeColor=#b85450;" vertex="1" parent="1">
          <mxGeometry x="27.5" y="4370" width="915" height="130" as="geometry" />
        </mxCell>
        <mxCell id="6zx5J-GpkoQrdZdaRuo2-560" value="Popup notification Failed transaction" style="shape=umlLifeline;perimeter=lifelinePerimeter;whiteSpace=wrap;html=1;container=1;dropTarget=0;collapsible=0;recursiveResize=0;outlineConnect=0;portConstraint=eastwest;newEdgeStyle={&quot;curved&quot;:0,&quot;rounded&quot;:0};fillColor=#f8cecc;strokeColor=#b85450;" vertex="1" parent="1">
          <mxGeometry x="448.5" y="4370" width="110" height="70" as="geometry" />
        </mxCell>
        <mxCell id="6zx5J-GpkoQrdZdaRuo2-561" value="" style="html=1;points=[[0,0,0,0,5],[0,1,0,0,-5],[1,0,0,0,5],[1,1,0,0,-5]];perimeter=orthogonalPerimeter;outlineConnect=0;targetShapes=umlLifeline;portConstraint=eastwest;newEdgeStyle={&quot;curved&quot;:0,&quot;rounded&quot;:0};fillColor=#f8cecc;strokeColor=#b85450;" vertex="1" parent="6zx5J-GpkoQrdZdaRuo2-560">
          <mxGeometry x="47.5" y="45" width="10" height="20" as="geometry" />
        </mxCell>
        <mxCell id="6zx5J-GpkoQrdZdaRuo2-562" value="&quot;create&quot;" style="endArrow=open;endSize=12;dashed=1;html=1;rounded=0;fillColor=#f8cecc;strokeColor=#b85450;" edge="1" parent="1" target="6zx5J-GpkoQrdZdaRuo2-560">
          <mxGeometry width="160" relative="1" as="geometry">
            <mxPoint x="322.25" y="4410" as="sourcePoint" />
            <mxPoint x="427.25" y="4410" as="targetPoint" />
          </mxGeometry>
        </mxCell>
        <mxCell id="6zx5J-GpkoQrdZdaRuo2-563" style="rounded=0;orthogonalLoop=1;jettySize=auto;html=1;entryX=0;entryY=1;entryDx=0;entryDy=-5;entryPerimeter=0;fillColor=#f8cecc;strokeColor=#b85450;" edge="1" parent="1" target="6zx5J-GpkoQrdZdaRuo2-561">
          <mxGeometry relative="1" as="geometry">
            <mxPoint x="321.5" y="4430" as="sourcePoint" />
            <mxPoint x="503.5" y="4430" as="targetPoint" />
          </mxGeometry>
        </mxCell>
        <mxCell id="6zx5J-GpkoQrdZdaRuo2-564" value="show()" style="text;html=1;align=center;verticalAlign=middle;resizable=0;points=[];autosize=1;strokeColor=none;fillColor=none;" vertex="1" parent="1">
          <mxGeometry x="366" y="4420" width="60" height="30" as="geometry" />
        </mxCell>
        <mxCell id="6zx5J-GpkoQrdZdaRuo2-566" style="rounded=0;orthogonalLoop=1;jettySize=auto;html=1;entryX=0;entryY=0;entryDx=0;entryDy=5;entryPerimeter=0;fillColor=#f8cecc;strokeColor=#b85450;" edge="1" parent="1" target="6zx5J-GpkoQrdZdaRuo2-568">
          <mxGeometry relative="1" as="geometry">
            <mxPoint x="320" y="4450" as="sourcePoint" />
            <mxPoint x="494.5" y="4450" as="targetPoint" />
          </mxGeometry>
        </mxCell>
        <mxCell id="6zx5J-GpkoQrdZdaRuo2-567" value="Card Data screen" style="shape=umlLifeline;perimeter=lifelinePerimeter;whiteSpace=wrap;html=1;container=1;dropTarget=0;collapsible=0;recursiveResize=0;outlineConnect=0;portConstraint=eastwest;newEdgeStyle={&quot;curved&quot;:0,&quot;rounded&quot;:0};fillColor=#f8cecc;strokeColor=#b85450;" vertex="1" parent="1">
          <mxGeometry x="567.5" y="4400" width="110" height="120" as="geometry" />
        </mxCell>
        <mxCell id="6zx5J-GpkoQrdZdaRuo2-568" value="" style="html=1;points=[[0,0,0,0,5],[0,1,0,0,-5],[1,0,0,0,5],[1,1,0,0,-5]];perimeter=orthogonalPerimeter;outlineConnect=0;targetShapes=umlLifeline;portConstraint=eastwest;newEdgeStyle={&quot;curved&quot;:0,&quot;rounded&quot;:0};fillColor=#f8cecc;strokeColor=#b85450;" vertex="1" parent="6zx5J-GpkoQrdZdaRuo2-567">
          <mxGeometry x="47.5" y="45" width="10" height="45" as="geometry" />
        </mxCell>
        <mxCell id="6zx5J-GpkoQrdZdaRuo2-569" value="show()" style="text;html=1;align=center;verticalAlign=middle;resizable=0;points=[];autosize=1;strokeColor=none;fillColor=none;" vertex="1" parent="1">
          <mxGeometry x="445" y="4440" width="60" height="30" as="geometry" />
        </mxCell>
        <mxCell id="6zx5J-GpkoQrdZdaRuo2-570" style="rounded=0;orthogonalLoop=1;jettySize=auto;html=1;fillColor=#f8cecc;strokeColor=#b85450;" edge="1" parent="1" target="6zx5J-GpkoQrdZdaRuo2-568">
          <mxGeometry relative="1" as="geometry">
            <mxPoint x="44.590909090909" y="4469.05" as="sourcePoint" />
            <mxPoint x="714.9999999999999" y="4469.05" as="targetPoint" />
          </mxGeometry>
        </mxCell>
        <mxCell id="6zx5J-GpkoQrdZdaRuo2-571" value="Fills data" style="text;html=1;align=center;verticalAlign=middle;resizable=0;points=[];autosize=1;strokeColor=none;fillColor=none;" vertex="1" parent="1">
          <mxGeometry x="175" y="4450" width="70" height="30" as="geometry" />
        </mxCell>
        <mxCell id="6zx5J-GpkoQrdZdaRuo2-572" style="rounded=0;orthogonalLoop=1;jettySize=auto;html=1;exitX=0;exitY=1;exitDx=0;exitDy=-5;exitPerimeter=0;entryX=0.509;entryY=0.563;entryDx=0;entryDy=0;entryPerimeter=0;dashed=1;fillColor=#f8cecc;strokeColor=#b85450;" edge="1" parent="1" source="6zx5J-GpkoQrdZdaRuo2-568" target="6zx5J-GpkoQrdZdaRuo2-335">
          <mxGeometry relative="1" as="geometry" />
        </mxCell>
        <mxCell id="6zx5J-GpkoQrdZdaRuo2-573" value="return selection" style="text;html=1;align=center;verticalAlign=middle;resizable=0;points=[];autosize=1;strokeColor=none;fillColor=none;" vertex="1" parent="1">
          <mxGeometry x="310" y="3838" width="110" height="30" as="geometry" />
        </mxCell>
      </root>
    </mxGraphModel>
  </diagram>
</mxfile>
